<?xml version="1.0" encoding="utf-8"?>
<COLLADA xmlns="http://www.collada.org/2005/11/COLLADASchema" version="1.4.1" xmlns:xsi="http://www.w3.org/2001/XMLSchema-instance">
  <asset>
    <contributor>
      <author>Blender User</author>
      <authoring_tool>Blender 4.1.1 commit date:2024-04-15, commit time:15:11, hash:e1743a0317bc</authoring_tool>
    </contributor>
    <created>2024-09-30T17:42:06</created>
    <modified>2024-09-30T17:42:06</modified>
    <unit name="meter" meter="1"/>
    <up_axis>Z_UP</up_axis>
  </asset>
  <library_effects>
    <effect id="Surface_-_Matte-effect">
      <profile_COMMON>
        <technique sid="common">
          <lambert>
            <emission>
              <color sid="emission">0 0 0 1</color>
            </emission>
            <diffuse>
              <color sid="diffuse">0.701961 0.701961 0.701961 1</color>
            </diffuse>
            <index_of_refraction>
              <float sid="ior">1.5</float>
            </index_of_refraction>
          </lambert>
        </technique>
      </profile_COMMON>
    </effect>
  </library_effects>
  <library_images/>
  <library_materials>
    <material id="Surface_-_Matte-material" name="Surface_-_Matte">
      <instance_effect url="#Surface_-_Matte-effect"/>
    </material>
  </library_materials>
  <library_geometries>
    <geometry id="base_for_sensor-mesh" name="base_for_sensor">
      <mesh>
        <source id="base_for_sensor-mesh-positions">
          <float_array id="base_for_sensor-mesh-positions-array" count="495">-4.5 35 0 -4.346666 35 1.164686 -3.897114 35 2.25 -3.181981 35 3.181981 -2.25 35 3.897114 -1.164686 35 4.346666 0 35 4.5 1.164686 35 4.346666 2.25 35 3.897114 3.181981 35 3.181981 3.897114 35 2.25 4.346666 35 1.164686 4.5 35 0 4.346666 35 -1.164686 3.897114 35 -2.25 3.181981 35 -3.181981 2.25 35 -3.897114 1.164686 35 -4.346666 0 35 -4.5 -1.164686 35 -4.346666 -2.25 35 -3.897114 -3.181981 35 -3.181981 -3.897114 35 -2.25 -4.346666 35 -1.164686 -10 5 0 -9.829731 5 1.837495 -9.324723 5 3.612417 -8.502171 5 5.264322 -7.390089 5 6.736956 -6.026346 5 7.980172 -4.457384 5 8.951634 -2.73663 5 9.618256 -0.922684 5 9.957343 0.922684 5 9.957343 2.73663 5 9.618256 4.457384 5 8.951634 6.026346 5 7.980172 7.390089 5 6.736956 8.502171 5 5.264322 9.324723 5 3.612417 9.829731 5 1.837495 10 5 0 9.829731 5 -1.837495 9.324723 5 -3.612417 8.502171 5 -5.264322 7.390089 5 -6.736956 6.026346 5 -7.980172 4.457384 5 -8.951634 2.73663 5 -9.618256 0.922684 5 -9.957343 -0.922684 5 -9.957343 -2.73663 5 -9.618256 -4.457384 5 -8.951634 -6.026346 5 -7.980172 -7.390089 5 -6.736956 -8.502171 5 -5.264322 -9.324723 5 -3.612417 -9.829731 5 -1.837495 -4.5 5 0 -4.346666 5 -1.164686 -3.897114 5 -2.25 -3.181981 5 -3.181981 -2.25 5 -3.897114 -1.164686 5 -4.346666 0 5 -4.5 1.164686 5 -4.346666 2.25 5 -3.897114 3.181981 5 -3.181981 3.897114 5 -2.25 4.346666 5 -1.164686 4.5 5 0 4.346666 5 1.164686 3.897114 5 2.25 3.181981 5 3.181981 2.25 5 3.897114 1.164686 5 4.346666 0 5 4.5 -1.164686 5 4.346666 -2.25 5 3.897114 -3.181981 5 3.181981 -3.897114 5 2.25 -4.346666 5 1.164686 -10 0 0 -9.829731 0 1.837495 -9.324723 0 3.612417 -8.502171 0 5.264322 -7.390089 0 6.736956 -6.026346 0 7.980172 -4.457384 0 8.951634 -2.73663 0 9.618256 -0.922684 0 9.957343 0.922684 0 9.957343 2.73663 0 9.618256 4.457384 0 8.951634 6.026346 0 7.980172 7.390089 0 6.736956 8.502171 0 5.264322 9.324723 0 3.612417 9.829731 0 1.837495 10 0 0 9.829731 0 -1.837495 9.324723 0 -3.612417 8.502171 0 -5.264322 7.390089 0 -6.736956 6.026346 0 -7.980172 4.457384 0 -8.951634 2.73663 0 -9.618256 0.922684 0 -9.957343 -0.922684 0 -9.957343 -2.73663 0 -9.618256 -4.457384 0 -8.951634 -6.026346 0 -7.980172 -7.390089 0 -6.736956 -8.502171 0 -5.264322 -9.324723 0 -3.612417 -9.829731 0 -1.837495 -4.5 25 0 -4.5 15 0 -4.346666 25 -1.164686 -4.346666 15 -1.164686 -3.897114 25 -2.25 -3.897114 15 -2.25 -3.181981 25 -3.181981 -3.181981 15 -3.181981 -2.25 25 -3.897114 -2.25 15 -3.897114 -1.164686 25 -4.346666 -1.164686 15 -4.346666 0 25 -4.5 0 15 -4.5 1.164686 25 -4.346666 1.164686 15 -4.346666 2.25 25 -3.897114 2.25 15 -3.897114 3.181981 25 -3.181981 3.181981 15 -3.181981 3.897114 25 -2.25 3.897114 15 -2.25 4.346666 25 -1.164686 4.346666 15 -1.164686 4.5 25 0 4.5 15 0 4.346666 25 1.164686 4.346666 15 1.164686 3.897114 25 2.25 3.897114 15 2.25 3.181981 25 3.181981 3.181981 15 3.181981 2.25 25 3.897114 2.25 15 3.897114 1.164686 25 4.346666 1.164686 15 4.346666 0 25 4.5 0 15 4.5 -1.164686 25 4.346666 -1.164686 15 4.346666 -2.25 25 3.897114 -2.25 15 3.897114 -3.181981 25 3.181981 -3.181981 15 3.181981 -3.897114 25 2.25 -3.897114 15 2.25 -4.346666 25 1.164686 -4.346666 15 1.164686 0 0 0</float_array>
          <technique_common>
            <accessor source="#base_for_sensor-mesh-positions-array" count="165" stride="3">
              <param name="X" type="float"/>
              <param name="Y" type="float"/>
              <param name="Z" type="float"/>
            </accessor>
          </technique_common>
        </source>
        <source id="base_for_sensor-mesh-normals">
          <float_array id="base_for_sensor-mesh-normals-array" count="1578">0 1 6.02816e-6 0 1 -5.00393e-6 0 1 5.82276e-6 0 1 -6.87587e-6 0 1 6.46902e-6 0 1 -7.21525e-6 0 1 0 0 1 1.92951e-6 0 1 -6.46902e-6 0 1 7.21525e-6 0 1 -1.92951e-6 0 1 -5.86593e-7 0 1 3.76435e-7 0 1 -1.89228e-7 0 1 -5.88863e-7 0 1 1.46774e-7 0 1 0 0 1 -2.94431e-7 0 1 5.86593e-7 0 1 -3.76435e-7 0 1 1.89228e-7 0 1 5.88863e-7 0 1 -1.46774e-7 0 1 0 0 1 2.94431e-7 -0.9829773 -4.42758e-6 -0.1837273 -0.9829773 -1.0781e-5 -0.1837273 -1 -1.45961e-6 -2.25604e-5 -1 1.0781e-5 -2.25604e-5 -0.9829773 1.45961e-6 -0.1837273 -1 4.42758e-6 -2.25604e-5 -1 -4.42758e-6 2.25604e-5 -1 -1.0781e-5 2.25604e-5 -0.9829773 -1.45961e-6 0.1837273 -0.9829773 1.0781e-5 0.1837273 -1 1.45961e-6 2.25604e-5 -0.9829773 4.42758e-6 0.1837273 -0.982969 -4.42758e-6 0.1837716 -0.982969 -1.07754e-5 0.1837716 -0.9324804 -4.42363e-5 0.3612205 -0.9324805 1.07698e-5 0.3612207 -0.9829691 2.99847e-5 0.1837717 -0.9324805 4.42759e-6 0.3612207 -0.932464 -4.42759e-6 0.361263 -0.932464 -1.07791e-5 0.361263 -0.8502289 -1.45961e-6 0.5264133 -0.8502289 1.07791e-5 0.5264133 -0.932464 2.99847e-5 0.361263 -0.8502289 4.42758e-6 0.5264133 -0.8502054 -4.42758e-6 0.5264513 -0.8502054 -1.0794e-5 0.5264513 -0.7390242 -1.43762e-6 0.6736789 -0.7390242 1.0794e-5 0.6736789 -0.8502054 1.43762e-6 0.5264513 -0.7390242 4.42759e-6 0.6736789 -0.7389943 -4.42759e-6 0.6737118 -0.7389942 -1.07754e-5 0.6737118 -0.6026532 -1.45961e-6 0.7980033 -0.6026523 1.07773e-5 0.798004 -0.7389934 1.45961e-6 0.6737128 -0.6026522 4.42759e-6 0.7980041 -0.6026172 -4.42759e-6 0.7980306 -0.6026171 -1.07884e-5 0.7980306 -0.445759 -1.45961e-6 0.895153 -0.445759 1.07884e-5 0.895153 -0.6026172 1.45961e-6 0.7980306 -0.445759 4.42758e-6 0.895153 -0.4457171 -4.42758e-6 0.895174 -0.4457171 -1.0781e-5 0.8951739 -0.2736835 -1.45961e-6 0.9618199 -0.2736843 1.0781e-5 0.9618197 -0.4457178 1.45961e-6 0.8951736 -0.2736843 4.42758e-6 0.9618196 -0.2736421 -4.42759e-6 0.9618316 -0.2736421 -1.0781e-5 0.9618316 -0.09229165 -1.45961e-6 0.9957321 -0.09229165 1.07829e-5 0.9957321 -0.2736421 1.45961e-6 0.9618316 -0.09229165 4.42758e-6 0.9957321 -0.09224587 -4.42758e-6 0.9957364 -0.09224587 -1.07661e-5 0.9957364 0.09224587 -1.45961e-6 0.9957364 0.09224587 1.07661e-5 0.9957364 -0.09224587 1.45961e-6 0.9957364 0.09224587 4.42758e-6 0.9957364 0.09229165 -4.42758e-6 0.9957321 0.09229165 -1.07829e-5 0.9957321 0.2736421 -1.45961e-6 0.9618316 0.2736421 1.0781e-5 0.9618316 0.09229165 1.45961e-6 0.9957321 0.2736421 4.42759e-6 0.9618316 0.2736843 -4.42758e-6 0.9618196 0.2736843 -1.0781e-5 0.9618197 0.4457178 -1.45961e-6 0.8951736 0.4457171 1.0781e-5 0.8951739 0.2736835 1.45961e-6 0.9618199 0.4457171 4.42758e-6 0.895174 0.445759 -4.42758e-6 0.895153 0.445759 -1.07884e-5 0.895153 0.6026172 -1.45961e-6 0.7980306 0.6026171 1.07884e-5 0.7980306 0.445759 1.45961e-6 0.895153 0.6026172 4.42759e-6 0.7980306 0.6026522 -4.42759e-6 0.7980041 0.6026523 -1.07773e-5 0.798004 0.7389934 -1.45961e-6 0.6737128 0.7389942 1.07754e-5 0.6737118 0.6026532 1.45961e-6 0.7980033 0.7389943 4.42759e-6 0.6737118 0.7390242 -4.42759e-6 0.6736789 0.7390242 -1.0794e-5 0.6736789 0.8502054 -1.43762e-6 0.5264513 0.8502054 1.0794e-5 0.5264513 0.7390242 1.43762e-6 0.6736789 0.8502054 4.42758e-6 0.5264513 0.8502289 -4.42758e-6 0.5264133 0.8502289 -1.07791e-5 0.5264133 0.932464 -2.99847e-5 0.361263 0.932464 1.07791e-5 0.361263 0.8502289 1.45961e-6 0.5264133 0.932464 4.42759e-6 0.361263 0.9324805 -4.42759e-6 0.3612207 0.9324805 -1.07698e-5 0.3612207 0.9829691 -2.99847e-5 0.1837717 0.982969 1.07754e-5 0.1837716 0.9324804 4.42363e-5 0.3612205 0.982969 4.42758e-6 0.1837716 0.9829773 -4.42758e-6 0.1837273 0.9829773 -1.0781e-5 0.1837273 1 -1.45961e-6 2.25604e-5 1 1.0781e-5 2.25604e-5 0.9829773 1.45961e-6 0.1837273 1 4.42758e-6 2.25604e-5 1 -4.42758e-6 -2.25604e-5 1 -1.0781e-5 -2.25604e-5 0.9829773 -1.45961e-6 -0.1837273 0.9829773 1.0781e-5 -0.1837273 1 1.45961e-6 -2.25604e-5 0.9829773 4.42758e-6 -0.1837273 0.982969 -4.42758e-6 -0.1837716 0.982969 -1.07754e-5 -0.1837716 0.9324804 -4.42363e-5 -0.3612205 0.9324805 1.07698e-5 -0.3612207 0.9829691 2.99847e-5 -0.1837717 0.9324805 4.42759e-6 -0.3612207 0.932464 -4.42759e-6 -0.361263 0.932464 -1.07791e-5 -0.361263 0.8502289 -1.45961e-6 -0.5264133 0.8502289 1.07791e-5 -0.5264133 0.932464 2.99847e-5 -0.361263 0.8502289 4.42758e-6 -0.5264133 0.8502054 -4.42758e-6 -0.5264513 0.8502054 -1.0794e-5 -0.5264513 0.7390242 -1.43762e-6 -0.6736789 0.7390242 1.0794e-5 -0.6736789 0.8502054 1.43762e-6 -0.5264513 0.7390242 4.42759e-6 -0.6736789 0.7389943 -4.42759e-6 -0.6737118 0.7389942 -1.07754e-5 -0.6737118 0.6026532 -1.45961e-6 -0.7980033 0.6026523 1.07773e-5 -0.798004 0.7389934 1.45961e-6 -0.6737128 0.6026522 4.42759e-6 -0.7980041 0.6026172 -4.42759e-6 -0.7980306 0.6026171 -1.07884e-5 -0.7980306 0.445759 -1.45961e-6 -0.895153 0.445759 1.07884e-5 -0.895153 0.6026172 1.45961e-6 -0.7980306 0.445759 4.42758e-6 -0.895153 0.4457171 -4.42758e-6 -0.895174 0.4457171 -1.0781e-5 -0.8951739 0.2736835 -1.45961e-6 -0.9618199 0.2736843 1.0781e-5 -0.9618197 0.4457178 1.45961e-6 -0.8951736 0.2736843 4.42758e-6 -0.9618196 0.2736421 -4.42759e-6 -0.9618316 0.2736421 -1.0781e-5 -0.9618316 0.09229165 -1.45961e-6 -0.9957321 0.09229165 1.07829e-5 -0.9957321 0.2736421 1.45961e-6 -0.9618316 0.09229165 4.42758e-6 -0.9957321 0.09224587 -4.42758e-6 -0.9957364 0.09224587 -1.07661e-5 -0.9957364 -0.09224587 -1.45961e-6 -0.9957364 -0.09224587 1.07661e-5 -0.9957364 0.09224587 1.45961e-6 -0.9957364 -0.09224587 4.42758e-6 -0.9957364 -0.09229165 -4.42758e-6 -0.9957321 -0.09229165 -1.07829e-5 -0.9957321 -0.2736421 -1.45961e-6 -0.9618316 -0.2736421 1.0781e-5 -0.9618316 -0.09229165 1.45961e-6 -0.9957321 -0.2736421 4.42759e-6 -0.9618316 -0.2736843 -4.42758e-6 -0.9618196 -0.2736843 -1.0781e-5 -0.9618197 -0.4457178 -1.45961e-6 -0.8951736 -0.4457171 1.0781e-5 -0.8951739 -0.2736835 1.45961e-6 -0.9618199 -0.4457171 4.42758e-6 -0.895174 -0.445759 -4.42758e-6 -0.895153 -0.445759 -1.07884e-5 -0.895153 -0.6026172 -1.45961e-6 -0.7980306 -0.6026171 1.07884e-5 -0.7980306 -0.445759 1.45961e-6 -0.895153 -0.6026172 4.42759e-6 -0.7980306 -0.6026522 -4.42759e-6 -0.7980041 -0.6026523 -1.07773e-5 -0.798004 -0.7389934 -1.45961e-6 -0.6737128 -0.7389942 1.07754e-5 -0.6737118 -0.6026532 1.45961e-6 -0.7980033 -0.7389943 4.42759e-6 -0.6737118 -0.7390242 -4.42759e-6 -0.6736789 -0.7390242 -1.0794e-5 -0.6736789 -0.8502054 -1.43762e-6 -0.5264513 -0.8502054 1.0794e-5 -0.5264513 -0.7390242 1.43762e-6 -0.6736789 -0.8502054 4.42758e-6 -0.5264513 -0.8502289 -4.42758e-6 -0.5264133 -0.8502289 -1.07791e-5 -0.5264133 -0.932464 -2.99847e-5 -0.361263 -0.932464 1.07791e-5 -0.361263 -0.8502289 1.45961e-6 -0.5264133 -0.932464 4.42759e-6 -0.361263 -0.9324805 -4.42759e-6 -0.3612207 -0.9324805 -1.07698e-5 -0.3612207 -0.9829691 -2.99847e-5 -0.1837717 -0.982969 1.07754e-5 -0.1837716 -0.9324804 4.42363e-5 -0.3612205 -0.982969 4.42758e-6 -0.1837716 -0.965933 -6.26362e-6 -0.2587923 -0.965933 5.29457e-6 -0.2587923 -1 -2.096e-6 -2.82228e-5 -1 -5.29457e-6 -2.82079e-5 -0.965933 2.096e-6 -0.2587923 -1 6.26362e-6 -2.82228e-5 -1 -6.26362e-6 2.82228e-5 -1 5.29457e-6 2.82079e-5 -0.965933 -2.096e-6 0.2587923 -0.965933 -5.29457e-6 0.2587923 -1 2.096e-6 2.82228e-5 -0.965933 6.26362e-6 0.2587923 -0.9659186 -6.26362e-6 0.2588461 -0.9659186 5.28619e-6 0.2588461 -0.8660393 -2.096e-6 0.4999759 -0.8660393 -5.28526e-6 0.4999759 -0.9659186 2.096e-6 0.2588462 -0.8660393 6.26362e-6 0.4999759 -0.8660119 -6.26362e-6 0.5000236 -0.8660119 5.28712e-6 0.5000236 -0.7071271 -2.096e-6 0.7070865 -0.7071273 -5.28991e-6 0.7070863 -0.866012 2.096e-6 0.5000234 -0.7071273 6.26362e-6 0.7070863 -0.7070862 -6.26362e-6 0.7071275 -0.7070861 5.28991e-6 0.7071275 -0.5000231 -2.096e-6 0.8660121 -0.5000239 -5.28898e-6 0.8660117 -0.7070868 2.096e-6 0.7071269 -0.5000239 6.26362e-6 0.8660117 -0.499976 -6.26362e-6 0.8660393 -0.499976 5.28432e-6 0.8660393 -0.2588463 -2.096e-6 0.9659186 -0.2588457 -5.28432e-6 0.9659187 -0.4999755 2.096e-6 0.8660396 -0.2588457 6.26362e-6 0.9659187 -0.2587922 -6.26362e-6 0.965933 -0.2587923 5.29457e-6 0.965933 -2.81632e-5 -2.096e-6 1 -2.81632e-5 -5.29457e-6 1 -0.2587922 4.0552e-5 0.965933 -2.81632e-5 6.26362e-6 1 2.81632e-5 -6.26362e-6 1 2.81632e-5 5.29457e-6 1 0.2587922 -4.0552e-5 0.965933 0.2587923 -5.29457e-6 0.965933 2.81632e-5 2.096e-6 1 0.2587922 6.26362e-6 0.965933 0.2588457 -6.26362e-6 0.9659187 0.2588457 5.28432e-6 0.9659187 0.4999755 -2.096e-6 0.8660396 0.499976 -5.28432e-6 0.8660393 0.2588463 2.096e-6 0.9659186 0.499976 6.26362e-6 0.8660393 0.5000239 -6.26362e-6 0.8660117 0.5000239 5.28898e-6 0.8660117 0.7070868 -2.096e-6 0.7071269 0.7070861 -5.28991e-6 0.7071275 0.5000231 2.096e-6 0.8660121 0.7070862 6.26362e-6 0.7071275 0.7071273 -6.26362e-6 0.7070863 0.7071273 5.28991e-6 0.7070863 0.866012 -2.096e-6 0.5000234 0.8660119 -5.28712e-6 0.5000236 0.7071271 2.096e-6 0.7070865 0.8660119 6.26362e-6 0.5000236 0.8660395 -6.26362e-6 0.4999758 0.8660395 5.28432e-6 0.4999758 0.9659187 -2.096e-6 0.258846 0.9659186 -5.28526e-6 0.2588462 0.8660393 2.096e-6 0.499976 0.9659186 6.26362e-6 0.2588462 0.965933 -6.26362e-6 0.2587923 0.965933 5.29457e-6 0.2587923 1 -2.096e-6 2.82228e-5 1 -5.29457e-6 2.82079e-5 0.965933 2.096e-6 0.2587923 1 6.26362e-6 2.82228e-5 1 -6.26362e-6 -2.82228e-5 1 5.29457e-6 -2.82079e-5 0.965933 -2.096e-6 -0.2587923 0.965933 -5.29457e-6 -0.2587923 1 2.096e-6 -2.82228e-5 0.965933 6.26362e-6 -0.2587923 0.9659186 -6.26362e-6 -0.2588461 0.9659186 5.28619e-6 -0.2588461 0.8660393 -2.096e-6 -0.4999759 0.8660393 -5.28526e-6 -0.4999759 0.9659186 2.096e-6 -0.2588462 0.8660393 6.26362e-6 -0.4999759 0.8660119 -6.26362e-6 -0.5000236 0.8660119 5.28712e-6 -0.5000236 0.7071271 -2.096e-6 -0.7070865 0.7071273 -5.28991e-6 -0.7070863 0.866012 2.096e-6 -0.5000234 0.7071273 6.26362e-6 -0.7070863 0.7070862 -6.26362e-6 -0.7071275 0.7070861 5.28991e-6 -0.7071275 0.5000231 -2.096e-6 -0.8660121 0.5000239 -5.28898e-6 -0.8660117 0.7070868 2.096e-6 -0.7071269 0.5000239 6.26362e-6 -0.8660117 0.499976 -6.26362e-6 -0.8660393 0.499976 5.28432e-6 -0.8660393 0.2588463 -2.096e-6 -0.9659186 0.2588457 -5.28432e-6 -0.9659187 0.4999755 2.096e-6 -0.8660396 0.2588457 6.26362e-6 -0.9659187 0.2587922 -6.26362e-6 -0.965933 0.2587923 5.29457e-6 -0.965933 2.81632e-5 -2.096e-6 -1 2.81632e-5 -5.29457e-6 -1 0.2587922 4.0552e-5 -0.965933 2.81632e-5 6.26362e-6 -1 -2.81632e-5 -6.26362e-6 -1 -2.81632e-5 5.29457e-6 -1 -0.2587922 -4.0552e-5 -0.965933 -0.2587923 -5.29457e-6 -0.965933 -2.81632e-5 2.096e-6 -1 -0.2587922 6.26362e-6 -0.965933 -0.2588457 -6.26362e-6 -0.9659187 -0.2588457 5.28432e-6 -0.9659187 -0.4999755 -2.096e-6 -0.8660396 -0.499976 -5.28432e-6 -0.8660393 -0.2588463 2.096e-6 -0.9659186 -0.499976 6.26362e-6 -0.8660393 -0.5000239 -6.26362e-6 -0.8660117 -0.5000239 5.28898e-6 -0.8660117 -0.7070868 -2.096e-6 -0.7071269 -0.7070861 -5.28991e-6 -0.7071275 -0.5000231 2.096e-6 -0.8660121 -0.7070862 6.26362e-6 -0.7071275 -0.7071273 -6.26362e-6 -0.7070863 -0.7071273 5.28991e-6 -0.7070863 -0.866012 -2.096e-6 -0.5000234 -0.8660119 -5.28712e-6 -0.5000236 -0.7071271 2.096e-6 -0.7070865 -0.8660119 6.26362e-6 -0.5000236 -0.8660395 -6.26362e-6 -0.4999758 -0.8660395 5.28432e-6 -0.4999758 -0.9659187 -2.096e-6 -0.258846 -0.9659186 -5.28526e-6 -0.2588462 -0.8660393 2.096e-6 -0.499976 -0.9659186 6.26362e-6 -0.2588462 -0.9659186 6.26362e-6 -0.2588462 -0.9659186 -5.28526e-6 -0.2588461 -0.8660393 2.096e-6 -0.4999759 -0.8660394 5.28526e-6 -0.4999758 -0.9659187 -2.096e-6 -0.2588461 -0.8660395 -6.26362e-6 -0.4999759 -0.8660118 6.26362e-6 -0.5000236 -0.8660118 -5.28712e-6 -0.5000236 -0.7071271 2.096e-6 -0.7070865 -0.7071273 5.28991e-6 -0.7070864 -0.8660119 -2.096e-6 -0.5000234 -0.7071273 -6.26362e-6 -0.7070864 -0.7070862 6.26362e-6 -0.7071274 -0.7070862 -5.28712e-6 -0.7071275 -0.5000233 2.096e-6 -0.866012 -0.5000239 5.28805e-6 -0.8660117 -0.7070868 -2.096e-6 -0.7071269 -0.5000239 -6.26362e-6 -0.8660117 -0.4999761 6.26362e-6 -0.8660393 -0.4999761 -5.28432e-6 -0.8660393 -0.2588464 2.096e-6 -0.9659186 -0.2587922 6.26362e-6 -0.965933 -0.2587922 -5.29457e-6 -0.965933 -2.81334e-5 2.096e-6 -1 2.81334e-5 6.26362e-6 -1 2.81334e-5 -5.29457e-6 -1 0.2587922 4.0552e-5 -0.9659331 0.2588458 6.26362e-6 -0.9659187 0.2588458 -5.28432e-6 -0.9659187 0.4999755 2.096e-6 -0.8660396 0.5000239 6.26362e-6 -0.8660117 0.5000239 -5.28805e-6 -0.8660117 0.7070868 2.096e-6 -0.7071269 0.7070862 5.28712e-6 -0.7071275 0.5000233 -2.096e-6 -0.866012 0.7070862 -6.26362e-6 -0.7071274 0.7071273 6.26362e-6 -0.7070863 0.7071273 -5.28712e-6 -0.7070863 0.8660119 2.096e-6 -0.5000234 0.8660118 5.28712e-6 -0.5000236 0.7071271 -2.096e-6 -0.7070865 0.8660118 -6.26362e-6 -0.5000236 0.8660394 6.26362e-6 -0.4999758 0.8660395 -5.28526e-6 -0.4999758 0.9659187 2.096e-6 -0.2588461 0.9659186 5.28526e-6 -0.2588462 0.8660393 -2.096e-6 -0.4999759 0.9659186 -6.26362e-6 -0.2588462 0.9659186 6.26362e-6 0.2588462 0.9659186 -5.28526e-6 0.2588461 0.8660393 2.096e-6 0.4999759 0.8660394 5.28526e-6 0.4999758 0.9659187 -2.096e-6 0.2588461 0.8660395 -6.26362e-6 0.4999759 0.8660118 6.26362e-6 0.5000236 0.8660118 -5.28712e-6 0.5000236 0.7071271 2.096e-6 0.7070865 0.7071273 5.28991e-6 0.7070864 0.8660119 -2.096e-6 0.5000234 0.7071273 -6.26362e-6 0.7070864 0.7070862 6.26362e-6 0.7071274 0.7070862 -5.28712e-6 0.7071275 0.5000233 2.096e-6 0.866012 0.5000239 5.28805e-6 0.8660117 0.7070868 -2.096e-6 0.7071269 0.5000239 -6.26362e-6 0.8660117 0.4999761 6.26362e-6 0.8660393 0.4999761 -5.28432e-6 0.8660393 0.2588464 2.096e-6 0.9659186 0.2587922 6.26362e-6 0.965933 0.2587922 -5.29457e-6 0.965933 2.81334e-5 2.096e-6 1 -2.81334e-5 6.26362e-6 1 -2.81334e-5 -5.29457e-6 1 -0.2587922 4.0552e-5 0.9659331 -0.2588458 6.26362e-6 0.9659187 -0.2588458 -5.28432e-6 0.9659187 -0.4999755 2.096e-6 0.8660396 -0.5000239 6.26362e-6 0.8660117 -0.5000239 -5.28805e-6 0.8660117 -0.7070868 2.096e-6 0.7071269 -0.7070862 5.28712e-6 0.7071275 -0.5000233 -2.096e-6 0.866012 -0.7070862 -6.26362e-6 0.7071274 -0.7071273 6.26362e-6 0.7070863 -0.7071273 -5.28712e-6 0.7070863 -0.8660119 2.096e-6 0.5000234 -0.8660118 5.28712e-6 0.5000236 -0.7071271 -2.096e-6 0.7070865 -0.8660118 -6.26362e-6 0.5000236 -0.8660394 6.26362e-6 0.4999758 -0.8660395 -5.28526e-6 0.4999758 -0.9659187 2.096e-6 0.2588461 -0.9659186 5.28526e-6 0.2588462 -0.8660393 -2.096e-6 0.4999759 -0.9659186 -6.26362e-6 0.2588462 -0.8660395 -5.28432e-6 0.4999758 -0.9659187 2.096e-6 0.258846 -0.8660395 6.26362e-6 0.4999758 -0.8660117 -6.26362e-6 0.5000237 -0.8660117 5.28712e-6 0.5000237 -0.707127 -2.096e-6 0.7070866 -0.7070863 -6.26362e-6 0.7071273 -0.7070863 5.28991e-6 0.7071273 -0.5000233 -2.096e-6 0.866012 -0.2588458 -5.28432e-6 0.9659187 -0.4999756 2.096e-6 0.8660396 -0.2588458 6.26362e-6 0.9659187 -2.81185e-5 -5.29457e-6 1 -2.81185e-5 6.26362e-6 1 2.81185e-5 2.096e-6 1 0.2587922 6.26362e-6 0.965933 0.4999761 -5.28525e-6 0.8660392 0.2588464 2.096e-6 0.9659186 0.4999761 6.26362e-6 0.8660392 0.500024 -6.26362e-6 0.8660116 0.500024 5.28898e-6 0.8660116 0.7070869 -2.096e-6 0.7071268 0.7071272 -6.26362e-6 0.7070864 0.7071272 5.28898e-6 0.7070864 0.866012 -2.096e-6 0.5000235 0.9659186 -5.28619e-6 0.2588461 0.8660393 2.096e-6 0.4999759 0.9659186 6.26362e-6 0.2588461 0.8660395 -5.28432e-6 -0.4999758 0.9659187 2.096e-6 -0.258846 0.8660395 6.26362e-6 -0.4999758 0.8660117 -6.26362e-6 -0.5000237 0.8660117 5.28712e-6 -0.5000237 0.707127 -2.096e-6 -0.7070866 0.7070863 -6.26362e-6 -0.7071273 0.7070863 5.28991e-6 -0.7071273 0.5000233 -2.096e-6 -0.866012 0.2588458 -5.28432e-6 -0.9659187 0.4999756 2.096e-6 -0.8660396 0.2588458 6.26362e-6 -0.9659187 2.81185e-5 -5.29457e-6 -1 2.81185e-5 6.26362e-6 -1 -2.81185e-5 2.096e-6 -1 -0.2587922 6.26362e-6 -0.965933 -0.4999761 -5.28525e-6 -0.8660392 -0.2588464 2.096e-6 -0.9659186 -0.4999761 6.26362e-6 -0.8660392 -0.500024 -6.26362e-6 -0.8660116 -0.500024 5.28898e-6 -0.8660116 -0.7070869 -2.096e-6 -0.7071268 -0.7071272 -6.26362e-6 -0.7070864 -0.7071272 5.28898e-6 -0.7070864 -0.866012 -2.096e-6 -0.5000235 -0.9659186 -5.28619e-6 -0.2588461 -0.8660393 2.096e-6 -0.4999759 -0.9659186 6.26362e-6 -0.2588461 0 -1 0</float_array>
          <technique_common>
            <accessor source="#base_for_sensor-mesh-normals-array" count="526" stride="3">
              <param name="X" type="float"/>
              <param name="Y" type="float"/>
              <param name="Z" type="float"/>
            </accessor>
          </technique_common>
        </source>
        <source id="base_for_sensor-mesh-map-0">
          <float_array id="base_for_sensor-mesh-map-0-array" count="1956">-4.346666 -1.164686 4.346666 -1.164686 -4.5 0 -4.5 0 4.346666 -1.164686 4.5 0 -4.5 0 4.5 0 -4.346666 1.164686 -4.346666 1.164686 4.5 0 4.346666 1.164686 -4.346666 1.164686 4.346666 1.164686 -3.897114 2.25 -3.897114 2.25 4.346666 1.164686 3.897114 2.25 -3.897114 2.25 3.897114 2.25 -3.181981 3.181981 -3.181981 3.181981 3.897114 2.25 3.181981 3.181981 -3.181981 3.181981 3.181981 3.181981 -2.25 3.897114 -2.25 3.897114 3.181981 3.181981 2.25 3.897114 -2.25 3.897114 2.25 3.897114 -1.164686 4.346666 -1.164686 4.346666 2.25 3.897114 1.164686 4.346666 -1.164686 4.346666 1.164686 4.346666 0 4.5 4.346666 -1.164686 -4.346666 -1.164686 3.897114 -2.25 3.897114 -2.25 -4.346666 -1.164686 -3.897114 -2.25 3.897114 -2.25 -3.897114 -2.25 3.181981 -3.181981 3.181981 -3.181981 -3.897114 -2.25 -3.181981 -3.181981 3.181981 -3.181981 -3.181981 -3.181981 2.25 -3.897114 2.25 -3.897114 -3.181981 -3.181981 -2.25 -3.897114 2.25 -3.897114 -2.25 -3.897114 1.164686 -4.346666 1.164686 -4.346666 -2.25 -3.897114 -1.164686 -4.346666 1.164686 -4.346666 -1.164686 -4.346666 0 -4.5 -9.829731 1.837495 -10 0 -4.5 0 -4.5 0 -10 0 -9.829731 -1.837495 -4.5 0 -9.829731 -1.837495 -4.346666 -1.164686 -4.346666 -1.164686 -9.829731 -1.837495 -9.324723 -3.612417 -4.346666 -1.164686 -9.324723 -3.612417 -3.897114 -2.25 -3.897114 -2.25 -9.324723 -3.612417 -8.502171 -5.264322 -3.897114 -2.25 -8.502171 -5.264322 -7.390089 -6.736956 -3.897114 -2.25 -7.390089 -6.736956 -3.181981 -3.181981 -3.181981 -3.181981 -7.390089 -6.736956 -6.026346 -7.980172 -3.181981 -3.181981 -6.026346 -7.980172 -2.25 -3.897114 -2.25 -3.897114 -6.026346 -7.980172 -4.457384 -8.951634 -2.25 -3.897114 -4.457384 -8.951634 -1.164686 -4.346666 -1.164686 -4.346666 -4.457384 -8.951634 -2.73663 -9.618256 -1.164686 -4.346666 -2.73663 -9.618256 -0.922684 -9.957343 -1.164686 -4.346666 -0.922684 -9.957343 0 -4.5 0 -4.5 -0.922684 -9.957343 0.922684 -9.957343 0 -4.5 0.922684 -9.957343 1.164686 -4.346666 1.164686 -4.346666 0.922684 -9.957343 2.73663 -9.618256 1.164686 -4.346666 2.73663 -9.618256 4.457384 -8.951634 1.164686 -4.346666 4.457384 -8.951634 2.25 -3.897114 2.25 -3.897114 4.457384 -8.951634 6.026346 -7.980172 2.25 -3.897114 6.026346 -7.980172 3.181981 -3.181981 3.181981 -3.181981 6.026346 -7.980172 7.390089 -6.736956 3.181981 -3.181981 7.390089 -6.736956 3.897114 -2.25 3.897114 -2.25 7.390089 -6.736956 8.502171 -5.264322 3.897114 -2.25 8.502171 -5.264322 9.324723 -3.612417 3.897114 -2.25 9.324723 -3.612417 4.346666 -1.164686 4.346666 -1.164686 9.324723 -3.612417 9.829731 -1.837495 4.346666 -1.164686 9.829731 -1.837495 4.5 0 4.5 0 9.829731 -1.837495 10 0 4.5 0 10 0 9.829731 1.837495 4.5 0 9.829731 1.837495 4.346666 1.164686 4.346666 1.164686 9.829731 1.837495 9.324723 3.612417 4.346666 1.164686 9.324723 3.612417 3.897114 2.25 3.897114 2.25 9.324723 3.612417 8.502171 5.264322 3.897114 2.25 8.502171 5.264322 7.390089 6.736956 3.897114 2.25 7.390089 6.736956 3.181981 3.181981 3.181981 3.181981 7.390089 6.736956 6.026346 7.980172 3.181981 3.181981 6.026346 7.980172 2.25 3.897114 2.25 3.897114 6.026346 7.980172 4.457384 8.951634 2.25 3.897114 4.457384 8.951634 1.164686 4.346666 1.164686 4.346666 4.457384 8.951634 2.73663 9.618256 1.164686 4.346666 2.73663 9.618256 0.922684 9.957343 1.164686 4.346666 0.922684 9.957343 0 4.5 0 4.5 0.922684 9.957343 -0.922684 9.957343 0 4.5 -0.922684 9.957343 -1.164686 4.346666 -1.164686 4.346666 -0.922684 9.957343 -2.73663 9.618256 -1.164686 4.346666 -2.73663 9.618256 -4.457384 8.951634 -1.164686 4.346666 -4.457384 8.951634 -2.25 3.897114 -2.25 3.897114 -4.457384 8.951634 -6.026346 7.980172 -2.25 3.897114 -6.026346 7.980172 -3.181981 3.181981 -3.181981 3.181981 -6.026346 7.980172 -7.390089 6.736956 -3.181981 3.181981 -7.390089 6.736956 -3.897114 2.25 -3.897114 2.25 -7.390089 6.736956 -8.502171 5.264322 -3.897114 2.25 -8.502171 5.264322 -9.324723 3.612417 -3.897114 2.25 -9.324723 3.612417 -4.346666 1.164686 -4.346666 1.164686 -9.324723 3.612417 -9.829731 1.837495 -4.346666 1.164686 -9.829731 1.837495 -4.5 0 -5 29.56793 0 29.56793 -5 31.41593 -5 31.41593 0 29.56793 0 31.41593 -5 -31.41593 0 -31.41593 -5 -29.56793 -5 -29.56793 0 -31.41593 0 -29.56793 -5 -29.56793 0 -29.56793 -5 -27.71994 -5 -27.71994 0 -29.56793 0 -27.71994 -5 -27.71994 0 -27.71994 -5 -25.87194 -5 -25.87194 0 -27.71994 0 -25.87194 -5 -25.87194 0 -25.87194 -5 -24.02395 -5 -24.02395 0 -25.87194 0 -24.02395 -5 -24.02395 0 -24.02395 -5 -22.17595 -5 -22.17595 0 -24.02395 0 -22.17595 -5 -22.17595 0 -22.17595 -5 -20.32795 -5 -20.32795 0 -22.17595 0 -20.32795 -5 -20.32795 0 -20.32795 -5 -18.47996 -5 -18.47996 0 -20.32795 0 -18.47996 -5 -18.47996 0 -18.47996 -5 -16.63196 -5 -16.63196 0 -18.47996 0 -16.63196 -5 -16.63196 0 -16.63196 -5 -14.78396 -5 -14.78396 0 -16.63196 0 -14.78396 -5 -14.78396 0 -14.78396 -5 -12.93597 -5 -12.93597 0 -14.78396 0 -12.93597 -5 -12.93597 0 -12.93597 -5 -11.08797 -5 -11.08797 0 -12.93597 0 -11.08797 -5 -11.08797 0 -11.08797 -5 -9.239978 -5 -9.239978 0 -11.08797 0 -9.239978 -5 -9.239978 0 -9.239978 -5 -7.391983 -5 -7.391983 0 -9.239978 0 -7.391983 -5 -7.391983 0 -7.391983 -5 -5.543987 -5 -5.543987 0 -7.391983 0 -5.543987 -5 -5.543987 0 -5.543987 -5 -3.695991 -5 -3.695991 0 -5.543987 0 -3.695991 -5 -3.695991 0 -3.695991 -5 -1.847996 -5 -1.847996 0 -3.695991 0 -1.847996 -5 -1.847996 0 -1.847996 -5 0 -5 0 0 -1.847996 0 0 -5 0 0 0 -5 1.847996 -5 1.847996 0 0 0 1.847996 -5 1.847996 0 1.847996 -5 3.695991 -5 3.695991 0 1.847996 0 3.695991 -5 3.695991 0 3.695991 -5 5.543987 -5 5.543987 0 3.695991 0 5.543987 -5 5.543987 0 5.543987 -5 7.391983 -5 7.391983 0 5.543987 0 7.391983 -5 7.391983 0 7.391983 -5 9.239978 -5 9.239978 0 7.391983 0 9.239978 -5 9.239978 0 9.239978 -5 11.08797 -5 11.08797 0 9.239978 0 11.08797 -5 11.08797 0 11.08797 -5 12.93597 -5 12.93597 0 11.08797 0 12.93597 -5 12.93597 0 12.93597 -5 14.78396 -5 14.78396 0 12.93597 0 14.78396 -5 14.78396 0 14.78396 -5 16.63196 -5 16.63196 0 14.78396 0 16.63196 -5 16.63196 0 16.63196 -5 18.47996 -5 18.47996 0 16.63196 0 18.47996 -5 18.47996 0 18.47996 -5 20.32795 -5 20.32795 0 18.47996 0 20.32795 -5 20.32795 0 20.32795 -5 22.17595 -5 22.17595 0 20.32795 0 22.17595 -5 22.17595 0 22.17595 -5 24.02395 -5 24.02395 0 22.17595 0 24.02395 -5 24.02395 0 24.02395 -5 25.87194 -5 25.87194 0 24.02395 0 25.87194 -5 25.87194 0 25.87194 -5 27.71994 -5 27.71994 0 25.87194 0 27.71994 -5 27.71994 0 27.71994 -5 29.56793 -5 29.56793 0 27.71994 0 29.56793 -35 12.95907 -25 12.95907 -35 14.13717 -35 14.13717 -25 12.95907 -25 14.13717 -35 -14.13717 -25 -14.13717 -35 -12.95907 -35 -12.95907 -25 -14.13717 -25 -12.95907 -35 -12.95907 -25 -12.95907 -35 -11.78097 -35 -11.78097 -25 -12.95907 -25 -11.78097 -35 -11.78097 -25 -11.78097 -35 -10.60287 -35 -10.60287 -25 -11.78097 -25 -10.60287 -35 -10.60287 -25 -10.60287 -35 -9.424778 -35 -9.424778 -25 -10.60287 -25 -9.424778 -35 -9.424778 -25 -9.424778 -35 -8.246682 -35 -8.246682 -25 -9.424778 -25 -8.246682 -35 -8.246682 -25 -8.246682 -35 -7.068583 -35 -7.068583 -25 -8.246682 -25 -7.068583 -35 -7.068583 -25 -7.068583 -35 -5.890486 -35 -5.890486 -25 -7.068583 -25 -5.890486 -35 -5.890486 -25 -5.890486 -35 -4.712389 -35 -4.712389 -25 -5.890486 -25 -4.712389 -35 -4.712389 -25 -4.712389 -35 -3.534292 -35 -3.534292 -25 -4.712389 -25 -3.534292 -35 -3.534292 -25 -3.534292 -35 -2.356194 -35 -2.356194 -25 -3.534292 -25 -2.356194 -35 -2.356194 -25 -2.356194 -35 -1.178097 -35 -1.178097 -25 -2.356194 -25 -1.178097 -35 -1.178097 -25 -1.178097 -35 0 -35 0 -25 -1.178097 -25 0 -35 0 -25 0 -35 1.178097 -35 1.178097 -25 0 -25 1.178097 -35 1.178097 -25 1.178097 -35 2.356194 -35 2.356194 -25 1.178097 -25 2.356194 -35 2.356194 -25 2.356194 -35 3.534292 -35 3.534292 -25 2.356194 -25 3.534292 -35 3.534292 -25 3.534292 -35 4.712389 -35 4.712389 -25 3.534292 -25 4.712389 -35 4.712389 -25 4.712389 -35 5.890486 -35 5.890486 -25 4.712389 -25 5.890486 -35 5.890486 -25 5.890486 -35 7.068583 -35 7.068583 -25 5.890486 -25 7.068583 -35 7.068583 -25 7.068583 -35 8.246682 -35 8.246682 -25 7.068583 -25 8.246682 -35 8.246682 -25 8.246682 -35 9.424778 -35 9.424778 -25 8.246682 -25 9.424778 -35 9.424778 -25 9.424778 -35 10.60287 -35 10.60287 -25 9.424778 -25 10.60287 -35 10.60287 -25 10.60287 -35 11.78097 -35 11.78097 -25 10.60287 -25 11.78097 -35 11.78097 -25 11.78097 -35 12.95907 -35 12.95907 -25 11.78097 -25 12.95907 -5 -12.95907 -15 -12.95907 -5 -14.13717 -5 -14.13717 -15 -12.95907 -15 -14.13717 -5 14.13717 -15 14.13717 -5 12.95907 -5 12.95907 -15 14.13717 -15 12.95907 -5 12.95907 -15 12.95907 -5 11.78097 -5 11.78097 -15 12.95907 -15 11.78097 -5 11.78097 -15 11.78097 -5 10.60287 -5 10.60287 -15 11.78097 -15 10.60287 -5 10.60287 -15 10.60287 -5 9.424778 -5 9.424778 -15 10.60287 -15 9.424778 -5 9.424778 -15 9.424778 -5 8.246682 -5 8.246682 -15 9.424778 -15 8.246682 -5 8.246682 -15 8.246682 -5 7.068583 -5 7.068583 -15 8.246682 -15 7.068583 -5 7.068583 -15 7.068583 -5 5.890486 -5 5.890486 -15 7.068583 -15 5.890486 -5 5.890486 -15 5.890486 -5 4.712389 -5 4.712389 -15 5.890486 -15 4.712389 -5 4.712389 -15 4.712389 -5 3.534292 -5 3.534292 -15 4.712389 -15 3.534292 -5 3.534292 -15 3.534292 -5 2.356194 -5 2.356194 -15 3.534292 -15 2.356194 -5 2.356194 -15 2.356194 -5 1.178097 -5 1.178097 -15 2.356194 -15 1.178097 -5 1.178097 -15 1.178097 -5 0 -5 0 -15 1.178097 -15 0 -5 0 -15 0 -5 -1.178097 -5 -1.178097 -15 0 -15 -1.178097 -5 -1.178097 -15 -1.178097 -5 -2.356194 -5 -2.356194 -15 -1.178097 -15 -2.356194 -5 -2.356194 -15 -2.356194 -5 -3.534292 -5 -3.534292 -15 -2.356194 -15 -3.534292 -5 -3.534292 -15 -3.534292 -5 -4.712389 -5 -4.712389 -15 -3.534292 -15 -4.712389 -5 -4.712389 -15 -4.712389 -5 -5.890486 -5 -5.890486 -15 -4.712389 -15 -5.890486 -5 -5.890486 -15 -5.890486 -5 -7.068583 -5 -7.068583 -15 -5.890486 -15 -7.068583 -5 -7.068583 -15 -7.068583 -5 -8.246682 -5 -8.246682 -15 -7.068583 -15 -8.246682 -5 -8.246682 -15 -8.246682 -5 -9.424778 -5 -9.424778 -15 -8.246682 -15 -9.424778 -5 -9.424778 -15 -9.424778 -5 -10.60287 -5 -10.60287 -15 -9.424778 -15 -10.60287 -5 -10.60287 -15 -10.60287 -5 -11.78097 -5 -11.78097 -15 -10.60287 -15 -11.78097 -5 -11.78097 -15 -11.78097 -5 -12.95907 -5 -12.95907 -15 -11.78097 -15 -12.95907 -25 -14.13717 -15 -14.13717 -25 -12.95907 -25 -12.95907 -15 -14.13717 -15 -12.95907 -25 -12.95907 -15 -12.95907 -25 -11.78097 -25 -11.78097 -15 -12.95907 -15 -11.78097 -25 -11.78097 -15 -11.78097 -25 -10.60287 -25 -10.60287 -15 -11.78097 -15 -10.60287 -25 -10.60287 -15 -10.60287 -25 -9.424778 -25 -9.424778 -15 -10.60287 -15 -9.424778 -25 -9.424778 -15 -9.424778 -25 -8.246682 -25 -8.246682 -15 -9.424778 -15 -8.246682 -25 -8.246682 -15 -8.246682 -25 -7.068583 -25 -7.068583 -15 -8.246682 -15 -7.068583 -25 -7.068583 -15 -7.068583 -25 -5.890486 -25 -5.890486 -15 -7.068583 -15 -5.890486 -25 -5.890486 -15 -5.890486 -25 -4.712389 -25 -4.712389 -15 -5.890486 -15 -4.712389 -25 -4.712389 -15 -4.712389 -25 -3.534292 -25 -3.534292 -15 -4.712389 -15 -3.534292 -25 -3.534292 -15 -3.534292 -25 -2.356194 -25 -2.356194 -15 -3.534292 -15 -2.356194 -25 -2.356194 -15 -2.356194 -25 -1.178097 -25 -1.178097 -15 -2.356194 -15 -1.178097 -25 -1.178097 -15 -1.178097 -25 0 -25 0 -15 -1.178097 -15 0 -25 0 -15 0 -25 1.178097 -25 1.178097 -15 0 -15 1.178097 -25 1.178097 -15 1.178097 -25 2.356194 -25 2.356194 -15 1.178097 -15 2.356194 -25 2.356194 -15 2.356194 -25 3.534292 -25 3.534292 -15 2.356194 -15 3.534292 -25 3.534292 -15 3.534292 -25 4.712389 -25 4.712389 -15 3.534292 -15 4.712389 -25 4.712389 -15 4.712389 -25 5.890486 -25 5.890486 -15 4.712389 -15 5.890486 -25 5.890486 -15 5.890486 -25 7.068583 -25 7.068583 -15 5.890486 -15 7.068583 -25 7.068583 -15 7.068583 -25 8.246682 -25 8.246682 -15 7.068583 -15 8.246682 -25 8.246682 -15 8.246682 -25 9.424778 -25 9.424778 -15 8.246682 -15 9.424778 -25 9.424778 -15 9.424778 -25 10.60287 -25 10.60287 -15 9.424778 -15 10.60287 -25 10.60287 -15 10.60287 -25 11.78097 -25 11.78097 -15 10.60287 -15 11.78097 -25 11.78097 -15 11.78097 -25 12.95907 -25 12.95907 -15 11.78097 -15 12.95907 -25 12.95907 -15 12.95907 -25 14.13717 -25 14.13717 -15 12.95907 -15 14.13717 9.829731 -1.837495 10 0 0 0 0 0 10 0 9.829731 1.837495 0 0 9.829731 1.837495 9.324723 3.612417 9.324723 3.612417 8.502171 5.264322 0 0 0 0 8.502171 5.264322 7.390089 6.736956 0 0 7.390089 6.736956 6.026346 7.980172 6.026346 7.980172 4.457384 8.951634 0 0 0 0 4.457384 8.951634 2.73663 9.618256 0 0 2.73663 9.618256 0.922684 9.957343 0.922684 9.957343 -0.922684 9.957343 0 0 0 0 -0.922684 9.957343 -2.73663 9.618256 0 0 -2.73663 9.618256 -4.457384 8.951634 -4.457384 8.951634 -6.026346 7.980172 0 0 0 0 -6.026346 7.980172 -7.390089 6.736956 0 0 -7.390089 6.736956 -8.502171 5.264322 -8.502171 5.264322 -9.324723 3.612417 0 0 0 0 -9.324723 3.612417 -9.829731 1.837495 0 0 -9.829731 1.837495 -10 0 -10 0 -9.829731 -1.837495 0 0 0 0 -9.829731 -1.837495 -9.324723 -3.612417 0 0 -9.324723 -3.612417 -8.502171 -5.264322 -8.502171 -5.264322 -7.390089 -6.736956 0 0 0 0 -7.390089 -6.736956 -6.026346 -7.980172 0 0 -6.026346 -7.980172 -4.457384 -8.951634 -4.457384 -8.951634 -2.73663 -9.618256 0 0 0 0 -2.73663 -9.618256 -0.922684 -9.957343 0 0 -0.922684 -9.957343 0.922684 -9.957343 0.922684 -9.957343 2.73663 -9.618256 0 0 0 0 2.73663 -9.618256 4.457384 -8.951634 0 0 4.457384 -8.951634 6.026346 -7.980172 6.026346 -7.980172 7.390089 -6.736956 0 0 0 0 7.390089 -6.736956 8.502171 -5.264322 0 0 8.502171 -5.264322 9.324723 -3.612417 9.324723 -3.612417 9.829731 -1.837495 0 0</float_array>
          <technique_common>
            <accessor source="#base_for_sensor-mesh-map-0-array" count="978" stride="2">
              <param name="S" type="float"/>
              <param name="T" type="float"/>
            </accessor>
          </technique_common>
        </source>
        <vertices id="base_for_sensor-mesh-vertices">
          <input semantic="POSITION" source="#base_for_sensor-mesh-positions"/>
        </vertices>
        <triangles material="Surface_-_Matte-material" count="326">
          <input semantic="VERTEX" source="#base_for_sensor-mesh-vertices" offset="0"/>
          <input semantic="NORMAL" source="#base_for_sensor-mesh-normals" offset="1"/>
          <input semantic="TEXCOORD" source="#base_for_sensor-mesh-map-0" offset="2" set="0"/>
          <p>1 0 0 11 0 1 0 0 2 0 1 3 11 1 4 12 1 5 0 2 6 12 2 7 23 2 8 23 3 9 12 3 10 13 3 11 23 4 12 13 4 13 22 4 14 22 5 15 13 5 16 14 5 17 22 6 18 14 6 19 21 6 20 21 7 21 14 7 22 15 7 23 21 6 24 15 6 25 20 6 26 20 6 27 15 6 28 16 6 29 20 6 30 16 6 31 19 6 32 19 6 33 16 6 34 17 6 35 19 6 36 17 6 37 18 6 38 11 8 39 1 8 40 10 8 41 10 9 42 1 9 43 2 9 44 10 6 45 2 6 46 9 6 47 9 10 48 2 10 49 3 10 50 9 6 51 3 6 52 8 6 53 8 6 54 3 6 55 4 6 56 8 6 57 4 6 58 7 6 59 7 6 60 4 6 61 5 6 62 7 6 63 5 6 64 6 6 65 57 6 66 24 6 67 58 6 68 58 6 69 24 6 70 25 6 71 58 6 72 25 6 73 81 6 74 81 6 75 25 6 76 26 6 77 81 11 78 26 11 79 80 11 80 80 6 81 26 6 82 27 6 83 80 12 84 27 12 85 28 12 86 80 6 87 28 6 88 79 6 89 79 13 90 28 13 91 29 13 92 79 6 93 29 6 94 78 6 95 78 6 96 29 6 97 30 6 98 78 14 99 30 14 100 77 14 101 77 6 102 30 6 103 31 6 104 77 6 105 31 6 106 32 6 107 77 15 108 32 15 109 76 15 110 76 6 111 32 6 112 33 6 113 76 16 114 33 16 115 75 16 116 75 6 117 33 6 118 34 6 119 75 6 120 34 6 121 35 6 122 75 17 123 35 17 124 74 17 125 74 6 126 35 6 127 36 6 128 74 6 129 36 6 130 73 6 131 73 13 132 36 13 133 37 13 134 73 6 135 37 6 136 72 6 137 72 12 138 37 12 139 38 12 140 72 6 141 38 6 142 39 6 143 72 11 144 39 11 145 71 11 146 71 6 147 39 6 148 40 6 149 71 6 150 40 6 151 70 6 152 70 6 153 40 6 154 41 6 155 70 6 156 41 6 157 42 6 158 70 6 159 42 6 160 69 6 161 69 6 162 42 6 163 43 6 164 69 18 165 43 18 166 68 18 167 68 6 168 43 6 169 44 6 170 68 19 171 44 19 172 45 19 173 68 6 174 45 6 175 67 6 176 67 20 177 45 20 178 46 20 179 67 6 180 46 6 181 66 6 182 66 6 183 46 6 184 47 6 185 66 21 186 47 21 187 65 21 188 65 6 189 47 6 190 48 6 191 65 6 192 48 6 193 49 6 194 65 22 195 49 22 196 64 22 197 64 6 198 49 6 199 50 6 200 64 23 201 50 23 202 63 23 203 63 6 204 50 6 205 51 6 206 63 6 207 51 6 208 52 6 209 63 24 210 52 24 211 62 24 212 62 6 213 52 6 214 53 6 215 62 6 216 53 6 217 61 6 218 61 20 219 53 20 220 54 20 221 61 6 222 54 6 223 60 6 224 60 19 225 54 19 226 55 19 227 60 6 228 55 6 229 56 6 230 60 18 231 56 18 232 59 18 233 59 6 234 56 6 235 57 6 236 59 6 237 57 6 238 58 6 239 57 25 240 115 26 241 24 27 242 24 28 243 115 29 244 82 30 245 24 31 246 82 32 247 25 33 248 25 34 249 82 35 250 83 36 251 25 37 252 83 38 253 26 39 254 26 40 255 83 41 256 84 42 257 26 43 258 84 44 259 27 45 260 27 46 261 84 47 262 85 48 263 27 49 264 85 50 265 28 51 266 28 52 267 85 53 268 86 54 269 28 55 270 86 56 271 29 57 272 29 58 273 86 59 274 87 60 275 29 61 276 87 62 277 30 63 278 30 64 279 87 65 280 88 66 281 30 67 282 88 68 283 31 69 284 31 70 285 88 71 286 89 72 287 31 73 288 89 74 289 32 75 290 32 76 291 89 77 292 90 78 293 32 79 294 90 80 295 33 81 296 33 82 297 90 83 298 91 84 299 33 85 300 91 86 301 34 87 302 34 88 303 91 89 304 92 90 305 34 91 306 92 92 307 35 93 308 35 94 309 92 95 310 93 96 311 35 97 312 93 98 313 36 99 314 36 100 315 93 101 316 94 102 317 36 103 318 94 104 319 37 105 320 37 106 321 94 107 322 95 108 323 37 109 324 95 110 325 38 111 326 38 112 327 95 113 328 96 114 329 38 115 330 96 116 331 39 117 332 39 118 333 96 119 334 97 120 335 39 121 336 97 122 337 40 123 338 40 124 339 97 125 340 98 126 341 40 127 342 98 128 343 41 129 344 41 130 345 98 131 346 99 132 347 41 133 348 99 134 349 42 135 350 42 136 351 99 137 352 100 138 353 42 139 354 100 140 355 43 141 356 43 142 357 100 143 358 101 144 359 43 145 360 101 146 361 44 147 362 44 148 363 101 149 364 102 150 365 44 151 366 102 152 367 45 153 368 45 154 369 102 155 370 103 156 371 45 157 372 103 158 373 46 159 374 46 160 375 103 161 376 104 162 377 46 163 378 104 164 379 47 165 380 47 166 381 104 167 382 105 168 383 47 169 384 105 170 385 48 171 386 48 172 387 105 173 388 106 174 389 48 175 390 106 176 391 49 177 392 49 178 393 106 179 394 107 180 395 49 181 396 107 182 397 50 183 398 50 184 399 107 185 400 108 186 401 50 187 402 108 188 403 51 189 404 51 190 405 108 191 406 109 192 407 51 193 408 109 194 409 52 195 410 52 196 411 109 197 412 110 198 413 52 199 414 110 200 415 53 201 416 53 202 417 110 203 418 111 204 419 53 205 420 111 206 421 54 207 422 54 208 423 111 209 424 112 210 425 54 211 426 112 212 427 55 213 428 55 214 429 112 215 430 113 216 431 55 217 432 113 218 433 56 219 434 56 220 435 113 221 436 114 222 437 56 223 438 114 224 439 57 225 440 57 226 441 114 227 442 115 228 443 23 229 444 118 230 445 0 231 446 0 232 447 118 233 448 116 234 449 0 235 450 116 236 451 1 237 452 1 238 453 116 239 454 162 240 455 1 241 456 162 242 457 2 243 458 2 244 459 162 245 460 160 246 461 2 247 462 160 248 463 3 249 464 3 250 465 160 251 466 158 252 467 3 253 468 158 254 469 4 255 470 4 256 471 158 257 472 156 258 473 4 259 474 156 260 475 5 261 476 5 262 477 156 263 478 154 264 479 5 265 480 154 266 481 6 267 482 6 268 483 154 269 484 152 270 485 6 271 486 152 272 487 7 273 488 7 274 489 152 275 490 150 276 491 7 277 492 150 278 493 8 279 494 8 280 495 150 281 496 148 282 497 8 283 498 148 284 499 9 285 500 9 286 501 148 287 502 146 288 503 9 289 504 146 290 505 10 291 506 10 292 507 146 293 508 144 294 509 10 295 510 144 296 511 11 297 512 11 298 513 144 299 514 142 300 515 11 301 516 142 302 517 12 303 518 12 304 519 142 305 520 140 306 521 12 307 522 140 308 523 13 309 524 13 310 525 140 311 526 138 312 527 13 313 528 138 314 529 14 315 530 14 316 531 138 317 532 136 318 533 14 319 534 136 320 535 15 321 536 15 322 537 136 323 538 134 324 539 15 325 540 134 326 541 16 327 542 16 328 543 134 329 544 132 330 545 16 331 546 132 332 547 17 333 548 17 334 549 132 335 550 130 336 551 17 337 552 130 338 553 18 339 554 18 340 555 130 341 556 128 342 557 18 343 558 128 344 559 19 345 560 19 346 561 128 347 562 126 348 563 19 349 564 126 350 565 20 351 566 20 352 567 126 353 568 124 354 569 20 355 570 124 356 571 21 357 572 21 358 573 124 359 574 122 360 575 21 361 576 122 362 577 22 363 578 22 364 579 122 365 580 120 366 581 22 367 582 120 368 583 23 369 584 23 370 585 120 371 586 118 372 587 81 240 588 163 238 589 58 239 590 58 236 591 163 237 592 117 235 593 58 234 594 117 232 595 59 233 596 59 230 597 117 231 598 119 229 599 59 373 600 119 374 601 60 375 602 60 376 603 119 377 604 121 378 605 60 379 606 121 380 607 61 381 608 61 382 609 121 383 610 123 384 611 61 385 612 123 386 613 62 387 614 62 388 615 123 389 616 125 390 617 62 391 618 125 392 619 63 393 620 63 350 621 125 351 622 127 349 623 63 394 624 127 395 625 64 396 626 64 344 627 127 345 628 129 343 629 64 397 630 129 398 631 65 399 632 65 338 633 129 339 634 131 337 635 65 400 636 131 401 637 66 402 638 66 332 639 131 333 640 133 331 641 66 403 642 133 404 643 67 405 644 67 406 645 133 407 646 135 408 647 67 409 648 135 410 649 68 411 650 68 412 651 135 413 652 137 414 653 68 415 654 137 416 655 69 417 656 69 418 657 137 419 658 139 420 659 69 312 660 139 310 661 70 311 662 70 308 663 139 309 664 141 307 665 70 306 666 141 304 667 71 305 668 71 302 669 141 303 670 143 301 671 71 421 672 143 422 673 72 423 674 72 424 675 143 425 676 145 426 677 72 427 678 145 428 679 73 429 680 73 430 681 145 431 682 147 432 683 73 433 684 147 434 685 74 435 686 74 436 687 147 437 688 149 438 689 74 439 690 149 440 691 75 441 692 75 278 693 149 279 694 151 277 695 75 442 696 151 443 697 76 444 698 76 272 699 151 273 700 153 271 701 76 445 702 153 446 703 77 447 704 77 266 705 153 267 706 155 265 707 77 448 708 155 449 709 78 450 710 78 260 711 155 261 712 157 259 713 78 451 714 157 452 715 79 453 716 79 454 717 157 455 718 159 456 719 79 457 720 159 458 721 80 459 722 80 460 723 159 461 724 161 462 725 80 463 726 161 464 727 81 465 728 81 466 729 161 467 730 163 468 731 116 235 732 117 236 733 162 237 734 162 238 735 117 239 736 163 240 737 162 241 738 163 242 739 160 243 740 160 469 741 163 470 742 161 471 743 160 472 744 161 473 745 158 474 746 158 250 747 161 251 748 159 252 749 158 475 750 159 476 751 156 477 752 156 452 753 159 453 754 157 451 755 156 259 756 157 260 757 154 261 758 154 478 759 157 479 760 155 480 761 154 265 762 155 266 763 152 267 764 152 481 765 155 447 766 153 482 767 152 271 768 153 272 769 150 273 770 150 443 771 153 483 772 151 484 773 150 277 774 151 278 775 148 279 776 148 485 777 151 486 778 149 487 779 148 488 780 149 489 781 146 490 782 146 434 783 149 435 784 147 433 785 146 491 786 147 492 787 144 493 788 144 292 789 147 293 790 145 294 791 144 295 792 145 296 793 142 297 794 142 494 795 145 495 796 143 496 797 142 301 798 143 302 799 140 303 800 140 304 801 143 305 802 141 306 803 140 307 804 141 308 805 138 309 806 138 310 807 141 311 808 139 312 809 138 313 810 139 314 811 136 315 812 136 497 813 139 498 814 137 499 815 136 500 816 137 501 817 134 502 818 134 322 819 137 323 820 135 324 821 134 503 822 135 504 823 132 505 824 132 404 825 135 405 826 133 403 827 132 331 828 133 332 829 130 333 830 130 506 831 133 507 832 131 508 833 130 337 834 131 338 835 128 339 836 128 509 837 131 399 838 129 510 839 128 343 840 129 344 841 126 345 842 126 395 843 129 511 844 127 512 845 126 349 846 127 350 847 124 351 848 124 513 849 127 514 850 125 515 851 124 516 852 125 517 853 122 518 854 122 386 855 125 387 856 123 385 857 122 519 858 123 520 859 120 521 860 120 364 861 123 365 862 121 366 863 120 367 864 121 368 865 118 369 866 118 522 867 121 523 868 119 524 869 118 229 870 119 230 871 116 231 872 116 232 873 119 233 874 117 234 875 83 525 876 82 525 877 164 525 878 164 525 879 82 525 880 115 525 881 164 525 882 115 525 883 114 525 884 114 525 885 113 525 886 164 525 887 164 525 888 113 525 889 112 525 890 164 525 891 112 525 892 111 525 893 111 525 894 110 525 895 164 525 896 164 525 897 110 525 898 109 525 899 164 525 900 109 525 901 108 525 902 108 525 903 107 525 904 164 525 905 164 525 906 107 525 907 106 525 908 164 525 909 106 525 910 105 525 911 105 525 912 104 525 913 164 525 914 164 525 915 104 525 916 103 525 917 164 525 918 103 525 919 102 525 920 102 525 921 101 525 922 164 525 923 164 525 924 101 525 925 100 525 926 164 525 927 100 525 928 99 525 929 99 525 930 98 525 931 164 525 932 164 525 933 98 525 934 97 525 935 164 525 936 97 525 937 96 525 938 96 525 939 95 525 940 164 525 941 164 525 942 95 525 943 94 525 944 164 525 945 94 525 946 93 525 947 93 525 948 92 525 949 164 525 950 164 525 951 92 525 952 91 525 953 164 525 954 91 525 955 90 525 956 90 525 957 89 525 958 164 525 959 164 525 960 89 525 961 88 525 962 164 525 963 88 525 964 87 525 965 87 525 966 86 525 967 164 525 968 164 525 969 86 525 970 85 525 971 164 525 972 85 525 973 84 525 974 84 525 975 83 525 976 164 525 977</p>
        </triangles>
      </mesh>
    </geometry>
  </library_geometries>
  <library_visual_scenes>
    <visual_scene id="Scene" name="Scene">
      <node id="base_for_sensor" name="base_for_sensor" type="NODE">
        <matrix sid="transform">0.01 0 0 0 0 7.54979e-10 -0.01 0 0 0.01 7.54979e-10 0 0 0 0 1</matrix>
        <instance_geometry url="#base_for_sensor-mesh" name="base_for_sensor">
          <bind_material>
            <technique_common>
              <instance_material symbol="Surface_-_Matte-material" target="#Surface_-_Matte-material">
                <bind_vertex_input semantic="UVMap" input_semantic="TEXCOORD" input_set="0"/>
              </instance_material>
            </technique_common>
          </bind_material>
        </instance_geometry>
      </node>
    </visual_scene>
  </library_visual_scenes>
  <scene>
    <instance_visual_scene url="#Scene"/>
  </scene>
</COLLADA>