<?xml version="1.0" encoding="utf-8"?>
<COLLADA xmlns="http://www.collada.org/2005/11/COLLADASchema" version="1.4.1" xmlns:xsi="http://www.w3.org/2001/XMLSchema-instance">
  <asset>
    <contributor>
      <author>Blender User</author>
      <authoring_tool>Blender 4.1.1 commit date:2024-04-15, commit time:15:11, hash:e1743a0317bc</authoring_tool>
    </contributor>
    <created>2024-10-25T01:26:37</created>
    <modified>2024-10-25T01:26:37</modified>
    <unit name="meter" meter="1"/>
    <up_axis>Z_UP</up_axis>
  </asset>
  <library_effects>
    <effect id="ABS__White__017-effect">
      <profile_COMMON>
        <technique sid="common">
          <lambert>
            <emission>
              <color sid="emission">0 0 0 1</color>
            </emission>
            <diffuse>
              <color sid="diffuse">0.964706 0.964706 0.952941 1</color>
            </diffuse>
            <index_of_refraction>
              <float sid="ior">1.5</float>
            </index_of_refraction>
          </lambert>
        </technique>
      </profile_COMMON>
    </effect>
    <effect id="Steel_-_Satin_017-effect">
      <profile_COMMON>
        <technique sid="common">
          <lambert>
            <emission>
              <color sid="emission">0 0 0 1</color>
            </emission>
            <diffuse>
              <color sid="diffuse">0.627451 0.627451 0.627451 1</color>
            </diffuse>
            <index_of_refraction>
              <float sid="ior">1.5</float>
            </index_of_refraction>
          </lambert>
        </technique>
      </profile_COMMON>
    </effect>
  </library_effects>
  <library_images/>
  <library_materials>
    <material id="ABS__White__017-material" name="ABS_(White).017">
      <instance_effect url="#ABS__White__017-effect"/>
    </material>
    <material id="Steel_-_Satin_017-material" name="Steel_-_Satin.017">
      <instance_effect url="#Steel_-_Satin_017-effect"/>
    </material>
  </library_materials>
  <library_geometries>
    <geometry id="edf_torsional_400_top-mesh" name="edf_torsional_400_top">
      <mesh>
        <source id="edf_torsional_400_top-mesh-positions">
          <float_array id="edf_torsional_400_top-mesh-positions-array" count="789">1.430989 5.403408 3.878023 1.948035 5.395927 2.63042 1.936199 7.166006 2.585293 1.430989 7.165627 3.878023 1.430989 5.403408 6.478023 1.430989 7.165627 6.478023 -0.6823165 5.399028 2.599952 -0.1690109 5.403408 3.878023 -0.1690109 7.165627 3.878023 -0.678527 7.166457 2.587761 -0.1690109 5.403408 6.478023 -0.1690109 7.165627 6.478023 1.930989 5.603408 2.378054 1.930989 5.603408 0.278054 1.930989 6.003408 0.278054 0.165989 5.900627 6.478023 1.095989 5.900627 6.478023 1.095989 5.900627 4.078023 0.165989 5.900627 4.078023 1.095989 6.830627 6.478023 1.095989 6.830627 4.078023 0.165989 6.830627 6.478023 0.165989 6.830627 4.078023 1.630989 6.003408 0.278054 1.630989 7.165199 2.578054 1.630989 6.003408 2.578054 -0.669011 6.003408 0.278054 -0.369011 7.165199 2.578054 -0.369011 6.003408 0.278054 -0.369011 6.003408 2.578054 -0.669011 5.603408 2.378054 0.09250903 6.003408 1.519867 0.3322131 6.003408 0.955573 0.9468314 6.003408 0.9823707 1.166861 6.003408 1.410086 0.979739 6.003408 1.848487 0.4412595 6.003408 1.940297 -0.669011 5.603408 0.278054 1.174884 5.603408 1.377369 0.797296 5.603408 0.894343 0.2105559 5.603408 1.079304 0.1187456 5.603408 1.617784 0.4749379 5.603408 1.941016 0.946831 5.603408 1.873738 0.165989 6.398759 36.23933 0.165989 6.533364 36.4803 0.165989 6.381553 36.59896 0.165989 6.184239 36.46847 -0.269011 6.21878 36.55106 -0.269011 6.545605 36.49367 -0.269011 6.332494 36.23933 1.530989 6.398759 36.23933 1.530989 6.533364 36.4803 1.530989 6.381553 36.59896 1.530989 6.184239 36.46847 1.095989 6.21878 36.55106 1.095989 6.545605 36.49367 1.095989 6.332494 36.23933 1.724111 4.534968 35.82802 1.533327 5.221473 35.82802 1.533624 5.20269 37.02802 1.755321 4.483965 37.02802 1.530989 7.130627 35.82802 1.530989 7.130627 37.02802 -0.4621306 4.534973 37.02802 -0.2713493 5.221481 37.02802 -0.2716454 5.202698 35.82802 -0.4933406 4.48397 35.82802 -0.269011 7.130627 37.02802 -0.269011 7.130627 35.82802 2.330989 3.865627 37.02802 2.362053 3.864556 35.7215 -1.150713 3.864288 35.74188 -1.069011 3.865627 37.02802 3.173228 3.865627 36.99426 3.559677 3.865627 36.51326 3.290894 3.865627 35.92235 0.6318043 3.865627 34.99849 -2.011845 3.865627 35.91487 -2.289325 3.865627 36.38999 -2.002539 3.865627 36.96543 0.7537268 3.865627 35.39497 0.7912703 3.865627 35.61215 0.567038 3.865627 35.70261 0.4693827 3.865627 35.41469 2.923703 3.865627 36.24715 3.091718 3.865627 36.35417 3.05021 3.865627 36.5707 2.808249 3.865627 36.56107 2.76512 3.865627 36.36658 -1.508282 3.865627 36.35417 -1.54979 3.865627 36.5707 -1.811688 3.865627 36.54725 -1.752303 3.865627 36.24908 0.165989 5.900627 35.82802 1.095989 5.900627 35.82802 1.095989 6.830627 35.82802 0.165989 6.830627 35.82802 1.095989 5.900627 37.02802 1.095989 6.830627 37.02802 0.165989 6.830627 37.02802 0.165989 5.900627 37.02802 0.6136455 3.365627 35.3314 0.813672 3.365627 35.58538 0.5771395 3.365627 35.70085 0.4548707 3.365627 35.54444 2.938276 3.365627 36.24715 3.096858 3.365627 36.36658 3.053727 3.365627 36.56107 2.811766 3.365627 36.5707 2.77026 3.365627 36.35417 -1.661724 3.365627 36.24715 -1.503142 3.365627 36.36658 -1.546273 3.365627 36.56107 -1.788234 3.365627 36.5707 -1.82974 3.365627 36.35417 -0.4849514 3.365627 35.48016 -2.028915 3.365627 35.92235 0.6301709 3.365627 34.99849 1.895576 3.365627 35.54099 3.173716 3.365627 37.00243 3.512883 3.365627 36.61529 3.400943 3.365627 35.98545 -1.969141 3.365627 36.98292 -2.29046 3.365627 36.43412 1.095989 6.830627 78.77803 0.165989 6.830627 78.77803 0.165989 5.900627 78.77803 1.095989 5.900627 78.77803 1.095989 6.830627 4.078023 1.095989 5.900627 4.078023 0.165989 5.900627 4.078023 0.165989 6.830627 4.078023 1.944175 5.397621 80.25492 1.430989 5.403408 78.97809 1.430989 7.165627 78.97809 1.940334 7.166855 80.26564 1.430989 5.403408 76.37808 1.430989 7.165627 76.37808 -0.1690109 5.403408 78.97809 -0.686257 5.397731 80.22697 -0.6742779 7.165871 80.2725 -0.1690109 7.165627 78.97809 -0.1690109 5.403408 76.37808 -0.1690109 7.165627 76.37808 1.930989 6.003408 82.57806 1.930989 5.603408 82.57806 1.930989 5.603408 80.47805 1.095989 5.900627 76.37808 0.165989 5.900627 76.37808 0.165989 5.900627 78.77809 1.095989 5.900627 78.77809 1.095989 6.830627 76.37808 1.095989 6.830627 78.77809 0.165989 6.830627 76.37808 0.165989 6.830627 78.77809 1.630989 7.165199 80.27806 1.630989 6.003408 82.57806 1.630989 6.003408 80.27806 -0.669011 6.003408 82.57806 -0.369011 6.003408 82.57806 -0.369011 7.165199 80.27806 -0.369011 6.003408 80.27806 -0.669011 5.603408 80.47805 0.08709508 6.003408 81.37738 0.3474981 6.003408 80.97296 0.7523242 6.003408 80.90579 1.164701 6.003408 81.26175 0.9797355 6.003408 81.8485 0.3711962 6.003408 81.92305 -0.669011 5.603408 82.57806 1.17635 5.603408 81.30523 0.7228059 5.603408 80.88958 0.2647787 5.603408 81.03643 0.09511721 5.603408 81.4101 0.2822406 5.603408 81.8485 0.8907815 5.603408 81.92305 0.165989 6.228765 46.55381 0.165989 6.246496 46.29895 0.165989 6.502489 46.30236 0.165989 6.484758 46.55722 -0.269011 6.372701 46.60364 -0.269011 6.537026 46.46669 -0.269011 6.406075 46.2467 -0.269011 6.179951 46.43596 1.530989 6.228765 46.55381 1.530989 6.246496 46.29895 1.530989 6.502489 46.30236 1.530989 6.484758 46.55722 1.095989 6.372701 46.60364 1.095989 6.537026 46.46669 1.095989 6.406075 46.2467 1.095989 6.179951 46.43596 1.533624 5.20269 47.02809 1.755321 4.483965 47.02809 1.724111 4.534968 45.82809 1.533327 5.221473 45.82809 1.530989 7.130627 45.82809 1.530989 7.130627 47.02809 -0.2716454 5.202698 45.82809 -0.4933407 4.48397 45.82809 -0.4621306 4.534973 47.02809 -0.2713493 5.221481 47.02809 -0.269011 7.130627 47.02809 -0.269011 7.130627 45.82809 2.412693 3.864288 47.11423 2.330989 3.865627 45.82809 -1.069011 3.865627 45.82809 -1.096616 3.864737 47.14899 -2.051519 3.865627 45.91162 -2.273291 3.865627 46.57328 -1.972952 3.865627 46.95538 0.6301717 3.865627 47.85762 3.212313 3.865627 46.9666 3.523438 3.865627 46.61581 3.476593 3.865627 46.16894 3.192949 3.865627 45.86682 0.4520388 3.865627 47.41138 0.5990784 3.865627 47.14491 0.80381 3.865627 47.27424 0.7277383 3.865627 47.48108 2.846865 3.865627 46.58837 2.754871 3.865627 46.41167 2.87713 3.865627 46.25527 3.067128 3.865627 46.31515 3.083077 3.865627 46.53504 -1.753135 3.865627 46.58837 -1.845129 3.865627 46.41167 -1.72287 3.865627 46.25527 -1.532872 3.865627 46.31515 -1.516923 3.865627 46.53504 1.095989 5.900627 47.02809 0.165989 5.900627 47.02809 0.165989 6.830627 47.02809 1.095989 6.830627 47.02809 1.095989 5.900627 45.82809 1.095989 6.830627 45.82809 0.165989 6.830627 45.82809 0.165989 5.900627 45.82809 0.6474032 3.365627 47.5042 0.4707077 3.365627 47.41222 0.5240325 3.365627 47.176 0.7439156 3.365627 47.19195 0.8038101 3.365627 47.38194 2.925168 3.365627 46.60161 2.770708 3.365627 46.51221 2.794847 3.365627 46.31516 2.984848 3.365627 46.25527 3.113672 3.365627 46.48544 -1.795778 3.365627 46.57938 -1.805153 3.365627 46.31516 -1.615152 3.365627 46.25527 -1.486328 3.365627 46.48544 -0.6336099 3.365627 47.31512 0.6318038 3.365627 47.85762 2.028563 3.365627 47.27042 3.300021 3.365627 46.92484 3.559677 3.365627 46.34284 3.161286 3.365627 45.85456 -1.911738 3.365627 45.85368 -2.214616 3.365627 46.16894 -2.261461 3.365627 46.61581 -1.950336 3.365627 46.9666</float_array>
          <technique_common>
            <accessor source="#edf_torsional_400_top-mesh-positions-array" count="263" stride="3">
              <param name="X" type="float"/>
              <param name="Y" type="float"/>
              <param name="Z" type="float"/>
            </accessor>
          </technique_common>
        </source>
        <source id="edf_torsional_400_top-mesh-normals">
          <float_array id="edf_torsional_400_top-mesh-normals-array" count="1986">0.9238086 0 0.3828549 0.9312858 0.01550573 0.3639592 1 0 0 -0.9279515 0.004560053 0.3726731 -0.9301055 0 0.3672927 -1 0 0 0.9979851 0.005060493 -0.06324607 0.9999946 -0.003252148 -6.19424e-4 -0.001242339 -0.9999843 0.005481183 0 -0.9999942 0.00342679 0 -1 0 0 1 0 0 0 1 0.00831145 0.8929944 -0.4499912 0 0.8925892 -0.4508709 0 0.8931562 -0.4497469 -0.01051121 0.89254 -0.4508457 -8.07729e-7 0 1 0.006448626 -0.7722287 -0.6353121 0 -0.7355457 -0.6774752 1.72859e-4 1 3.60145e-4 0 0.9999999 6.45355e-4 0 0 -1 0 0.9917181 -0.1284343 6.4265e-5 0.9935254 -0.1136103 0 1 1.05677e-6 0 1 -7.47679e-7 0 1 5.32665e-7 -0.9983001 0.001738548 -0.05825895 -0.9999818 -0.005936205 -0.0011307 0 -1 -4.70261e-6 0 -1 -7.53522e-7 0 -1 -9.07516e-7 0 -1 3.95049e-7 -0.827457 -0.005374491 0.5615035 -0.939985 -0.05469512 0.3368035 -0.8205924 -0.05468946 0.5688914 -0.8517912 0.1556727 0.5002179 -0.8532374 0.1381964 0.5028795 -0.6910499 0.1556783 0.705843 0.08634746 -0.1782149 0.9801957 -0.1726934 -0.1977787 0.9649148 0.08805572 -0.1977732 0.9762849 0.1676276 0.1977726 0.9658091 0.1702899 0.1782145 0.9691445 0.4165491 0.1977781 0.8873391 0.9543191 -0.138198 0.2649081 0.8501894 -0.1556798 0.5029333 0.9522333 -0.1556742 0.2627116 0.9499872 0.1043086 0.2943536 0.9541922 0.07102668 0.2906416 0.9938533 0.1043142 0.03706938 0.6810308 -0.07102715 -0.7288019 0.8421654 -0.1043147 -0.5290332 0.6755332 -0.104309 -0.7299141 0.7618922 0.05468863 -0.645391 0.7565327 0.005373477 -0.6539338 0.5686138 0.05469423 -0.8207844 -0.01073092 -0.01353883 -0.9998508 -0.02501749 0.04587465 -0.9986339 -0.2691151 -0.01354467 -0.9630128 -0.2826112 -0.1029572 -0.9536932 -0.03779917 -0.04793232 -0.9981352 -0.2950833 -0.04792654 -0.9542688 -0.8453779 0.04792684 -0.5320143 -0.84805 0.1029576 -0.5198182 -0.9543405 0.04793262 -0.2948507 -0.9581304 -0.04587364 -0.2826339 -0.8605452 0.01354581 -0.5091943 -0.9630035 0.01353996 -0.269149 -0.1095753 0.6301138 0.7687328 -0.1503609 0.6313239 0.7608034 -0.1095823 0.8084959 0.5782094 0.175884 0.9600399 0.2176885 0.1371338 0.8777389 0.4590957 0.1371302 0.9671819 0.2139032 -0.112821 0.6521211 -0.749673 -0.1328424 0.6495479 -0.7486258 -0.1128206 0.4344084 -0.8936224 0.1801587 -0.2967776 -0.9377985 0.1691717 -0.04051727 -0.9847535 0.1691743 -0.2975316 -0.9396038 -0.04116791 -0.5072886 -0.8607925 -0.01816189 -0.509491 -0.8602844 -0.04116189 -0.7129104 -0.7000461 -0.009493708 -0.9291403 0.3696056 -0.05871665 -0.9240251 0.3777964 -0.00948894 -0.8018462 0.5974553 0.1589926 -0.6720826 0.7232056 0.1149798 -0.8386288 0.5324298 0.1149747 -0.6710402 0.7324519 -0.1095763 0.6301529 0.7687005 -0.150347 0.6313626 0.7607741 -0.1095818 0.8085253 0.5781683 0.175884 0.9600399 0.2176886 0.1371338 0.8777388 0.4590958 0.1371303 0.9671819 0.2139033 -0.1128209 0.6521213 -0.7496728 -0.1328424 0.6495481 -0.7486256 -0.1128212 0.4344516 -0.8936012 0.1801587 -0.2967776 -0.9377985 0.1691717 -0.04051727 -0.9847535 0.1691732 -0.2975773 -0.9395894 -0.04116791 -0.5072887 -0.8607923 -0.01816183 -0.5094912 -0.8602842 -0.04116189 -0.7129105 -0.700046 -0.009493708 -0.9291391 0.3696085 -0.05871665 -0.9240239 0.3777994 -0.00948894 -0.8018443 0.5974577 0.1589926 -0.6720826 0.7232057 0.114979 -0.8386545 0.5323895 0.1149748 -0.6710402 0.732452 0.9294346 0.3687826 -0.01228326 0.9298185 0.3668003 -0.02991753 0.9756773 0.2188678 -0.0122863 0.9808706 0.1933971 0.02214419 0.9395062 0.3425095 0.003941237 0.9815134 0.1913533 0.003939867 0.9999969 0.001224935 0.002179443 0.9999963 0.001366436 -0.002385616 0.9999966 0.001441121 -0.002179741 0.9999967 0.002566218 -2.06595e-4 0.999998 0.001496374 0.001401185 -0.9294359 0.3687792 0.01228326 -0.9298199 0.3667969 0.02991759 -0.975678 0.2188643 0.0122863 -0.9808714 0.1933929 -0.02214425 -0.9395076 0.3425055 -0.003941178 -0.9815142 0.191349 -0.003939867 -0.9999957 0.001366436 0.002651572 -0.9999977 0.002058386 7.5088e-4 -0.999997 0.002444267 2.08527e-4 -0.9999966 0.001224815 -0.002341508 -1 -1.43133e-7 0 -1 0 0 0.7252178 0.688441 0.01039874 0.7318068 0.6813042 0.01684081 -0.740797 0.671665 -0.009280323 -0.6882818 0.7241697 0.04296916 -0.001296103 0.9999988 -8.50905e-4 0 1 7.83553e-7 -9.26753e-4 0.9999991 -0.001049041 -8.50408e-4 0.9999991 -0.001128375 5.81572e-4 0.9999989 0.001449465 7.10401e-4 0.9999998 -2.18535e-4 -8.97503e-4 0.9999995 -3.51598e-4 -7.73741e-4 0.9999998 2.62139e-4 1.62695e-4 0.999151 0.04120081 0.001345455 0.9999986 -0.001044809 0 1 -1.57106e-6 0 1 -1.20162e-6 0.001770019 0.9999979 -0.001153826 7.52851e-4 0.9999982 -0.001746714 0 1 -5.17667e-7 6.9028e-4 0.9999998 -1.19464e-4 0 1 5.2766e-7 0 -5.46573e-6 -1 -1.81245e-5 -1.97103e-6 -1 1.831e-5 -1.99121e-6 -1 5.79593e-7 -5.57946e-6 -1 -0.003245234 0.1410694 -0.9899945 -0.005745828 0.1515937 -0.9884263 -1 -6.97078e-7 0 -1 2.78065e-7 0 1 0 0 1 0 0 1 1.67094e-7 0 1 -1.25825e-7 0 1 0 0 1 0 0 1 0 0 1 0 0 0.1979933 -0.1434431 0.9696508 0.1976532 -0.151554 0.9684858 -0.0623793 -0.1434367 0.9876917 -0.8511227 0.1451686 0.504496 -0.6904578 0.1388422 0.7099232 -0.8519218 0.138849 0.5049259 -0.9533454 -0.05274426 0.2972385 -0.9543533 -0.03674566 0.2964114 -0.9978047 -0.05273836 0.04005604 -0.4917767 0.03258675 -0.8701115 -0.4858805 -0.009298026 -0.8739758 -0.2497367 0.03259247 -0.9677652 -0.3236145 0.03512531 -0.9455369 -0.5521886 -0.005640089 -0.8337002 -0.3176443 -0.005637288 -0.9481932 0.8607065 -0.001340687 -0.5090999 0.7005931 0.01793503 -0.7133356 0.8613147 0.01794111 -0.5077551 0.8912835 -0.1092226 -0.4400957 0.8909743 -0.1122816 -0.439952 0.9751156 -0.1092168 -0.1929284 0.7097809 0.1333667 0.6916824 0.8661177 0.1295489 0.4827601 0.7101494 0.1295535 0.6920288 -0.4225302 -0.01551914 0.906216 -0.4244853 -0.04131424 0.9044917 -0.6426602 -0.01552236 0.7659943 -0.6983571 0.03936684 0.7146661 -0.4921489 0.0135225 0.870406 -0.7006344 0.01351934 0.7133924 -0.9981814 -0.01463711 -0.05847835 -0.9971113 -0.04424238 -0.06173795 -0.9490426 -0.01464015 -0.3148078 -0.9405621 0.02825284 -0.3384448 -0.9961829 -0.002675652 -0.08725017 -0.9396756 -0.002672791 -0.3420567 0.0890879 -0.002976417 -0.9960194 -0.1698567 0.01879602 -0.9852896 0.09093332 0.01880121 -0.9956796 -0.09093338 -0.01880127 -0.9956796 -0.08908796 0.002976417 -0.9960194 0.1698566 -0.01879602 -0.9852896 0.9396791 0.002672791 -0.3420468 0.9405656 -0.02825272 -0.3384349 0.9961839 0.002675652 -0.08723968 0.9971119 0.04424124 -0.06173074 0.9490448 0.01463913 -0.314801 0.9981819 0.01463603 -0.0584712 0.7006333 -0.01351928 0.7133935 0.698356 -0.03936696 0.7146672 0.4921894 -0.01352256 0.8703832 0.424483 0.04131495 0.9044929 0.6426582 0.01552289 0.7659958 0.422528 0.01551961 0.906217 -0.2712373 -0.07433569 0.9596377 -0.2721567 -0.09511041 0.9575411 -0.5109452 -0.07433825 0.856393 -0.6983571 0.03936684 0.7146661 -0.4921489 0.0135225 0.870406 -0.7006343 0.01351934 0.7133925 -0.9981815 -0.01463818 -0.05847734 -0.9971114 -0.04424345 -0.06173676 -0.9490429 -0.01464122 -0.3148068 -0.9405622 0.02825403 -0.3384443 -0.9961829 -0.00267446 -0.08724963 -0.9396758 -0.002671599 -0.3420562 0.08908784 -0.002976417 -0.9960194 -0.1698567 0.01879602 -0.9852896 0.09093332 0.01880127 -0.9956796 -0.04158097 -0.04213815 -0.9982462 -0.04033887 -0.02463942 -0.9988822 0.2183746 -0.04213261 -0.9749551 0.9979959 0.02210485 -0.05929332 0.9484765 0.03689575 -0.3146923 0.9976133 0.03690159 -0.05836248 0.991923 -0.1092225 0.06449246 0.9915837 -0.1122796 0.06446194 0.9409441 -0.1092169 0.3204623 0.4200738 0.1028751 0.9016401 0.6403822 0.09286648 0.7624215 0.420252 0.09286344 0.9026432 -0.4147009 0.001234352 -0.909957 -0.4121943 -0.01176393 -0.9110201 -0.3546705 0.001279294 -0.9349905 -0.3706215 -0.03078776 -0.9282736 -0.4257067 -0.04751145 -0.903613 -0.3660418 -0.04751068 -0.9293848 -0.241482 0.1342414 -0.9610753 -0.3038819 0.1356253 -0.9430068 -0.2414009 0.1356253 -0.9609013 -0.2287703 -0.007881999 -0.9734485 -0.2166709 0.01761388 -0.9760858 -0.1650038 -0.007981121 -0.9862607 0.306357 -0.07913714 -0.9486215 0.2513667 -0.0585758 -0.9661179 0.3137452 -0.05857443 -0.9476989 0.1767884 0.1541912 -0.9720962 0.207297 0.1863357 -0.9603682 0.2403131 0.1542657 -0.9583589 0.3552156 -0.02659875 -0.9344059 0.3558914 -0.03383982 -0.9339146 0.4151837 -0.02663731 -0.9093477 0.4220889 0.009221255 -0.9065076 0.3639086 -0.001286625 -0.9314337 0.4236882 -0.001286745 -0.9058073 0.6969045 0.01189881 0.7170653 0.6978178 0.03142333 0.7155858 0.8451967 -0.03478968 0.5333219 0.8235621 0.02558416 0.566649 0.6678921 0.1089541 0.7362399 0.8257348 0.04627913 0.562157 0.9611561 -0.05354213 -0.2707623 0.9896458 -0.133866 -0.05177891 0.9590219 -0.06224906 -0.2764096 0.9454291 0.08213007 -0.3153071 0.9442417 0.07396668 -0.3208376 0.8421568 0.1518563 -0.5174086 2.89799e-7 0 1 0 -0.05111867 0.9986926 -0.003780126 -0.08307832 0.996536 -0.06687521 0.0304346 0.9972971 0.04005521 0.01636594 0.9990634 -0.7951104 0.01930397 -0.6061575 -0.7952041 0.03609824 -0.6052664 -0.9158979 -0.0185005 -0.4009851 -0.9383214 -0.04771018 -0.3424573 -0.831842 0.002385616 -0.5550074 -0.9389807 -0.0313484 -0.3425384 -0.9422963 0.03470683 0.3329764 -0.941431 0.05300062 0.3330144 -0.8382855 -0.003492951 0.5452204 -0.7938173 -0.0528301 0.6058575 -0.9149515 0.004924297 0.403534 -0.7941471 -0.03441768 0.6067503 0 -1 1.74751e-6 0 -1 -6.64584e-6 0 -1 8.67388e-7 0 -1 5.14414e-7 0 -1 -2.02215e-6 0 -1 1.32759e-6 0 -1 -2.35709e-6 0 -1 1.54185e-6 0 -1 -2.71878e-5 0 -1 8.32019e-7 0 -1 3.46055e-6 0 -1 -2.21664e-6 0 -1 1.68107e-6 0 -1 -2.35364e-6 -1 0 0 -1 0 0 0 1 0 0.9278583 0.00427401 -0.3729085 0.9298821 0 -0.3678579 -0.923893 0 -0.382651 -0.9314308 0.01567316 -0.363581 0.9983544 0.001820147 0.05731618 0.9999825 -0.005825996 0.001109659 6.31818e-6 -0.9999898 -0.004535257 0 -0.9999897 -0.004544913 0 0.8933063 0.4494485 0.01332217 0.8925104 0.4508301 -0.006233572 0.8928988 0.4502145 0 0.8925896 0.45087 2.58473e-5 0 -1 -1.22443e-5 0 -1 0 -0.7351108 0.6779471 -0.006771981 -0.7733414 0.6339538 -3.78535e-4 0.9999997 -8.04274e-4 0 1 -1.88796e-4 0 0.9927326 0.1203415 -2.77419e-5 0.9913231 0.1314479 0 1 2.02599e-6 0 1 -4.04098e-7 -0.9979134 0.005103588 0.06436479 -0.9999944 -0.003288447 6.26375e-4 0 -1 -8.91304e-7 0 -1 2.42739e-6 0 -1 -4.30711e-7 0 -1 1.38449e-6 0 -1 2.68695e-7 0 -1 -2.87351e-7 -0.7648468 0.05982798 0.6414282 -0.7514159 0.1202235 0.6487839 -0.5724698 0.05983412 0.8177397 -0.5626593 -0.04746848 0.825325 -0.7464513 0.0173856 0.6652129 -0.54886 0.01737922 0.8357337 0.2825397 -0.004622876 0.9592445 0.03329926 -0.05154865 0.9981153 0.290778 -0.05154335 0.9554012 0.1772586 0.08686637 0.9803232 0.1812889 0.05719059 0.9817656 0.4257508 0.08687269 0.9006605 0.9013819 -0.05719894 0.4292308 0.7597644 -0.08688145 0.6443678 0.9010524 -0.08687466 0.4249206 0.8475546 0.05156046 0.5281978 0.8534004 0.00462538 0.5212355 0.9554679 0.05156672 0.2905548 0.9629864 -0.01354551 -0.2692096 0.9581151 0.04584729 -0.28269 0.8605132 -0.01355117 -0.509248 0.8135312 -0.159745 -0.5591498 0.9342819 -0.109554 -0.3392866 0.8137833 -0.1095579 -0.5707486 0.2486882 0.1546913 -0.9561511 0.2371705 0.2056366 -0.9494544 -0.01032096 0.1546936 -0.9879086 -0.2371708 -0.205637 -0.9494543 0.01032072 -0.1546939 -0.9879086 -0.2486884 -0.1546916 -0.956151 -0.8384331 0.1216801 -0.5312475 -0.8375132 0.1774612 -0.516797 -0.9479271 0.1216758 -0.2943288 -0.9751293 -0.1202014 -0.1862117 -0.9046176 -0.05983209 -0.4220041 -0.9830802 -0.05982685 -0.1731303 -0.1085327 0.1436146 -0.9836643 -0.1135709 0.1435082 -0.9831109 -0.1085276 -0.1173593 -0.9871417 0.0910272 -0.7320559 -0.6751357 0.08195376 -0.5322769 -0.8425942 0.08195561 -0.7327821 -0.6755099 -0.1039432 -0.9745501 -0.1986147 -0.1225752 -0.9726846 -0.1971294 -0.1039429 -0.9926643 0.06175291 0.1407795 -0.7773299 0.6131389 0.1229822 -0.9121072 0.3910701 0.1229829 -0.7786086 0.6153405 -0.1229737 -0.1436063 0.9819647 -0.1407701 -0.1423386 0.9797568 -0.1229731 0.1173672 0.9854454 0.1550832 0.7280309 0.6677725 0.1406795 0.5298368 0.8363506 0.1406843 0.72998 0.6688327 -0.1285448 0.9716624 0.1983649 -0.1343206 0.9709179 0.1981828 -0.1285391 0.9897673 -0.06195539 0.1343175 0.5463626 -0.8267084 0.1285348 0.7436776 -0.656066 0.1285395 0.5467602 -0.8273639 -0.1085323 0.1436145 -0.9836644 -0.1135704 0.1435081 -0.983111 -0.1085272 -0.1173595 -0.9871417 0.09103 -0.7320882 -0.6751004 0.0819543 -0.5323174 -0.8425685 0.08195501 -0.7328148 -0.6754746 -0.1039438 -0.9745597 -0.1985678 -0.1225691 -0.9726948 -0.197083 -0.1039429 -0.9926644 0.06175291 0.1407792 -0.7773277 0.613142 0.122982 -0.9121058 0.3910735 0.1229826 -0.7786064 0.6153433 -0.1229742 -0.1436062 0.9819648 -0.1407707 -0.1423386 0.9797568 -0.1229736 0.1173673 0.9854454 0.1550832 0.7280308 0.6677727 0.1406795 0.5298366 0.8363507 0.1406843 0.7299798 0.6688329 -0.1285439 0.9716528 0.1984119 -0.1343218 0.9709082 0.1982297 -0.128539 0.9897673 -0.06195539 0.1343179 0.5463647 -0.8267069 0.1285352 0.7436792 -0.656064 0.12854 0.5467624 -0.8273624 0.9815135 0.1913529 0.003939867 0.9808708 0.1933967 0.02214413 0.9395063 0.3425092 0.003941178 0.9298197 0.3667974 -0.02991729 0.9756779 0.2188648 -0.01228618 0.9294357 0.3687797 -0.01228308 0.9999957 0.001366436 -0.002598464 0.999997 0.002471566 -2.0808e-4 0.9999976 0.002210438 1.5379e-4 0.999987 -6.82394e-5 0.005114436 0.999998 0.001224756 0.0016222 1 6.89252e-7 0 -0.9815145 0.1913475 -0.003939807 -0.9808719 0.1933913 -0.02214413 -0.9395081 0.342504 -0.003941178 -0.9298191 0.3667989 0.02991783 -0.9756776 0.2188663 0.01228666 -0.9294351 0.3687812 0.01228356 -0.9999969 0.001224756 -0.002187073 -1 0 0 -0.9999963 0.001366496 0.002365171 -0.9999971 0.001546502 0.001847624 -0.9999967 0.002567172 2.06603e-4 -0.9999977 0.001426517 -0.001639842 0.7407957 0.6716663 0.009280323 0.6882794 0.7241721 -0.04296964 -0.7270925 0.6864628 -0.01026535 -0.7318321 0.6813235 -0.01483523 -0.001571178 0.9999982 0.001141011 -7.3186e-4 0.9962254 -0.08680123 0.001100301 0.9999992 6.9717e-4 0 1 -9.90758e-7 0 1 1.27611e-6 0 1 -3.18017e-6 8.19673e-4 0.9999993 8.89668e-4 -6.16722e-4 0.9999998 2.47179e-4 8.42436e-4 0.9999997 2.17746e-4 8.64155e-4 0.9999997 3.19579e-4 7.19293e-4 0.9999991 -0.001140415 -0.001421451 0.9999981 0.001374065 0 1 2.4954e-6 0 1 -3.13998e-7 0 1 1.37393e-6 -5.2586e-4 0.9999999 -2.89537e-4 -0.00189197 0.9999977 9.84884e-4 0 1 -1.42541e-6 1.41442e-5 0 1 -1.8859e-5 0 1 -8.69396e-7 0 1 0.003248095 0.1410712 0.9899942 0.009783625 0.1685379 0.9856467 -1 -8.04272e-7 0 -1 7.11298e-7 0 -1 -3.70287e-7 0 1 0 0 1 0 0 1 -1.51371e-7 0 1 0 0 1 0 0 1 0 0 1 1.51371e-7 0 1 -1.54422e-7 0 0.1156587 -0.08320015 -0.9897984 0.1177102 -0.1093899 -0.9870047 0.3686928 -0.08320325 -0.9258202 0.5696755 0.04805833 -0.8204635 0.3420435 0.01562267 -0.9395543 0.5735443 0.01562666 -0.8190256 0.9390372 0.01292318 0.3435728 0.9951946 0.03645062 0.09088039 0.9377213 0.03645527 0.3454706 0.9266652 -0.09999978 0.3623422 0.9273759 -0.0897991 0.3631944 0.8005878 -0.09999436 0.5908133 -0.201542 0.06861191 0.9770739 0.05874693 0.072052 0.9956694 -0.2015684 0.07205849 0.9768202 -0.4176704 -0.07432252 0.9055538 -0.4176408 -0.07511013 0.9055024 -0.6383301 -0.07431846 0.7661669 -0.9825907 0.06786412 0.1729453 -0.9043799 0.06407606 0.4218903 -0.9828414 0.06407499 0.1729663 -0.9729986 -0.07350921 -0.2187922 -0.9723394 -0.08168363 -0.2188239 -0.8829118 -0.07351005 -0.4637491 -0.5065038 0.0717839 -0.8592445 -0.7122159 0.06185972 -0.6992296 -0.5065878 0.06185615 -0.8599668 -0.3450788 -0.05969274 -0.9366736 -0.3450627 -0.05523705 -0.9369528 -0.09047967 -0.05968499 -0.9941083 0.6088219 0.05444091 -0.7914367 0.3829153 0.05497211 -0.9221464 0.6088081 0.05497193 -0.7914107 0.8172997 -0.06407445 -0.5726392 0.8171076 -0.06786221 -0.5724771 0.9378268 -0.06407481 -0.3411384 0.9664674 0.0595082 0.2497991 0.9984262 0.0553267 -0.009166359 0.9666913 0.05532604 0.2498939 0.8602558 -0.05532205 0.5068525 0.8600308 -0.05950099 0.5067611 0.6995466 -0.05532246 0.7124423 0.1729551 0.06786304 0.9825891 0.4218996 0.0640785 0.9043754 0.1729761 0.06407809 0.9828394 -0.1729448 -0.06407558 0.9828451 -0.1729227 -0.06785976 0.982595 -0.4218705 -0.06407624 0.9043891 -0.9258359 0.08310657 0.3686751 -0.7983167 0.08406847 0.5963414 -0.9257656 0.08407402 0.3686322 -0.9771178 -0.06747245 0.2017131 -0.9778117 -0.057666 0.2013923 -0.9959991 -0.06746703 -0.05859988 -0.4088442 0.04318362 -0.911582 -0.6305511 0.05183953 -0.7744147 -0.40836 0.05184501 -0.9113475 -0.3453585 0.03597843 -0.9377809 -0.3411458 0.06822288 -0.9375314 -0.09076136 0.03597998 -0.9952226 0.8171503 -0.0666157 -0.5725625 0.8167039 -0.08870625 -0.5701981 0.9376773 -0.06662112 -0.3410616 0.9901797 0.1032503 0.09425276 0.982491 0.08568459 -0.1654382 0.9917451 0.08568334 0.09539443 0.8602561 -0.05532103 0.5068521 0.8600311 -0.05949997 0.5067608 0.699547 -0.05532145 0.712442 0.1729551 0.06786298 0.9825891 0.1729762 0.06407809 0.9828394 -0.1729446 -0.06407541 0.9828452 -0.1729225 -0.06785959 0.982595 -0.4218704 -0.06407606 0.9043892 -0.9258358 0.08310699 0.3686749 -0.7983167 0.08406889 0.5963414 -0.9257655 0.08407449 0.3686322 -0.977118 -0.06747287 0.2017126 -0.9778119 -0.05766642 0.2013918 -0.995999 -0.06746745 -0.05860036 -0.1635735 0.06032043 -0.9846853 -0.4120173 0.07627272 -0.9079781 -0.1622747 0.0762754 -0.9837931 -0.1838461 0.01210653 0.9828805 -0.184347 0.006470918 0.98284 -0.2473089 0.01216977 0.9688603 -0.2861101 0.08652889 0.9542819 -0.2233787 0.08406043 0.9711003 -0.2862547 0.08405911 0.9544593 -0.3489924 -0.04414916 0.9360851 -0.3496294 -0.05141538 0.9354763 -0.4091632 -0.04418158 0.9113911 -0.4220869 0.009222567 0.9065085 -0.3639512 -0.001285433 0.9314171 -0.4236863 -0.001285552 0.9058082 0.4147002 0.001233398 0.9099574 0.4121935 -0.01176494 0.9110204 0.3547146 0.001278281 0.9349738 0.3611741 0.005932867 0.9324795 0.4173233 -0.009805977 0.9087052 0.357366 -0.009804964 0.9339131 0.2106347 0.1659871 0.9633699 0.208708 0.1540173 0.9657742 0.146722 0.1658809 0.9751699 0.2318375 -0.02588415 0.9724102 0.293342 -0.03454124 0.9553834 0.2306243 -0.03454154 0.9724296 0.6605005 0.06069183 0.7483686 0.6594228 0.07068258 0.7484421 0.8211113 0.04750239 0.5687882 0.9481645 -0.1216967 0.293554 0.8505602 -0.1268402 0.5103518 0.9482885 -0.1150731 0.2958164 0.9960326 0.08814173 0.01225477 0.9962355 0.08592951 0.01145249 0.9667803 0.1224076 -0.2243933 0.8026524 -0.08712983 -0.590049 0.7996773 -0.06659054 -0.5967262 0.636736 -0.1589766 -0.7545155 0.6912336 -0.04685789 -0.7211106 0.8418644 0.01108658 -0.5395753 0.6912947 -0.02847611 -0.7220116 -4.71474e-6 0 -1 -6.76192e-7 0 -1 -2.48998e-6 0 -1 0 -0.05111861 -0.9986926 1.74213e-4 -0.05258029 -0.9986167 0.04487293 0.02164852 -0.9987581 -0.08436882 0.09140515 -0.9922333 -0.7928132 -0.07220578 -0.6051724 -0.6255375 -0.1208486 -0.770778 -0.7937322 -0.07704901 -0.6033677 -0.9004595 0.1012099 -0.4230003 -0.898676 0.108485 -0.4249852 -0.972987 0.1140001 -0.2007493 -0.9991297 -0.03749585 0.01827681 -0.9751552 -0.001801848 -0.221516 -0.999511 -0.025451 0.01817071 -0.8555849 0.02704989 0.5169554 -0.8552215 0.04047042 0.5166803 -0.7079532 1.72548e-4 0.7062594 -0.6612349 -0.02872473 0.7496289 -0.8209918 0.01474827 0.5707497 -0.6612024 -0.01498806 0.7500578 0 -1 1.36482e-6 0 -1 -1.56999e-7 0 -1 -9.1167e-6 0 -1 1.10822e-6 0 -1 -8.83763e-7 0 -1 -2.27195e-6 0 -1 -7.10044e-7 0 -1 5.43949e-7 0 -1 1.57844e-6 0 -1 -4.7813e-6 0 -1 -4.85e-7 0 -1 1.81809e-6 0 -1 5.24609e-6 0 -1 -4.61936e-7 0 -1 4.41092e-7 0 -1 -1.8661e-6 0 -1 3.60417e-6 0 -1 -2.98805e-6 0 -1 0</float_array>
          <technique_common>
            <accessor source="#edf_torsional_400_top-mesh-normals-array" count="662" stride="3">
              <param name="X" type="float"/>
              <param name="Y" type="float"/>
              <param name="Z" type="float"/>
            </accessor>
          </technique_common>
        </source>
        <source id="edf_torsional_400_top-mesh-map-0">
          <float_array id="edf_torsional_400_top-mesh-map-0-array" count="3372">0 1.762219 -1.244173 1.762219 0 0 0 0 -1.244173 1.762219 -1.244173 0 0 1.762219 -2.6 1.762219 0 0 0 0 -2.6 1.762219 -2.6 0 0 1.762219 -1.244173 1.762219 0 0 0 0 -1.244173 1.762219 -1.244173 0 0 1.762219 -2.6 1.762219 0 0 0 0 -2.6 1.762219 -2.6 0 -0.627366 -0.95 -0.375 -0.75 -0.5821946 0.812166 1.725 -0.75 1.725 -0.35 -0.375 -0.75 -0.375 -0.75 1.725 -0.35 -0.5821946 0.812166 1.997603 2.6 0.75 2.1 2.028071 0 2.028071 0 0.75 2.1 0.75 0.5 0.75 2.1 -1.85 2.1 0.75 0.5 0.75 0.5 -1.85 2.1 -1.85 0.5 -0.93 0 0 0 -0.93 2.4 -0.93 2.4 0 0 0 2.4 -0.93 0 0 0 -0.93 2.4 -0.93 2.4 0 0 0 2.4 -0.93 0 0 0 -0.93 2.4 -0.93 2.4 0 0 0 2.4 -0.93 0 0 0 -0.93 2.4 -0.93 2.4 0 0 0 2.4 -0.465 -0.465 0.465 -0.465 -0.465 0.465 -0.465 0.465 0.465 -0.465 0.465 0.465 0 0 2.576773 0 0 0.3 0 0.3 2.576773 0 2.576773 0.3 1.15 -0.580896 1.15 0.580896 -1.15 -0.580896 0 0 2.576773 0 0 0.3 0 0.3 2.576773 0 2.576773 0.3 -1.15 -0.580896 1.15 -0.580896 -1.15 0.580896 0.8 0.562219 0.465 -0.702781 0.8 -1.2 0.8 -1.2 0.465 -0.702781 -0.465 -0.702781 0.8 -1.2 -0.465 -0.702781 -0.8 -1.2 -0.8 -1.2 -0.465 -0.702781 -0.8 0.562219 -0.8 0.562219 -0.465 -0.702781 -0.465 0.227219 -0.8 0.562219 -0.465 0.227219 0.465 0.227219 0.465 -0.702781 0.8 0.562219 0.465 0.227219 0.465 0.227219 0.8 0.562219 -0.8 0.562219 -1.95 -0.141421 0.65 -0.141421 -1.95 0.141421 -1.95 0.141421 0.65 -0.141421 0.65 0.141421 1.299122 2.1 0.00715667 2.6 0.009597659 0 1.299122 2.1 0.009597659 0 1.299122 0.5 1.299122 0.5 3.899122 0.5 1.299122 2.1 1.299122 2.1 3.899122 0.5 3.899122 2.1 0 2.3 1.161792 0.3 1.161792 2.3 1.161792 2.3 1.161792 0.3 1.162136 0 1.161792 2.3 1.162136 0 1.162163 2.6 0 2.3 0 0.3 1.161792 0.3 0.4 -0.07499998 -0.7330265 0.4113212 -1.9 -0.07499998 -1.9 -0.07499998 -0.7330265 0.4113212 -1.136686 0.6033489 0.4 1.925 -0.3373575 1.189242 0.4 -0.07499998 0.4 -0.07499998 -0.3373575 1.189242 -0.3392264 0.6347406 -1.9 1.925 -0.8352184 1.420705 0.4 1.925 0.4 1.925 -0.8352184 1.420705 -0.3373575 1.189242 -1.9 -0.07499998 -1.221901 1.099054 -1.9 1.925 0.4 -0.07499998 -0.3392264 0.6347406 -0.7330265 0.4113212 -1.136686 0.6033489 -1.221901 1.099054 -1.9 -0.07499998 -1.9 1.925 -1.221901 1.099054 -0.8352184 1.420705 -0.116184 -0.55 0.1057141 -0.75 0.09346443 1.012141 0.09346443 1.012141 -2.216184 -0.15 -0.116184 -0.55 -0.116184 -0.55 -2.216184 -0.15 -2.216184 -0.55 1.932369 -1.3 2.390587 -0.1493468 1.932369 1.3 1.932369 1.3 2.390587 -0.1493468 2.471595 0.2902588 4.032369 -1.3 2.708315 -0.4719014 1.932369 -1.3 4.032369 1.3 3.349343 0.1484375 4.032369 -1.3 4.032369 -1.3 3.349343 0.1484375 3.20402 -0.3866863 1.932369 1.3 2.928354 0.5008702 4.032369 1.3 2.928354 0.5008702 3.349343 0.1484375 4.032369 1.3 3.20402 -0.3866863 2.708315 -0.4719014 4.032369 -1.3 1.932369 -1.3 2.708315 -0.4719014 2.390587 -0.1493468 1.932369 1.3 2.471595 0.2902588 2.928354 0.5008702 0.4 1.558066 0 1.59726 0 1.147877 0.4 1.558066 0 1.147877 0.4 0.9856618 0.4 0.9856618 0 1.147877 0 0.5262281 0.4 0.9856618 0 0.5262281 0.4 0.3640125 0.4 0.3640125 0 0.5262281 0 -0.0891267 0.4 0.3640125 0 -0.0891267 0.4 -0.1857652 0.4 -0.1857652 0 -0.0891267 0 -0.6389029 0.4 -0.1857652 0 -0.6389029 0.4 -0.6700525 0.4 -0.6700525 0 -0.6389029 0.4 -1.147876 0.4 -1.147876 0 -0.6389029 0 -1.188681 0.4 -1.147876 0 -1.188681 0.4 -1.568091 0.4 -1.568091 0 -1.188681 0 -1.593136 -1.3 0.4 -1.3 0 -1 0.4 -1 0.4 -1.3 0 1.3 0 -1 0.4 1.3 0 1 0.4 1 0.4 1.3 0 1.3 0.4 0.93 -0.4709492 1.365 -0.4605298 0.93 -0.2244777 0.93 -0.2244777 1.365 -0.4605298 1.365 -0.1438243 0.93 -0.2244777 1.365 -0.1438243 0.93 0.01518267 0.93 0.01518267 1.365 -0.1438243 1.365 0.201752 0.93 0.01518267 1.365 0.201752 0.93 0.209972 0.93 0.209972 1.365 0.201752 0.93 0.4531524 0.93 0.4531524 1.365 0.201752 1.365 0.4599804 -0.435 -0.4709492 0 -0.4605298 -0.435 -0.2244777 -0.435 -0.2244777 0 -0.4605298 0 -0.1438243 -0.435 -0.2244777 0 -0.1438243 -0.435 0.01518267 -0.435 0.01518267 0 -0.1438243 0 0.201752 -0.435 0.01518267 0 0.201752 -0.435 0.209972 -0.435 0.209972 0 0.201752 -0.435 0.4531524 -0.435 0.4531524 0 0.201752 0 0.4599804 0.6999999 0.2514021 -0.5 0.1920064 0.7 -0.5006254 0.7 -0.5006254 -0.5 0.1920064 -0.5 -0.5193926 2.52103 -0.135828 1.504163 -0.6 3.265 -0.6 2.52103 -0.135828 3.265 -0.6 2.647439 0.04537785 2.647439 0.04537785 3.265 -0.6 3.265 0.6 2.647439 0.04537785 3.265 0.6 2.514449 0.1574161 2.514449 0.1574161 3.265 0.6 1.504163 0.6 2.514449 0.1574161 1.504163 0.6 2.359807 0.02973622 2.359807 0.02973622 1.504163 0.6 1.504163 -0.6 2.359807 0.02973622 1.504163 -0.6 2.52103 -0.135828 0.5 0.2513964 -0.7 0.1920003 0.5 -0.5006331 0.5 -0.5006331 -0.7 0.1920003 -0.6999999 -0.5194012 0.789054 -0.1347743 0 -0.6 1.760837 -0.6 0.789054 -0.1347743 1.760837 -0.6 0.869691 0.08821833 0.869691 0.08821833 1.760837 -0.6 1.760837 0.6 0.869691 0.08821833 1.760837 0.6 0 0.6 0.869691 0.08821833 0 0.6 0.6362557 0.04655444 0.6362557 0.04655444 0 0.6 0 -0.6 0.6362557 0.04655444 0 -0.6 0.789054 -0.1347743 0.4 -0.138478 -0.8 -0.138478 0.4 -0.565685 0.4 -0.565685 -0.8 -0.138478 -0.8 -0.565685 0.8 -0.138478 -0.4 -0.138478 0.8 -0.565685 0.8 -0.565685 -0.4 -0.138478 -0.4 -0.565685 1 1.7 0.3436368 2.147194 -0.2145641 1.67622 0.9366707 2.529962 0.5172323 2.193083 1 1.7 0.9366707 2.529962 0.5179161 2.398689 0.5172323 2.193083 0.5179161 2.398689 0.9366707 2.529962 0.479047 2.85811 0.5179161 2.398689 0.479047 2.85811 0.3317997 2.447902 0.3317997 2.447902 0.479047 2.85811 0.2418419 2.29249 0.2418419 2.29249 0.479047 2.85811 -0.07518595 2.63816 0.2418419 2.29249 -0.07518595 2.63816 -0.2145641 1.67622 0.2418419 2.29249 -0.2145641 1.67622 0.3436368 2.147194 -0.2145641 1.67622 -0.4270639 0.1409083 -0.355782 -0.05220818 -0.9764245 0.003468275 -0.6164416 0.1081793 -0.2145641 1.67622 -0.5806645 -0.1157097 -0.9764245 0.003468275 -0.1876882 -1.717065 -0.5806645 -0.1157097 -0.1876882 -1.717065 -0.355782 -0.05220818 -0.355782 -0.05220818 -0.1876882 -1.717065 -0.2145641 1.67622 -0.1876882 -1.717065 -0.08553332 -2.624516 0.2707517 -2.358002 0.2707517 -2.358002 -0.08553332 -2.624516 0.3639881 -2.87669 0.2707517 -2.358002 0.3639881 -2.87669 0.4986904 -2.417912 0.4986904 -2.417912 0.3639881 -2.87669 0.882798 -2.602349 0.4986904 -2.417912 0.882798 -2.602349 0.5179161 -2.201311 0.5179161 -2.201311 0.882798 -2.602349 1 -1.7 0.5179161 -2.201311 1 -1.7 0.3317996 -2.152098 0.3317996 -2.152098 1 -1.7 -0.1876882 -1.717065 0.3317996 -2.152098 -0.1876882 -1.717065 0.2707517 -2.358002 -0.5806645 -0.1157097 -0.6164416 0.1081793 -0.9764245 0.003468275 -0.2145641 1.67622 -0.6164416 0.1081793 -0.4270639 0.1409083 1 1.7 0.5172323 2.193083 0.3436368 2.147194 -0.465 0.4025 0.9130858 -0.2946066 0.465 0.4025 0.465 0.4025 0.9130858 -0.2946066 0.9 1.6325 0.465 0.4025 0.9 1.6325 0.465 1.3325 0.465 1.3325 0.9 1.6325 -0.9 1.6325 0.465 1.3325 -0.9 1.6325 -0.465 1.3325 -0.465 1.3325 -0.9 1.6325 -0.465 0.4025 -0.465 0.4025 -0.9 1.6325 -0.9116154 -0.2759242 -0.465 0.4025 -0.9116154 -0.2759242 0.9130858 -0.2946066 0.9130858 -0.2946066 -0.9116154 -0.2759242 1.160167 -0.9925264 1.160167 -0.9925264 -0.9116154 -0.2759242 -1.130912 -0.9415867 1.160167 -0.9925264 -1.130912 -0.9415867 1.7 -1.6325 1.7 -1.6325 -1.130912 -0.9415867 -1.7 -1.6325 0.489054 -0.1347743 0 -0.6 0.93 -0.6 0.489054 -0.1347743 0.93 -0.6 0.569691 0.08821833 0.569691 0.08821833 0.93 -0.6 0.93 0.6 0.569691 0.08821833 0.93 0.6 0 0.6 0.569691 0.08821833 0 0.6 0.3362557 0.04655444 0.3362557 0.04655444 0 0.6 0 -0.6 0.3362557 0.04655444 0 -0.6 0.489054 -0.1347743 0.93 0.6 0 0.6 0.93 -0.6 0.93 -0.6 0 0.6 0 -0.6 0.4860299 -0.135828 0 -0.6 0.93 -0.6 0.4860299 -0.135828 0.93 -0.6 0.6124395 0.04537785 0.6124395 0.04537785 0.93 -0.6 0.93 0.6 0.6124395 0.04537785 0.93 0.6 0.4794492 0.1574161 0.4794492 0.1574161 0.93 0.6 0 0.6 0.4794492 0.1574161 0 0.6 0.3248069 0.02973622 0.3248069 0.02973622 0 0.6 0 -0.6 0.3248069 0.02973622 0 -0.6 0.4860299 -0.135828 0.93 0.6 0 0.6 0.93 -0.6 0.93 -0.6 0 0.6 0 -0.6 1.8 0.6 0 0.6 1.8 -0.6 1.8 -0.6 0 0.6 0 -0.6 0.5 0.534071 0 0.4607036 0.5 0.4067465 0.5 0.4067465 0 0.4607036 0 0.2137733 0.5 0.4067465 0 0.2137733 0.5 0.1856471 0.5 0.1856471 0 0.2137733 0.5 -0.05920571 0.5 -0.05920571 0 0.2137733 0 -0.05069208 0.5 -0.05920571 0 -0.05069208 0 -0.2513864 0.5 -0.05920571 0 -0.2513864 0.5 -0.3707131 0.5 -0.3707131 0 -0.2513864 0 -0.4823187 0.5 0.5104729 0 0.4835228 0.5 0.3404031 0.5 0.3404031 0 0.4835228 0 0.3271902 0.5 0.3404031 0 0.3271902 0.5 0.1183289 0.5 0.1183289 0 0.3271902 0 0.1270376 0.5 0.1183289 0 0.1270376 0 -0.1167263 0.5 0.1183289 0 -0.1167263 0.5 -0.1258897 0.5 -0.1258897 0 -0.1167263 0.5 -0.3271906 0.5 -0.3271906 0 -0.1167263 0 -0.3404034 0.5 -0.3271906 0 -0.3404034 0.5 -0.4835245 0.5 -0.4835245 0 -0.3404034 0 -0.5104733 0.5 0.510473 0 0.483523 0.5 0.3404033 0.5 0.3404033 0 0.483523 0 0.3271902 0.5 0.3404033 0 0.3271902 0.5 0.1183289 0.5 0.1183289 0 0.3271902 0 0.1270375 0.5 0.1183289 0 0.1270375 0 -0.1167263 0.5 0.1183289 0 -0.1167263 0.5 -0.1487025 0.5 -0.1487025 0 -0.1167263 0 -0.3404033 0.5 -0.1487025 0 -0.3404033 0.5 -0.4352982 0.5 -0.4352982 0 -0.3404033 0 -0.5104731 0.5 2.238452 0 2.238452 0.5 1.189172 0.5 1.189172 0 2.238452 0 1.349565 0.5 1.189172 0 1.349565 0 5.88725e-4 0.5 1.189172 0 5.88725e-4 0.5 0 0.5 2.237863 0 2.238452 0 1.048873 0.5 2.237863 0 1.048873 0.5 0.8888586 0.5 0.8888586 0 1.048873 0.5 0 0.5 0 0 1.048873 0 0 -0.5 0.2428318 0 0.2399919 -0.5 0.8584467 -0.5 0.8584467 0 0.2399919 0 0.7552588 -0.5 0.8584467 0 0.7552588 0 1.400734 -0.5 0.8584467 0 1.400734 -0.5 1.51338 1.835 2.535 3.213087 1.837886 2.765 2.535 2.765 2.535 3.213087 1.837886 3.2 3.765 2.765 2.535 3.2 3.765 2.765 3.465 2.765 3.465 3.2 3.765 1.4 3.765 2.765 3.465 1.4 3.765 1.835 3.465 1.835 3.465 1.4 3.765 1.835 2.535 1.835 2.535 1.4 3.765 1.388385 1.856584 1.835 2.535 1.388385 1.856584 3.213087 1.837886 3.213087 1.837886 1.388385 1.856584 3.46017 1.139969 3.46017 1.139969 1.388385 1.856584 1.16909 1.190919 3.46017 1.139969 1.16909 1.190919 4 0.5 4 0.5 1.16909 1.190919 0.6 0.5 4 0.5 0.6 0.5 4.6 0 4.6 0 0.6 0.5 0 -0.298797 0 -0.298797 0.6 0.5 0 0.5 4.6 0 4.6 0.5 4 0.5 -0.5 -1.531419 0 -1.513381 -0.5 -0.9796592 -0.5 -0.9796592 0 -1.513381 0 -0.9361528 -0.5 -0.9796592 0 -0.9361528 -0.5 -0.3354762 -0.5 -0.3354762 0 -0.9361528 0 -0.298797 0.07518494 -2.638158 -0.241842 -2.29249 -0.4063194 -2.877779 -0.4063194 -2.877779 -0.241842 -2.29249 -0.3317994 -2.447902 -0.4063194 -2.877779 -0.3317994 -2.447902 -0.5190532 -2.397686 -0.4063194 -2.877779 -0.5190532 -2.397686 -0.9014125 -2.572296 -0.5190532 -2.397686 -0.5165587 -2.192185 -0.9014125 -2.572296 -0.9014125 -2.572296 -0.5165587 -2.192185 -0.5190532 2.202314 -0.5190532 2.202314 -0.5165587 -2.192185 -0.3317993 2.152098 -0.3317993 2.152098 -0.5165587 -2.192185 -0.3436375 -2.147195 -0.3317993 2.152098 -0.3436375 -2.147195 0.3480911 -0.0467447 0.3480911 -0.0467447 -0.3436375 -2.147195 -0.241842 -2.29249 0.3480911 -0.0467447 -0.241842 -2.29249 0.07518494 -2.638158 -0.241842 2.30751 -0.01358956 2.702276 -0.3436375 2.452805 -0.3436375 2.452805 -0.01358956 2.702276 -0.5806303 2.860494 -0.3436375 2.452805 -0.5806303 2.860494 -0.5165587 2.407815 -0.5165587 2.407815 -0.5806303 2.860494 -0.5190532 2.202314 -0.5190532 2.202314 -0.5806303 2.860494 -0.9339956 2.52576 -0.241842 2.30751 0.5100589 1.27219 -0.01358956 2.702276 0.5100589 1.27219 -0.241842 2.30751 0.3480911 -0.0467447 0.3480911 -0.0467447 -0.241842 2.30751 -0.3317993 2.152098 -0.9014125 -2.572296 -0.5190532 2.202314 -0.9339956 2.52576 0.6405399 -0.01200115 0.9764256 -0.003468751 0.5100589 1.27219 0.6405399 -0.01200115 0.5100589 1.27219 0.454307 0.1404067 0.454307 0.1404067 0.5100589 1.27219 0.3480911 -0.0467447 0.9764256 -0.003468751 0.6405399 -0.01200115 0.5558843 -1.11893 0.6405399 -0.01200115 0.4851073 -0.1621861 0.5558843 -1.11893 0.4851073 -0.1621861 0.3480911 -0.0467447 0.5558843 -1.11893 0.5558843 -1.11893 0.3480911 -0.0467447 0.07518494 -2.638158 0.465 0.465 -0.465 0.465 0.465 -0.465 0.465 -0.465 -0.465 0.465 -0.465 -0.465 0 0 0.93 0 0 74.7 0 74.7 0.93 0 0.93 74.7 0 0 0.93 0 0 74.7 0 74.7 0.93 0 0.93 74.7 0 0 0.93 0 0 74.7 0 74.7 0.93 0 0.93 74.7 0 0 0.93 0 0 74.7 0 74.7 0.93 0 0.93 74.7 0.465 0.465 -0.465 0.465 0.465 -0.465 0.465 -0.465 -0.465 0.465 -0.465 -0.465 1.244173 1.762219 0 1.762219 1.244173 0 1.244173 0 0 1.762219 0 0 2.6 1.762219 0 1.762219 2.6 0 2.6 0 0 1.762219 0 0 1.244173 1.762219 0 1.762219 1.244173 0 1.244173 0 0 1.762219 0 0 2.6 1.762219 0 1.762219 2.6 0 2.6 0 0 1.762219 0 0 0.375 -0.75 0.5981402 -0.9500001 0.5873528 0.812131 0.5873528 0.812131 -1.725 -0.35 0.375 -0.75 0.375 -0.75 -1.725 -0.35 -1.725 -0.75 -0.75 2.1 -2.026829 2.6 -1.998882 0 -0.75 2.1 -1.998882 0 -0.75 0.5 -0.75 0.5 1.85 0.5 -0.75 2.1 -0.75 2.1 1.85 0.5 1.85 2.1 0 0 0.93 0 0 2.4 0 2.4 0.93 0 0.93 2.4 0 0 0.93 0 0 2.4 0 2.4 0.93 0 0.93 2.4 0 0 0.93 0 0 2.4 0 2.4 0.93 0 0.93 2.4 0 0 0.93 0 0 2.4 0 2.4 0.93 0 0.93 2.4 0.465 0.465 -0.465 0.465 0.465 -0.465 0.465 -0.465 -0.465 0.465 -0.465 -0.465 -2.576773 0 0 0 -2.576773 0.3 -2.576773 0.3 0 0 0 0.3 -1.15 0.580896 -1.15 -0.580896 1.15 -0.580896 -2.576773 0 0 0 -2.576773 0.3 -2.576773 0.3 0 0 0 0.3 -1.15 -0.580896 1.15 -0.580896 1.15 0.580896 -0.8 -1.2 -0.465 -0.702781 -0.8 0.562219 -0.8 0.562219 -0.465 -0.702781 -0.465 0.227219 -0.8 0.562219 -0.465 0.227219 0.465 0.227219 -0.8 -1.2 0.8 -1.2 -0.465 -0.702781 -0.465 -0.702781 0.8 -1.2 0.465 -0.702781 0.465 -0.702781 0.8 -1.2 0.8 0.562219 0.465 -0.702781 0.8 0.562219 0.465 0.227219 0.465 0.227219 0.8 0.562219 -0.8 0.562219 1.95 0.141421 -0.65 0.141421 1.95 -0.141421 1.95 -0.141421 -0.65 0.141421 -0.65 -0.141421 -0.01228606 2.6 -1.299122 2.1 -0.005488395 0 -0.005488395 0 -1.299122 2.1 -1.299122 0.5 -1.299122 2.1 -3.899122 2.1 -1.299122 0.5 -1.299122 0.5 -3.899122 2.1 -3.899122 0.5 0 2.3 -1.161792 2.3 0 0.3 0 0.3 -1.161792 2.3 -1.161792 0.3 -1.161792 0.3 -1.161792 2.3 -1.16217 0 -1.161792 2.3 -1.162124 2.6 -1.16217 0 1.9 -0.07499998 0.8952429 0.4566618 -0.4 -0.07499998 -0.4 -0.07499998 0.8952429 0.4566618 0.3633062 0.6033533 1.9 1.925 1.249651 0.8102288 1.9 -0.07499998 -0.4 1.925 0.7959807 1.42587 1.9 1.925 -0.4 -0.07499998 0.3161876 1.154636 -0.4 1.925 0.7959807 1.42587 1.186376 1.196537 1.9 1.925 1.186376 1.196537 1.249651 0.8102288 1.9 1.925 1.249651 0.8102288 0.8952429 0.4566618 1.9 -0.07499998 0.3633062 0.6033533 0.3161876 1.154636 -0.4 -0.07499998 -0.4 1.925 0.3161876 1.154636 0.7959807 1.42587 -0.1349031 -0.75 0.116184 -0.55 -0.08933436 1.012172 2.216184 -0.55 2.216184 -0.15 0.116184 -0.55 0.116184 -0.55 2.216184 -0.15 -0.08933436 1.012172 -1.932369 1.3 -2.385538 0.08406066 -1.932369 -1.3 -1.932369 -1.3 -2.385538 0.08406066 -2.507045 -0.3492212 -4.032369 1.3 -2.772837 0.4784657 -1.932369 1.3 -4.032369 -1.3 -3.316182 0.2296365 -4.032369 1.3 -1.932369 -1.3 -2.863921 -0.5123333 -4.032369 -1.3 -4.032369 -1.3 -2.863921 -0.5123333 -3.269062 -0.3216477 -1.932369 1.3 -2.772837 0.4784657 -2.385538 0.08406066 -1.932369 -1.3 -2.507045 -0.3492212 -2.863921 -0.5123333 -3.269062 -0.3216477 -3.316182 0.2296365 -4.032369 -1.3 -4.032369 1.3 -3.316182 0.2296365 -2.772837 0.4784657 -0.4 -1.497601 0 -1.455053 -0.4 -0.9122146 -0.4 -0.9122146 0 -1.455053 0 -0.9434413 -0.4 -0.9122146 0 -0.9434413 0 -0.5326133 -0.4 -0.9122146 0 -0.5326133 -0.4 -0.4310039 -0.4 -0.4310039 0 -0.5326133 0 -0.04831528 -0.4 -0.4310039 0 -0.04831528 -0.4 -0.01866102 -0.4 -0.01866102 0 -0.04831528 -0.4 0.4606623 -0.4 0.4606623 0 -0.04831528 0 0.5688983 -0.4 0.4606623 0 0.5688983 -0.4 1.080437 -0.4 1.080437 0 0.5688983 0 1.188672 -0.4 1.080437 0 1.188672 -0.4 1.568091 -0.4 1.568091 0 1.188672 0 1.610006 1.3 0.4 1 0.4 1.3 0 1.3 0 1 0.4 -1 0.4 1.3 0 -1 0.4 -1.3 0 -1.3 0 -1 0.4 -1.3 0.4 -0.93 0.518363 -1.365 0.4900977 -0.9300001 0.3950581 -0.9300001 0.3950581 -1.365 0.4900977 -1.365 0.296371 -0.9300001 0.3950581 -1.365 0.296371 -0.93 0.1382825 -0.93 0.1382825 -1.365 0.296371 -1.365 0.03716373 -0.93 0.1382825 -1.365 0.03716373 -0.9300001 -0.1218946 -0.9300001 -0.1218946 -1.365 0.03716373 -1.365 -0.2652154 -0.9300001 -0.1218946 -1.365 -0.2652154 -0.9300001 -0.3800829 -0.9300001 -0.3800829 -1.365 -0.2652154 -1.365 -0.4805617 0.435 0.518363 0 0.4900977 0.435 0.3950581 0.435 0.3950581 0 0.4900977 0 0.296371 0.435 0.3950581 0 0.296371 0.435 0.1382825 0.435 0.1382825 0 0.296371 0 0.03716373 0.435 0.1382825 0 0.03716373 0.435 -0.1218946 0.435 -0.1218946 0 0.03716373 0 -0.2652154 0.435 -0.1218946 0 -0.2652154 0.435 -0.3800829 0.435 -0.3800829 0 -0.2652154 0 -0.4805617 -0.7 -0.5193926 0.5 -0.5006254 -0.7 0.1920064 -0.7 0.1920064 0.5 -0.5006254 0.5 0.2514021 -2.604648 -0.1131294 -3.265 -0.6 -2.393317 -0.09562808 -2.393317 -0.09562808 -3.265 -0.6 -1.504163 -0.6 -2.393317 -0.09562808 -1.504163 -0.6 -1.504163 0.6 -2.393317 -0.09562808 -1.504163 0.6 -2.396609 0.113702 -2.396609 0.113702 -1.504163 0.6 -2.606686 0.09562736 -2.606686 0.09562736 -1.504163 0.6 -3.265 0.6 -2.606686 0.09562736 -3.265 0.6 -3.265 -0.6 -2.606686 0.09562736 -3.265 -0.6 -2.604648 -0.1131294 -0.5 -0.5194012 0.7 -0.5006331 -0.5 0.1920003 -0.5 0.1920003 0.7 -0.5006331 0.7 0.2513964 -0.759332 -0.1541594 -1.760837 -0.6 0 -0.6 -0.759332 -0.1541594 0 -0.6 -0.6146246 -0.03442668 -0.6146246 -0.03442668 0 -0.6 0 0.6 -0.6146246 -0.03442668 0 0.6 -0.7329995 0.13976 -0.7329995 0.13976 0 0.6 -1.760837 0.6 -0.7329995 0.13976 -1.760837 0.6 -0.9082811 -0.005263805 -0.9082811 -0.005263805 -1.760837 0.6 -1.760837 -0.6 -0.9082811 -0.005263805 -1.760837 -0.6 -0.759332 -0.1541594 0.8 -0.138478 -0.4 -0.138478 0.8 -0.565685 0.8 -0.565685 -0.4 -0.138478 -0.4 -0.565685 0.4 -0.138478 -0.8 -0.138478 0.4 -0.565685 0.4 -0.565685 -0.8 -0.138478 -0.8 -0.565685 0.1876885 1.717065 -0.4148892 2.137814 -1 1.7 0.2368453 -1.658798 0.3485382 -0.02650922 0.1876885 1.717065 -1 -1.7 -0.3102858 -2.174829 0.2368453 -1.658798 -0.8509697 -2.628551 -0.5516492 -2.347038 -1 -1.7 -1 -1.7 -0.5516492 -2.347038 -0.5041558 -2.174788 -0.5516492 -2.347038 -0.8509697 -2.628551 -0.4148892 -2.462186 -0.4148892 -2.462186 -0.8509697 -2.628551 -0.2656397 -2.861975 -0.4148892 -2.462186 -0.2656397 -2.861975 -0.2595096 -2.373976 -0.2595096 -2.373976 -0.2656397 -2.861975 0.1138324 -2.596185 -0.2595096 -2.373976 0.1138324 -2.596185 -0.3102858 -2.174829 -0.3102858 -2.174829 0.1138324 -2.596185 0.2368453 -1.658798 0.9764203 -0.003467738 0.5598798 -0.1277109 0.2368453 -1.658798 0.9764203 -0.003467738 0.6332135 0.08558684 0.5598798 -0.1277109 0.1876885 1.717065 0.6332135 0.08558684 0.9764203 -0.003467738 0.1876885 1.717065 0.4529726 0.1516534 0.6332135 0.08558684 0.1876885 1.717065 0.3485382 -0.02650922 0.4529726 0.1516534 -0.2248455 2.850626 -0.2595096 2.226024 0.1245443 2.573765 0.1245443 2.573765 -0.2595096 2.226024 0.1876885 1.717065 -0.2595096 2.226024 -0.2248455 2.850626 -0.3102859 2.425171 -0.3102859 2.425171 -0.2248455 2.850626 -0.5041557 2.425212 -0.5041557 2.425212 -0.2248455 2.850626 -0.6553742 2.838108 -0.5041557 2.425212 -0.6553742 2.838108 -0.5516492 2.252962 -0.5516492 2.252962 -0.6553742 2.838108 -0.9271848 2.546848 -0.5516492 2.252962 -0.9271848 2.546848 -1 1.7 -0.5516492 2.252962 -1 1.7 -0.4148892 2.137814 0.5598798 -0.1277109 0.3485382 -0.02650922 0.2368453 -1.658798 0.1876885 1.717065 -0.2595096 2.226024 -0.4148892 2.137814 -1 -1.7 -0.5041558 -2.174788 -0.3102858 -2.174829 -0.465 0.4025 0.9130864 -0.2946143 0.465 0.4025 0.465 0.4025 0.9130864 -0.2946143 0.9 1.6325 0.465 0.4025 0.9 1.6325 0.465 1.3325 0.465 1.3325 0.9 1.6325 -0.9 1.6325 0.465 1.3325 -0.9 1.6325 -0.465 1.3325 -0.465 1.3325 -0.9 1.6325 -0.465 0.4025 -0.465 0.4025 -0.9 1.6325 -0.9116147 -0.2759155 -0.465 0.4025 -0.9116147 -0.2759155 0.9130864 -0.2946143 0.9130864 -0.2946143 -0.9116147 -0.2759155 1.16017 -0.9925314 1.16017 -0.9925314 -0.9116147 -0.2759155 -1.130909 -0.9415814 1.16017 -0.9925314 -1.130909 -0.9415814 1.7 -1.6325 1.7 -1.6325 -1.130909 -0.9415814 -1.7 -1.6325 -0.4593319 -0.1541594 -0.93 -0.6 0 -0.6 -0.4593319 -0.1541594 0 -0.6 -0.3146246 -0.03442668 -0.3146246 -0.03442668 0 -0.6 0 0.6 -0.3146246 -0.03442668 0 0.6 -0.4329994 0.13976 -0.4329994 0.13976 0 0.6 -0.93 0.6 -0.4329994 0.13976 -0.93 0.6 -0.6082811 -0.005263805 -0.6082811 -0.005263805 -0.93 0.6 -0.93 -0.6 -0.6082811 -0.005263805 -0.93 -0.6 -0.4593319 -0.1541594 -0.93 -0.6 0 -0.6 -0.93 0.6 -0.93 0.6 0 -0.6 0 0.6 -0.5696479 -0.1131294 -0.93 -0.6 -0.3583171 -0.09562808 -0.3583171 -0.09562808 -0.93 -0.6 0 -0.6 -0.3583171 -0.09562808 0 -0.6 0 0.6 -0.3583171 -0.09562808 0 0.6 -0.3616089 0.113702 -0.3616089 0.113702 0 0.6 -0.5716856 0.09562736 -0.5716856 0.09562736 0 0.6 -0.93 0.6 -0.5716856 0.09562736 -0.93 0.6 -0.93 -0.6 -0.5716856 0.09562736 -0.93 -0.6 -0.5696479 -0.1131294 -0.93 -0.6 0 -0.6 -0.93 0.6 -0.93 0.6 0 -0.6 0 0.6 -1.8 -0.6 0 -0.6 -1.8 0.6 -1.8 0.6 0 -0.6 0 0.6 -0.5 -0.534071 0 -0.5077547 -0.5 -0.341386 -0.5 -0.341386 0 -0.5077547 0 -0.3495766 -0.5 -0.341386 0 -0.3495766 0 -0.1039597 -0.5 -0.341386 0 -0.1039597 -0.5 -0.02931779 -0.5 -0.02931779 0 -0.1039597 0 0.1178703 -0.5 -0.02931779 0 0.1178703 -0.5 0.2160578 -0.5 0.2160578 0 0.1178703 0 0.3194699 -0.5 0.2160578 0 0.3194699 -0.5 0.4371272 -0.5 0.4371272 0 0.3194699 0 0.5045117 -0.5 0.3728386 0 0.5213419 -0.5 0.534071 -0.5 -0.4515368 0 -0.507772 0 -0.3498626 -0.5 -0.4515368 0 -0.3498626 -0.5 -0.2513901 -0.5 -0.2513901 0 -0.3498626 0 -0.1491667 -0.5 -0.2513901 0 -0.1491667 -0.5 -0.05098885 -0.5 -0.05098885 0 -0.1491667 0 0.05098944 -0.5 -0.05098885 0 0.05098944 -0.5 0.1491626 -0.5 0.1491626 0 0.05098944 0 0.320297 -0.5 0.1491626 0 0.320297 -0.5 0.3728386 -0.5 0.3728386 0 0.320297 0 0.5213419 -0.5 0.3728387 0 0.5213419 -0.5 0.534071 -0.5 -0.451537 0 -0.4052986 -0.5 -0.2513901 -0.5 -0.2513901 0 -0.4052986 0 -0.1491667 -0.5 -0.2513901 0 -0.1491667 -0.5 -0.05098903 -0.5 -0.05098903 0 -0.1491667 0 0.05098932 -0.5 -0.05098903 0 0.05098932 -0.5 0.1491625 -0.5 0.1491625 0 0.05098932 0 0.3202972 -0.5 0.1491625 0 0.3202972 -0.5 0.3728387 -0.5 0.3728387 0 0.3202972 0 0.5213419 -0.5 0 0 0 -0.5 1.049299 -0.5 1.049299 0 0 0 1.189569 -0.5 1.049299 0 1.189569 -0.5 2.238452 -0.5 2.238452 0 1.189569 0 2.238452 -0.5 0 0 0 -0.5 1.049265 -0.5 1.049265 0 0 0 1.189534 -0.5 1.049265 0 1.189534 -0.5 2.238452 -0.5 2.238452 0 1.189534 0 2.238452 0.5 1.596445 0 1.500993 0.5 1.127028 0.5 1.127028 0 1.500993 0 0.8635496 0.5 1.127028 0 0.8635496 0.5 0.6765501 0.5 0.6765501 0 0.8635496 0.5 0.2626116 0.5 0.2626116 0 0.8635496 0 0.2291941 -2.765 2.535 -1.386914 1.837893 -1.835 2.535 -1.835 2.535 -1.386914 1.837893 -1.4 3.765 -1.835 2.535 -1.4 3.765 -1.835 3.465 -1.835 3.465 -1.4 3.765 -3.2 3.765 -1.835 3.465 -3.2 3.765 -2.765 3.465 -2.765 3.465 -3.2 3.765 -2.765 2.535 -2.765 2.535 -3.2 3.765 -3.211616 1.856576 -2.765 2.535 -3.211616 1.856576 -1.386914 1.837893 -1.386914 1.837893 -3.211616 1.856576 -1.139833 1.139974 -1.139833 1.139974 -3.211616 1.856576 -3.430912 1.190913 -1.139833 1.139974 -3.430912 1.190913 -0.6 0.5 -0.6 0.5 -3.430912 1.190913 -4 0.5 -0.6 0.5 -4 0.5 0 -0.239991 0 -0.239991 -4 0.5 -4.6 0 -4.6 0 -4 0.5 -4.6 0.5 0 -0.239991 0 0.5 -0.6 0.5 0.5 -0.3783031 0 -0.239991 0 -0.67655 0.5 -0.3783031 0 -0.67655 0.5 -1.083523 0.5 -1.083523 0 -0.67655 0 -1.127028 0.5 -1.083523 0 -1.127028 0.5 -1.571346 0.5 -1.571346 0 -1.127028 0 -1.596445 0.2935018 -2.393254 -0.1245443 -2.573765 0.2248454 -2.850627 0.2935018 -2.393254 0.2248454 -2.850627 0.5041527 -2.425214 0.5041527 -2.425214 0.2248454 -2.850627 0.6553742 -2.838108 0.5041527 -2.425214 0.6553742 -2.838108 0.551649 -2.252962 0.551649 -2.252962 0.6553742 -2.838108 0.9339946 -2.525758 0.3543077 -2.159595 -0.5100544 -1.272199 0.2935018 -2.393254 0.2935018 -2.393254 -0.5100544 -1.272199 -0.1245443 -2.573765 -0.5100544 -1.272199 0.3543077 -2.159595 -0.37406 -0.0880481 -0.37406 -0.0880481 0.3543077 -2.159595 0.3256365 2.159531 0.3256365 2.159531 0.3543077 -2.159595 0.5041527 2.174786 0.5041527 2.174786 0.3543077 -2.159595 0.551649 -2.252962 0.5041527 2.174786 0.551649 -2.252962 0.9339946 -2.525758 -0.06792336 2.648405 0.2341009 2.294021 0.4743438 2.860649 0.4743438 2.860649 0.2341009 2.294021 0.3543078 2.440406 0.4743438 2.860649 0.3543078 2.440406 0.551649 2.347038 0.4743438 2.860649 0.551649 2.347038 0.940265 2.517059 0.940265 2.517059 0.551649 2.347038 0.5041527 2.174786 -0.37406 -0.0880481 0.3256365 2.159531 -0.3747869 0.1041532 -0.3747869 0.1041532 0.3256365 2.159531 -0.4652675 1.405424 -0.4652675 1.405424 0.3256365 2.159531 0.2341009 2.294021 -0.4652675 1.405424 0.2341009 2.294021 -0.06792336 2.648405 -0.662185 0.01489257 -0.9764204 0.003466248 -0.5739832 -0.140489 -0.5739832 -0.140489 -0.9764204 0.003466248 -0.5100544 -1.272199 -0.5739832 -0.140489 -0.5100544 -1.272199 -0.37406 -0.0880481 -0.9764204 0.003466248 -0.662185 0.01489257 -0.4652675 1.405424 -0.4652675 1.405424 -0.662185 0.01489257 -0.5481891 0.1508244 -0.4652675 1.405424 -0.5481891 0.1508244 -0.3747869 0.1041532 0.9339946 -2.525758 0.940265 2.517059 0.5041527 2.174786</float_array>
          <technique_common>
            <accessor source="#edf_torsional_400_top-mesh-map-0-array" count="1686" stride="2">
              <param name="S" type="float"/>
              <param name="T" type="float"/>
            </accessor>
          </technique_common>
        </source>
        <vertices id="edf_torsional_400_top-mesh-vertices">
          <input semantic="POSITION" source="#edf_torsional_400_top-mesh-positions"/>
        </vertices>
        <triangles material="ABS__White__017-material" count="550">
          <input semantic="VERTEX" source="#edf_torsional_400_top-mesh-vertices" offset="0"/>
          <input semantic="NORMAL" source="#edf_torsional_400_top-mesh-normals" offset="1"/>
          <input semantic="TEXCOORD" source="#edf_torsional_400_top-mesh-map-0" offset="2" set="0"/>
          <p>0 0 0 1 0 1 3 0 2 3 1 3 1 1 4 2 1 5 4 2 6 0 2 7 5 2 8 5 2 9 0 2 10 3 2 11 6 3 12 7 3 13 9 3 14 9 4 15 7 4 16 8 4 17 7 5 18 10 5 19 8 5 20 8 5 21 10 5 22 11 5 23 1 6 24 12 6 25 2 6 26 13 2 27 14 2 28 12 2 29 12 7 30 14 7 31 2 7 32 1 8 33 0 8 34 6 8 35 6 9 36 0 9 37 7 9 38 0 10 39 4 10 40 7 10 41 7 10 42 4 10 43 10 10 44 15 11 45 16 11 46 18 11 47 18 11 48 16 11 49 17 11 50 16 5 51 19 5 52 17 5 53 17 5 54 19 5 55 20 5 56 19 10 57 21 10 58 20 10 59 20 10 60 21 10 61 22 10 62 21 2 63 15 2 64 22 2 65 22 2 66 15 2 67 18 2 68 18 12 69 17 12 70 22 12 71 22 12 72 17 12 73 20 12 74 2 13 75 14 13 76 24 13 77 24 14 78 14 14 79 23 14 80 25 5 81 24 5 82 23 5 83 26 15 84 9 15 85 28 15 86 28 16 87 9 16 88 27 16 89 29 2 90 28 2 91 27 2 92 5 17 93 16 17 94 4 17 95 4 12 96 16 12 97 15 12 98 4 12 99 15 12 100 10 12 101 10 12 102 15 12 103 11 12 104 11 12 105 15 12 106 21 12 107 11 12 108 21 12 109 19 12 110 16 12 111 5 12 112 19 12 113 19 12 114 5 12 115 11 12 116 1 18 117 6 18 118 12 18 119 12 19 120 6 19 121 30 19 122 3 20 123 2 20 124 9 20 125 3 21 126 9 21 127 8 21 128 8 11 129 11 11 130 3 11 131 3 11 132 11 11 133 5 11 134 25 22 135 27 22 136 24 22 137 24 23 138 27 23 139 9 23 140 24 24 141 9 24 142 2 24 143 25 22 144 29 22 145 27 22 146 23 11 147 34 11 148 25 11 149 25 11 150 34 11 151 35 11 152 28 11 153 32 11 154 23 11 155 23 25 156 32 25 157 33 25 158 29 11 159 31 11 160 28 11 161 28 11 162 31 11 163 32 11 164 25 26 165 36 26 166 29 26 167 23 27 168 33 27 169 34 27 170 35 11 171 36 11 172 25 11 173 29 11 174 36 11 175 31 11 176 30 28 177 6 28 178 9 28 179 9 29 180 26 29 181 30 29 182 30 5 183 26 5 184 37 5 185 30 10 186 42 10 187 12 10 188 12 30 189 42 30 190 43 30 191 37 10 192 41 10 193 30 10 194 13 10 195 39 10 196 37 10 197 37 31 198 39 31 199 40 31 200 12 10 201 38 10 202 13 10 203 38 10 204 39 10 205 13 10 206 40 10 207 41 10 208 37 10 209 30 32 210 41 32 211 42 32 212 12 33 213 43 33 214 38 33 215 38 34 216 34 35 217 33 36 218 38 37 219 33 38 220 39 39 221 39 40 222 33 41 223 32 42 224 39 43 225 32 44 226 40 45 227 40 46 228 32 47 229 31 48 230 40 49 231 31 50 232 41 51 233 41 52 234 31 53 235 36 54 236 41 55 237 36 56 238 42 57 239 42 58 240 36 59 241 43 60 242 43 61 243 36 62 244 35 63 245 43 64 246 35 65 247 38 66 248 38 67 249 35 68 250 34 69 251 14 22 252 13 22 253 23 22 254 23 22 255 13 22 256 37 22 257 23 22 258 37 22 259 28 22 260 28 22 261 37 22 262 26 22 263 44 70 264 50 71 265 47 72 266 47 73 267 50 74 268 48 75 269 47 76 270 48 77 271 46 78 272 46 79 273 48 80 274 49 81 275 46 82 276 49 83 277 45 84 278 45 85 279 49 86 280 44 87 281 44 88 282 49 89 283 50 90 284 51 91 285 57 92 286 54 93 287 54 94 288 57 95 289 55 96 290 54 97 291 55 98 292 53 99 293 53 100 294 55 101 295 56 102 296 53 103 297 56 104 298 52 105 299 52 106 300 56 107 301 51 108 302 51 109 303 56 110 304 57 111 305 61 112 306 58 113 307 60 114 308 60 115 309 58 116 310 59 117 311 51 118 312 59 118 313 62 118 314 51 2 315 62 2 316 52 2 317 52 2 318 62 2 319 63 2 320 52 2 321 63 2 322 53 2 323 53 119 324 63 119 325 60 119 326 53 120 327 60 120 328 54 120 329 54 121 330 60 121 331 59 121 332 54 122 333 59 122 334 51 122 335 67 123 336 64 124 337 66 125 338 66 126 339 64 127 340 65 128 341 50 129 342 69 129 343 66 129 344 50 130 345 66 130 346 48 130 347 48 131 348 66 131 349 65 131 350 48 132 351 65 132 352 68 132 353 48 133 354 68 133 355 49 133 356 49 5 357 68 5 358 69 5 359 49 134 360 69 134 361 50 134 362 58 135 363 61 135 364 71 135 365 71 136 366 61 136 367 70 136 368 64 137 369 67 137 370 73 137 371 73 138 372 67 138 373 72 138 374 70 139 375 89 139 376 71 139 377 74 11 378 88 11 379 70 11 380 74 11 381 87 11 382 88 11 383 87 11 384 74 11 385 75 11 386 87 11 387 75 11 388 86 11 389 86 11 390 75 11 391 85 11 392 85 140 393 75 140 394 76 140 395 85 141 396 76 141 397 71 141 398 85 142 399 71 142 400 89 142 401 71 143 402 82 143 403 83 143 404 77 144 405 81 144 406 71 144 407 84 145 408 77 145 409 72 145 410 84 146 411 72 146 412 83 146 413 83 147 414 72 147 415 71 147 416 72 148 417 78 148 418 93 148 419 93 11 420 78 11 421 79 11 422 93 149 423 79 149 424 92 149 425 92 11 426 79 11 427 80 11 428 92 11 429 80 11 430 91 11 431 91 150 432 80 150 433 73 150 434 91 11 435 73 11 436 90 11 437 90 151 438 73 151 439 72 151 440 90 152 441 72 152 442 93 152 443 84 153 444 81 153 445 77 153 446 71 154 447 81 154 448 82 154 449 70 155 450 88 155 451 89 155 452 95 156 453 66 156 454 94 156 455 94 157 456 66 157 457 69 157 458 94 22 459 69 22 460 97 22 461 97 22 462 69 22 463 62 22 464 97 22 465 62 22 466 96 22 467 96 22 468 62 22 469 95 22 470 95 158 471 62 158 472 59 158 473 95 159 474 59 159 475 66 159 476 66 22 477 59 22 478 67 22 479 67 22 480 59 22 481 58 22 482 67 160 483 58 160 484 72 160 485 72 161 486 58 161 487 71 161 488 57 5 489 96 5 490 95 5 491 57 5 492 95 5 493 55 5 494 55 5 495 95 5 496 98 5 497 55 5 498 98 5 499 99 5 500 55 5 501 99 5 502 56 5 503 56 162 504 99 162 505 96 162 506 56 163 507 96 163 508 57 163 509 99 10 510 100 10 511 96 10 512 96 10 513 100 10 514 97 10 515 44 164 516 94 164 517 97 164 518 44 165 519 97 165 520 45 165 521 45 166 522 97 166 523 100 166 524 45 167 525 100 167 526 46 167 527 46 168 528 100 168 529 101 168 530 46 169 531 101 169 532 47 169 533 47 170 534 101 170 535 94 170 536 47 171 537 94 171 538 44 171 539 101 11 540 98 11 541 94 11 542 94 11 543 98 11 544 95 11 545 68 11 546 63 11 547 69 11 548 69 11 549 63 11 550 62 11 551 84 172 552 102 173 553 81 174 554 81 175 555 102 176 556 103 177 557 81 178 558 103 179 559 82 180 560 82 181 561 103 182 562 83 183 563 83 184 564 103 185 565 104 186 566 83 187 567 104 188 568 105 189 569 83 190 570 105 191 571 84 192 572 84 193 573 105 194 574 102 195 575 85 196 576 106 197 577 86 198 578 86 199 579 106 200 580 107 201 581 86 202 582 107 203 583 87 204 584 87 205 585 107 206 586 108 207 587 87 208 588 108 209 589 109 210 590 87 211 591 109 212 592 88 213 593 88 214 594 109 215 595 89 216 596 89 217 597 109 218 598 110 219 599 89 220 600 110 221 601 85 222 602 85 223 603 110 224 604 106 225 605 93 226 606 111 227 607 90 228 608 90 229 609 111 230 610 112 231 611 90 232 612 112 233 613 91 234 614 91 235 615 112 236 616 113 237 617 91 238 618 113 239 619 114 240 620 91 241 621 114 242 622 92 243 623 92 244 624 114 245 625 115 246 626 92 247 627 115 248 628 93 249 629 93 250 630 115 251 631 111 252 632 77 253 633 118 254 634 72 255 635 72 256 636 118 257 637 116 258 638 72 259 639 116 260 640 117 261 641 72 262 642 117 263 643 78 264 644 76 265 645 122 266 646 119 267 647 76 268 648 119 269 649 71 270 650 71 271 651 119 272 652 77 273 653 77 274 654 119 275 655 118 276 656 74 277 657 120 278 658 75 279 659 75 280 660 120 281 661 121 282 662 75 283 663 121 284 664 122 285 665 75 286 666 122 287 667 76 288 668 101 12 669 60 12 670 98 12 671 98 12 672 60 12 673 63 12 674 98 12 675 63 12 676 99 12 677 99 12 678 63 12 679 68 12 680 99 12 681 68 12 682 100 12 683 100 12 684 68 12 685 101 12 686 101 12 687 68 12 688 65 12 689 101 289 690 65 289 691 60 289 692 60 12 693 65 12 694 61 12 695 61 12 696 65 12 697 64 12 698 61 12 699 64 12 700 70 12 701 70 12 702 64 12 703 73 12 704 70 290 705 73 290 706 120 290 707 120 291 708 73 291 709 123 291 710 123 292 711 73 292 712 80 292 713 120 293 714 74 293 715 70 293 716 78 294 717 117 295 718 79 296 719 79 297 720 117 298 721 124 299 722 79 300 723 124 301 724 80 302 725 80 303 726 124 304 727 123 305 728 117 306 729 111 306 730 124 306 731 124 307 732 111 307 733 115 307 734 124 308 735 115 308 736 114 308 737 124 309 738 114 309 739 123 309 740 114 10 741 113 10 742 123 10 743 123 10 744 113 10 745 109 10 746 109 310 747 113 310 748 110 310 749 110 311 750 113 311 751 112 311 752 110 10 753 112 10 754 104 10 755 104 312 756 112 312 757 111 312 758 104 313 759 111 313 760 117 313 761 106 10 762 122 10 763 107 10 764 107 10 765 122 10 766 121 10 767 107 10 768 121 10 769 108 10 770 108 314 771 121 314 772 109 314 773 109 315 774 121 315 775 120 315 776 106 10 777 119 10 778 122 10 779 119 10 780 106 10 781 104 10 782 104 316 783 106 316 784 110 316 785 123 10 786 109 10 787 120 10 788 102 317 789 118 317 790 119 317 791 102 318 792 119 318 793 103 318 794 103 10 795 119 10 796 104 10 797 118 10 798 102 10 799 116 10 800 102 10 801 105 10 802 116 10 803 105 10 804 104 10 805 116 10 806 116 319 807 104 319 808 117 319 809 133 323 846 134 323 847 136 323 848 136 324 849 134 324 850 135 324 851 134 2 852 137 2 853 135 2 854 135 2 855 137 2 856 138 2 857 139 325 858 140 325 859 142 325 860 142 326 861 140 326 862 141 326 863 143 5 864 139 5 865 144 5 866 144 5 867 139 5 868 142 5 869 147 327 870 133 327 871 136 327 872 136 328 873 145 328 874 147 328 875 147 2 876 145 2 877 146 2 878 134 329 879 133 329 880 140 329 881 134 330 882 140 330 883 139 330 884 139 10 885 143 10 886 134 10 887 134 10 888 143 10 889 137 10 890 148 11 891 149 11 892 151 11 893 151 11 894 149 11 895 150 11 896 152 5 897 148 5 898 153 5 899 153 5 900 148 5 901 151 5 902 154 10 903 152 10 904 155 10 905 155 10 906 152 10 907 153 10 908 149 2 909 154 2 910 150 2 911 150 2 912 154 2 913 155 2 914 155 22 915 153 22 916 150 22 917 150 22 918 153 22 919 151 22 920 145 331 921 136 331 922 157 331 923 157 332 924 136 332 925 156 332 926 156 5 927 158 5 928 157 5 929 141 333 930 159 333 931 161 333 932 161 334 933 159 334 934 160 334 935 160 2 936 162 2 937 161 2 938 137 335 939 148 335 940 138 335 941 138 22 942 148 22 943 152 22 944 138 22 945 152 22 946 154 22 947 137 22 948 143 22 949 148 22 950 148 22 951 143 22 952 149 22 953 149 22 954 143 22 955 144 22 956 149 336 957 144 336 958 154 336 959 154 22 960 144 22 961 138 22 962 147 337 963 163 337 964 133 337 965 133 338 966 163 338 967 140 338 968 136 339 969 135 339 970 141 339 971 141 340 972 135 340 973 142 340 974 135 11 975 138 11 976 142 11 977 142 11 978 138 11 979 144 11 980 158 12 981 156 12 982 162 12 983 162 12 984 156 12 985 161 12 986 161 341 987 156 341 988 141 341 989 156 342 990 136 342 991 141 342 992 158 11 993 167 11 994 157 11 995 157 11 996 167 11 997 168 11 998 162 11 999 166 11 1000 158 11 1001 160 11 1002 164 11 1003 162 11 1004 157 11 1005 169 11 1006 160 11 1007 164 343 1008 165 343 1009 162 343 1010 165 11 1011 166 11 1012 162 11 1013 166 11 1014 167 11 1015 158 11 1016 168 11 1017 169 11 1018 157 11 1019 160 344 1020 169 344 1021 164 344 1022 140 345 1023 163 345 1024 141 345 1025 170 5 1026 159 5 1027 163 5 1028 163 346 1029 159 346 1030 141 346 1031 147 347 1032 172 347 1033 163 347 1034 163 348 1035 172 348 1036 173 348 1037 146 10 1038 171 10 1039 147 10 1040 170 10 1041 176 10 1042 146 10 1043 163 10 1044 174 10 1045 170 10 1046 170 349 1047 174 349 1048 175 349 1049 147 350 1050 171 350 1051 172 350 1052 163 351 1053 173 351 1054 174 351 1055 175 10 1056 176 10 1057 170 10 1058 146 352 1059 176 352 1060 171 352 1061 171 353 1062 167 354 1063 172 355 1064 172 356 1065 167 357 1066 166 358 1067 172 359 1068 166 360 1069 165 361 1070 172 362 1071 165 363 1072 173 364 1073 173 365 1074 165 366 1075 164 367 1076 173 368 1077 164 369 1078 174 370 1079 174 371 1080 164 372 1081 175 373 1082 175 374 1083 164 375 1084 169 376 1085 175 377 1086 169 378 1087 176 379 1088 176 380 1089 169 381 1090 168 382 1091 176 383 1092 168 384 1093 171 385 1094 171 386 1095 168 387 1096 167 388 1097 145 12 1098 157 12 1099 146 12 1100 146 12 1101 157 12 1102 160 12 1103 146 12 1104 160 12 1105 170 12 1106 170 12 1107 160 12 1108 159 12 1109 177 389 1110 181 390 1111 180 391 1112 180 392 1113 181 393 1114 182 394 1115 180 395 1116 182 396 1117 179 397 1118 179 398 1119 182 399 1120 183 400 1121 179 401 1122 183 402 1123 178 403 1124 178 404 1125 183 405 1126 184 406 1127 178 407 1128 184 408 1129 177 409 1130 177 410 1131 184 411 1132 181 412 1133 185 413 1134 189 414 1135 188 415 1136 188 416 1137 189 417 1138 190 418 1139 188 419 1140 190 420 1141 187 421 1142 187 422 1143 190 423 1144 191 424 1145 187 425 1146 191 426 1147 186 427 1148 186 428 1149 191 429 1150 192 430 1151 186 431 1152 192 432 1153 185 433 1154 185 434 1155 192 435 1156 189 436 1157 196 437 1158 193 438 1159 195 439 1160 195 440 1161 193 441 1162 194 442 1163 188 2 1164 198 2 1165 185 2 1166 185 443 1167 198 443 1168 193 443 1169 185 444 1170 193 444 1171 196 444 1172 185 445 1173 196 445 1174 186 445 1175 186 446 1176 196 446 1177 187 446 1178 187 447 1179 196 447 1180 197 447 1181 187 2 1182 197 2 1183 198 2 1184 187 448 1185 198 448 1186 188 448 1187 202 449 1188 199 450 1189 201 451 1190 201 452 1191 199 453 1192 200 454 1193 181 455 1194 202 455 1195 203 455 1196 181 5 1197 203 5 1198 182 5 1199 182 5 1200 203 5 1201 204 5 1202 182 456 1203 204 456 1204 183 456 1205 183 457 1206 204 457 1207 199 457 1208 183 458 1209 199 458 1210 184 458 1211 184 459 1212 199 459 1213 202 459 1214 184 460 1215 202 460 1216 181 460 1217 195 461 1218 194 461 1219 206 461 1220 206 462 1221 194 462 1222 205 462 1223 201 463 1224 200 463 1225 208 463 1226 208 464 1227 200 464 1228 207 464 1229 205 465 1230 222 465 1231 206 465 1232 208 466 1233 218 466 1234 205 466 1235 207 467 1236 230 467 1237 208 467 1238 209 11 1239 228 11 1240 207 11 1241 207 468 1242 228 468 1243 229 468 1244 228 469 1245 209 469 1246 227 469 1247 227 11 1248 209 11 1249 210 11 1250 227 11 1251 210 11 1252 226 11 1253 226 11 1254 210 11 1255 211 11 1256 226 470 1257 211 470 1258 230 470 1259 230 471 1260 211 471 1261 208 471 1262 212 472 1263 217 472 1264 208 472 1265 212 11 1266 220 11 1267 217 11 1268 205 473 1269 220 473 1270 212 473 1271 205 474 1272 219 474 1273 220 474 1274 205 475 1275 218 475 1276 219 475 1277 214 11 1278 221 11 1279 213 11 1280 213 476 1281 221 476 1282 205 476 1283 221 11 1284 214 11 1285 225 11 1286 225 477 1287 214 477 1288 224 477 1289 224 478 1290 214 478 1291 215 478 1292 224 11 1293 215 11 1294 223 11 1295 223 11 1296 215 11 1297 216 11 1298 223 479 1299 216 479 1300 206 479 1301 223 11 1302 206 11 1303 222 11 1304 217 480 1305 218 480 1306 208 480 1307 205 481 1308 221 481 1309 222 481 1310 207 482 1311 229 482 1312 230 482 1313 232 12 1314 193 12 1315 231 12 1316 231 12 1317 193 12 1318 198 12 1319 231 483 1320 198 483 1321 234 483 1322 234 12 1323 198 12 1324 203 12 1325 234 12 1326 203 12 1327 233 12 1328 233 484 1329 203 484 1330 232 484 1331 232 12 1332 203 12 1333 202 12 1334 232 485 1335 202 485 1336 193 485 1337 193 12 1338 202 12 1339 194 12 1340 194 12 1341 202 12 1342 201 12 1343 194 486 1344 201 486 1345 205 486 1346 205 487 1347 201 487 1348 208 487 1349 189 5 1350 231 5 1351 234 5 1352 189 5 1353 234 5 1354 190 5 1355 190 5 1356 234 5 1357 236 5 1358 190 488 1359 236 488 1360 191 488 1361 191 5 1362 236 5 1363 235 5 1364 191 5 1365 235 5 1366 192 5 1367 192 489 1368 235 489 1369 231 489 1370 192 490 1371 231 490 1372 189 490 1373 234 10 1374 233 10 1375 236 10 1376 236 10 1377 233 10 1378 237 10 1379 180 491 1380 233 491 1381 177 491 1382 177 492 1383 233 492 1384 232 492 1385 177 493 1386 232 493 1387 238 493 1388 177 494 1389 238 494 1390 178 494 1391 178 495 1392 238 495 1393 179 495 1394 179 496 1395 238 496 1396 237 496 1397 179 497 1398 237 497 1399 233 497 1400 179 498 1401 233 498 1402 180 498 1403 232 11 1404 231 11 1405 238 11 1406 238 11 1407 231 11 1408 235 11 1409 203 11 1410 198 11 1411 204 11 1412 204 11 1413 198 11 1414 197 11 1415 220 499 1416 239 500 1417 217 501 1418 217 502 1419 239 503 1420 240 504 1421 217 505 1422 240 506 1423 241 507 1424 217 508 1425 241 509 1426 218 510 1427 218 511 1428 241 512 1429 242 513 1430 218 514 1431 242 515 1432 219 516 1433 219 517 1434 242 518 1435 243 519 1436 219 520 1437 243 521 1438 220 522 1439 220 523 1440 243 524 1441 239 525 1442 225 526 1443 244 527 1444 221 528 1445 221 529 1446 244 530 1447 245 531 1448 221 532 1449 245 533 1450 222 534 1451 222 535 1452 245 536 1453 246 537 1454 222 538 1455 246 539 1456 223 540 1457 223 541 1458 246 542 1459 247 543 1460 223 544 1461 247 545 1462 224 546 1463 224 547 1464 247 548 1465 248 549 1466 224 550 1467 248 551 1468 225 552 1469 225 553 1470 248 554 1471 244 555 1472 230 556 1473 249 557 1474 226 558 1475 226 559 1476 249 560 1477 227 561 1478 227 562 1479 249 563 1480 250 564 1481 227 565 1482 250 566 1483 228 567 1484 228 568 1485 250 542 1486 251 569 1487 228 570 1488 251 571 1489 229 572 1490 229 573 1491 251 574 1492 252 575 1493 229 576 1494 252 577 1495 230 578 1496 230 579 1497 252 580 1498 249 581 1499 211 582 1500 262 583 1501 208 584 1502 208 585 1503 262 586 1504 253 587 1505 208 588 1506 253 589 1507 212 590 1508 212 591 1509 253 592 1510 254 593 1511 212 594 1512 254 595 1513 205 596 1514 205 597 1515 254 598 1516 255 599 1517 205 600 1518 255 601 1519 213 602 1520 213 603 1521 255 604 1522 256 605 1523 213 606 1524 256 607 1525 214 608 1526 214 609 1527 256 610 1528 257 611 1529 214 612 1530 257 613 1531 215 614 1532 215 615 1533 257 616 1534 216 617 1535 216 618 1536 257 619 1537 258 620 1538 235 22 1539 199 22 1540 238 22 1541 238 22 1542 199 22 1543 204 22 1544 238 621 1545 204 621 1546 237 621 1547 237 22 1548 204 22 1549 197 22 1550 237 22 1551 197 22 1552 236 22 1553 236 22 1554 197 22 1555 235 22 1556 235 22 1557 197 22 1558 196 22 1559 235 622 1560 196 622 1561 199 622 1562 199 22 1563 196 22 1564 200 22 1565 200 623 1566 196 623 1567 195 623 1568 200 22 1569 195 22 1570 207 22 1571 207 22 1572 195 22 1573 206 22 1574 207 624 1575 206 624 1576 259 624 1577 259 625 1578 206 625 1579 258 625 1580 258 626 1581 206 626 1582 216 626 1583 259 627 1584 209 627 1585 207 627 1586 209 628 1587 259 629 1588 260 630 1589 209 631 1590 260 632 1591 210 633 1592 210 634 1593 260 635 1594 261 636 1595 210 637 1596 261 638 1597 211 639 1598 211 640 1599 261 641 1600 262 642 1601 249 643 1602 262 643 1603 261 643 1604 249 10 1605 261 10 1606 250 10 1607 250 644 1608 261 644 1609 260 644 1610 250 645 1611 260 645 1612 251 645 1613 251 646 1614 260 646 1615 259 646 1616 252 10 1617 253 10 1618 249 10 1619 249 10 1620 253 10 1621 262 10 1622 253 647 1623 252 647 1624 241 647 1625 241 10 1626 252 10 1627 245 10 1628 245 648 1629 252 648 1630 246 648 1631 246 649 1632 252 649 1633 251 649 1634 246 650 1635 251 650 1636 259 650 1637 256 651 1638 244 651 1639 257 651 1640 257 652 1641 244 652 1642 248 652 1643 257 10 1644 248 10 1645 247 10 1646 257 653 1647 247 653 1648 258 653 1649 258 654 1650 247 654 1651 246 654 1652 241 655 1653 245 655 1654 242 655 1655 242 656 1656 245 656 1657 255 656 1658 255 10 1659 245 10 1660 244 10 1661 255 657 1662 244 657 1663 256 657 1664 239 658 1665 254 658 1666 240 658 1667 240 10 1668 254 10 1669 253 10 1670 240 10 1671 253 10 1672 241 10 1673 254 10 1674 239 10 1675 255 10 1676 255 659 1677 239 659 1678 243 659 1679 255 660 1680 243 660 1681 242 660 1682 259 661 1683 258 661 1684 246 661 1685</p>
        </triangles>
        <triangles material="Steel_-_Satin_017-material" count="12">
          <input semantic="VERTEX" source="#edf_torsional_400_top-mesh-vertices" offset="0"/>
          <input semantic="NORMAL" source="#edf_torsional_400_top-mesh-normals" offset="1"/>
          <input semantic="TEXCOORD" source="#edf_torsional_400_top-mesh-map-0" offset="2" set="0"/>
          <p>125 12 810 126 12 811 128 12 812 128 12 813 126 12 814 127 12 815 130 2 816 129 2 817 128 2 818 128 2 819 129 2 820 125 2 821 131 10 822 130 10 823 127 10 824 127 10 825 130 10 826 128 10 827 132 320 828 131 320 829 126 320 830 126 321 831 131 321 832 127 321 833 129 11 834 132 11 835 125 11 836 125 322 837 132 322 838 126 322 839 132 22 840 129 22 841 131 22 842 131 22 843 129 22 844 130 22 845</p>
        </triangles>
      </mesh>
    </geometry>
  </library_geometries>
  <library_visual_scenes>
    <visual_scene id="Scene" name="Scene">
      <node id="edf_torsional_400_top" name="edf_torsional_400_top" type="NODE">
        <matrix sid="transform">-4.37114e-10 -7.54979e-10 0.01 -0.414281 0.01 0 4.37114e-10 -0.00631 0 0.01 7.54979e-10 -0.001656 0 0 0 1</matrix>
        <instance_geometry url="#edf_torsional_400_top-mesh" name="edf_torsional_400_top">
          <bind_material>
            <technique_common>
              <instance_material symbol="ABS__White__017-material" target="#ABS__White__017-material">
                <bind_vertex_input semantic="UVMap" input_semantic="TEXCOORD" input_set="0"/>
              </instance_material>
              <instance_material symbol="Steel_-_Satin_017-material" target="#Steel_-_Satin_017-material">
                <bind_vertex_input semantic="UVMap" input_semantic="TEXCOORD" input_set="0"/>
              </instance_material>
            </technique_common>
          </bind_material>
        </instance_geometry>
      </node>
    </visual_scene>
  </library_visual_scenes>
  <scene>
    <instance_visual_scene url="#Scene"/>
  </scene>
</COLLADA>