<?xml version="1.0" encoding="utf-8"?>
<COLLADA xmlns="http://www.collada.org/2005/11/COLLADASchema" version="1.4.1" xmlns:xsi="http://www.w3.org/2001/XMLSchema-instance">
  <asset>
    <contributor>
      <author>Blender User</author>
      <authoring_tool>Blender 4.1.1 commit date:2024-04-15, commit time:15:11, hash:e1743a0317bc</authoring_tool>
    </contributor>
    <created>2024-10-25T01:39:35</created>
    <modified>2024-10-25T01:39:35</modified>
    <unit name="meter" meter="1"/>
    <up_axis>Z_UP</up_axis>
  </asset>
  <library_effects>
    <effect id="ABS__White__021-effect">
      <profile_COMMON>
        <technique sid="common">
          <lambert>
            <emission>
              <color sid="emission">0 0 0 1</color>
            </emission>
            <diffuse>
              <color sid="diffuse">0.964706 0.964706 0.952941 1</color>
            </diffuse>
            <index_of_refraction>
              <float sid="ior">1.5</float>
            </index_of_refraction>
          </lambert>
        </technique>
      </profile_COMMON>
    </effect>
    <effect id="Steel_-_Satin_021-effect">
      <profile_COMMON>
        <technique sid="common">
          <lambert>
            <emission>
              <color sid="emission">0 0 0 1</color>
            </emission>
            <diffuse>
              <color sid="diffuse">0.627451 0.627451 0.627451 1</color>
            </diffuse>
            <index_of_refraction>
              <float sid="ior">1.5</float>
            </index_of_refraction>
          </lambert>
        </technique>
      </profile_COMMON>
    </effect>
  </library_effects>
  <library_images/>
  <library_materials>
    <material id="ABS__White__021-material" name="ABS_(White).021">
      <instance_effect url="#ABS__White__021-effect"/>
    </material>
    <material id="Steel_-_Satin_021-material" name="Steel_-_Satin.021">
      <instance_effect url="#Steel_-_Satin_021-effect"/>
    </material>
  </library_materials>
  <library_geometries>
    <geometry id="edf_torsional_500_top-mesh" name="edf_torsional_500_top">
      <mesh>
        <source id="edf_torsional_500_top-mesh-positions">
          <float_array id="edf_torsional_500_top-mesh-positions-array" count="795">1.430989 5.403408 3.878023 1.948035 5.395927 2.63042 1.936199 7.166006 2.585293 1.430989 7.165627 3.878023 1.430989 5.403408 6.478023 1.430989 7.165627 6.478023 -0.6823165 5.399028 2.599952 -0.1690109 5.403408 3.878023 -0.1690109 7.165627 3.878023 -0.678527 7.166457 2.587761 -0.1690109 5.403408 6.478023 -0.1690109 7.165627 6.478023 1.930989 5.603408 2.378054 1.930989 5.603408 0.278054 1.930989 6.003408 0.278054 0.165989 5.900627 6.478023 1.095989 5.900627 6.478023 1.095989 5.900627 4.078023 0.165989 5.900627 4.078023 1.095989 6.830627 6.478023 1.095989 6.830627 4.078023 0.165989 6.830627 6.478023 0.165989 6.830627 4.078023 1.630989 6.003408 0.278054 1.630989 7.165199 2.578054 1.630989 6.003408 2.578054 -0.669011 6.003408 0.278054 -0.369011 7.165199 2.578054 -0.369011 6.003408 0.278054 -0.369011 6.003408 2.578054 -0.669011 5.603408 2.378054 0.09250903 6.003408 1.519867 0.3322131 6.003408 0.955573 0.9468314 6.003408 0.9823707 1.166861 6.003408 1.410086 0.979739 6.003408 1.848487 0.4412595 6.003408 1.940297 -0.669011 5.603408 0.278054 1.174884 5.603408 1.377369 0.797296 5.603408 0.894343 0.2105559 5.603408 1.079304 0.1187456 5.603408 1.617784 0.4749379 5.603408 1.941016 0.946831 5.603408 1.873738 0.165989 6.34953 46.24828 0.165989 6.551302 46.4359 0.165989 6.358557 46.60357 0.165989 6.185882 46.44412 -0.269011 6.271725 46.27953 -0.269011 6.21878 46.55106 -0.269011 6.530365 46.51404 -0.269011 6.464891 46.28795 1.530989 6.34953 46.24828 1.530989 6.551302 46.4359 1.530989 6.358557 46.60357 1.530989 6.185882 46.44412 1.095989 6.271725 46.27953 1.095989 6.21878 46.55106 1.095989 6.530365 46.51404 1.095989 6.464891 46.28795 1.724111 4.534968 45.82802 1.533327 5.221473 45.82802 1.533624 5.20269 47.02803 1.755321 4.483965 47.02803 1.530989 7.130627 45.82802 1.530989 7.130627 47.02802 -0.4621306 4.534973 47.02803 -0.2713493 5.221481 47.02803 -0.2716454 5.202698 45.82802 -0.4933406 4.48397 45.82802 -0.269011 7.130627 47.02802 -0.269011 7.130627 45.82802 2.330989 3.865627 47.02802 2.362053 3.864556 45.7215 -1.150712 3.864288 45.74188 -1.069011 3.865627 47.02802 3.173226 3.865627 46.99426 3.559676 3.865627 46.51326 3.290892 3.865627 45.92235 0.6318054 3.865627 44.9985 -2.138966 3.865627 45.98545 -2.250905 3.865627 46.61529 -1.930972 3.865627 46.98929 0.7151173 3.865627 45.36774 0.8055774 3.865627 45.59197 0.5912187 3.865627 45.70462 0.4455577 3.865627 45.46038 3.019613 3.865627 46.25829 3.083076 3.865627 46.53498 2.801455 3.865627 46.56903 2.786671 3.865627 46.32575 -1.580387 3.865627 46.25829 -1.516925 3.865627 46.53498 -1.798545 3.865627 46.56903 -1.81333 3.865627 46.32575 0.165989 5.900627 45.82802 1.095989 5.900627 45.82802 1.095989 6.830627 45.82802 0.165989 6.830627 45.82802 1.095989 5.900627 47.02802 1.095989 6.830627 47.02802 0.165989 6.830627 47.02802 0.165989 5.900627 47.02802 0.8164197 3.365627 45.46038 0.6707589 3.365627 45.70462 0.4564003 3.365627 45.59197 0.5468602 3.365627 45.36774 3.009222 3.365627 46.25935 3.082283 3.365627 46.55479 2.778902 3.365627 46.53498 2.794845 3.365627 46.3151 -1.590778 3.365627 46.25935 -1.517717 3.365627 46.55479 -1.821098 3.365627 46.53498 -1.805155 3.365627 46.3151 -0.4849361 3.365627 45.48015 -2.028915 3.365627 45.92235 0.6301707 3.365627 44.9985 1.895563 3.365627 45.54098 3.244957 3.365627 46.98374 3.551303 3.365627 46.38999 3.273822 3.365627 45.91487 -1.899308 3.365627 47.00156 -2.254368 3.365627 46.27904 -2.238026 3.365627 46.65139 0.165989 6.830627 98.77803 0.165989 5.900627 98.77803 1.095989 5.900627 98.77803 1.095989 6.830627 4.078023 1.095989 6.830627 98.77803 1.095989 5.900627 4.078023 0.165989 5.900627 4.078023 0.165989 6.830627 4.078023 1.944175 5.397621 100.2549 1.430989 5.403408 98.97809 1.430989 7.165627 98.97809 1.940334 7.166855 100.2656 1.430989 5.403408 96.37808 1.430989 7.165627 96.37808 -0.1690109 5.403408 98.97809 -0.686257 5.397731 100.227 -0.6742779 7.165871 100.2725 -0.1690109 7.165627 98.97809 -0.1690109 5.403408 96.37808 -0.1690109 7.165627 96.37808 1.930989 6.003408 102.5781 1.930989 5.603408 102.5781 1.930989 5.603408 100.4781 1.095989 5.900627 96.37808 0.165989 5.900627 96.37808 0.165989 5.900627 98.77809 1.095989 5.900627 98.77809 1.095989 6.830627 96.37808 1.095989 6.830627 98.77809 0.165989 6.830627 96.37808 0.165989 6.830627 98.77809 1.630989 7.165199 100.2781 1.630989 6.003408 102.5781 1.630989 6.003408 100.2781 -0.669011 6.003408 102.5781 -0.369011 6.003408 102.5781 -0.369011 7.165199 100.2781 -0.369011 6.003408 100.2781 -0.669011 5.603408 100.4781 0.09511744 6.003408 101.446 0.2393611 6.003408 101.0619 0.6130284 6.003408 100.8922 0.9972004 6.003408 101.0364 1.166861 6.003408 101.4101 0.9797379 6.003408 101.8485 0.3711946 6.003408 101.9231 -0.669011 5.603408 102.5781 1.166861 5.603408 101.446 1.022614 5.603408 101.0618 0.6489496 5.603408 100.8922 0.2647758 5.603408 101.0364 0.08562952 5.603408 101.5509 0.4749357 5.603408 101.941 0.946834 5.603408 101.8737 0.165989 6.228765 56.55381 0.165989 6.246496 56.29895 0.165989 6.502489 56.30236 0.165989 6.484758 56.55722 -0.269011 6.372701 56.60364 -0.269011 6.537026 56.46669 -0.269011 6.406075 56.2467 -0.269011 6.179951 56.43596 1.530989 6.228765 56.55381 1.530989 6.246496 56.29895 1.530989 6.502489 56.30236 1.530989 6.484758 56.55722 1.095989 6.372701 56.60364 1.095989 6.537026 56.46669 1.095989 6.406075 56.2467 1.095989 6.179951 56.43596 1.533624 5.20269 57.02809 1.755321 4.483965 57.02809 1.724111 4.534968 55.82809 1.533327 5.221473 55.82809 1.530989 7.130627 55.82809 1.530989 7.130627 57.02809 -0.2716454 5.202698 55.82809 -0.4933407 4.48397 55.82809 -0.4621306 4.534973 57.02809 -0.2713493 5.221481 57.02809 -0.269011 7.130627 57.02809 -0.269011 7.130627 55.82809 2.412693 3.864288 57.11423 2.330989 3.865627 55.82809 -1.069011 3.865627 55.82809 -1.096616 3.864737 57.14899 -2.051519 3.865627 55.91162 -2.273291 3.865627 56.57328 -1.972952 3.865627 56.95538 0.6301717 3.865627 57.85762 3.212313 3.865627 56.9666 3.523438 3.865627 56.61581 3.476593 3.865627 56.16894 3.192949 3.865627 55.86682 0.4520388 3.865627 57.41138 0.5990784 3.865627 57.14491 0.80381 3.865627 57.27424 0.7277383 3.865627 57.48108 2.846865 3.865627 56.58837 2.754871 3.865627 56.41167 2.87713 3.865627 56.25527 3.067128 3.865627 56.31515 3.083077 3.865627 56.53504 -1.753135 3.865627 56.58837 -1.845129 3.865627 56.41167 -1.72287 3.865627 56.25527 -1.532872 3.865627 56.31515 -1.516923 3.865627 56.53504 1.095989 5.900627 57.02809 0.165989 5.900627 57.02809 0.165989 6.830627 57.02809 1.095989 6.830627 57.02809 1.095989 5.900627 55.82809 1.095989 6.830627 55.82809 0.165989 6.830627 55.82809 0.165989 5.900627 55.82809 0.6474032 3.365627 57.5042 0.4707077 3.365627 57.41222 0.5240325 3.365627 57.176 0.7439156 3.365627 57.19195 0.8038101 3.365627 57.38194 2.925168 3.365627 56.60161 2.770708 3.365627 56.51221 2.794847 3.365627 56.31516 2.984848 3.365627 56.25527 3.113672 3.365627 56.48544 -1.795778 3.365627 56.57938 -1.805153 3.365627 56.31516 -1.615152 3.365627 56.25527 -1.486328 3.365627 56.48544 -0.6336099 3.365627 57.31512 0.6318038 3.365627 57.85762 2.028563 3.365627 57.27042 3.300021 3.365627 56.92484 3.559677 3.365627 56.34284 3.161286 3.365627 55.85456 -1.911738 3.365627 55.85368 -2.214616 3.365627 56.16894 -2.261461 3.365627 56.61581 -1.950336 3.365627 56.9666</float_array>
          <technique_common>
            <accessor source="#edf_torsional_500_top-mesh-positions-array" count="265" stride="3">
              <param name="X" type="float"/>
              <param name="Y" type="float"/>
              <param name="Z" type="float"/>
            </accessor>
          </technique_common>
        </source>
        <source id="edf_torsional_500_top-mesh-normals">
          <float_array id="edf_torsional_500_top-mesh-normals-array" count="2010">0.9238086 0 0.3828549 0.9312858 0.01550573 0.3639592 1 0 0 -0.9279515 0.004560053 0.3726731 -0.9301055 0 0.3672927 -1 0 0 0.9979851 0.005060493 -0.06324607 0.9999946 -0.003252148 -6.19424e-4 -0.001242339 -0.9999843 0.005481183 0 -0.9999942 0.00342679 0 -1 0 0 1 0 0 0 1 0.00831145 0.8929944 -0.4499912 0 0.8925892 -0.4508709 0 0.8931562 -0.4497469 -0.01051121 0.89254 -0.4508457 -8.07729e-7 0 1 0.006448626 -0.7722287 -0.6353121 0 -0.7355457 -0.6774752 1.72859e-4 1 3.60145e-4 0 0.9999999 6.45355e-4 0 0 -1 0 0.9917181 -0.1284343 6.4265e-5 0.9935254 -0.1136103 0 1 1.05677e-6 0 1 -7.47679e-7 0 1 5.32665e-7 -0.9983001 0.001738548 -0.05825895 -0.9999818 -0.005936205 -0.0011307 0 -1 -4.70261e-6 0 -1 -7.53522e-7 0 -1 -9.07516e-7 0 -1 3.95049e-7 -0.827457 -0.005374491 0.5615035 -0.939985 -0.05469512 0.3368035 -0.8205924 -0.05468946 0.5688914 -0.8517912 0.1556727 0.5002179 -0.8532374 0.1381964 0.5028795 -0.6910499 0.1556783 0.705843 0.08634746 -0.1782149 0.9801957 -0.1726934 -0.1977787 0.9649148 0.08805572 -0.1977732 0.9762849 0.1676276 0.1977726 0.9658091 0.1702899 0.1782145 0.9691445 0.4165491 0.1977781 0.8873391 0.9543191 -0.138198 0.2649081 0.8501894 -0.1556798 0.5029333 0.9522333 -0.1556742 0.2627116 0.9499872 0.1043086 0.2943536 0.9541922 0.07102668 0.2906416 0.9938533 0.1043142 0.03706938 0.6810308 -0.07102715 -0.7288019 0.8421654 -0.1043147 -0.5290332 0.6755332 -0.104309 -0.7299141 0.7618922 0.05468863 -0.645391 0.7565327 0.005373477 -0.6539338 0.5686138 0.05469423 -0.8207844 -0.01073092 -0.01353883 -0.9998508 -0.02501749 0.04587465 -0.9986339 -0.2691151 -0.01354467 -0.9630128 -0.2826112 -0.1029572 -0.9536932 -0.03779917 -0.04793232 -0.9981352 -0.2950833 -0.04792654 -0.9542688 -0.8453779 0.04792684 -0.5320143 -0.84805 0.1029576 -0.5198182 -0.9543405 0.04793262 -0.2948507 -0.9581304 -0.04587364 -0.2826339 -0.8605452 0.01354581 -0.5091943 -0.9630035 0.01353996 -0.269149 0.08945882 0.08690786 0.9921917 0.0786466 -0.1734282 0.9817013 0.07864445 0.08731991 0.9930712 -0.09003174 0.6739498 0.7332708 -0.1139282 0.6737036 0.730167 -0.09003537 0.8413125 0.532998 0.1407919 0.9881247 0.06154114 0.1193682 0.9410697 0.3164477 0.119369 0.9910187 0.06027507 -0.1271303 0.7629593 -0.6338227 -0.1408241 0.7612193 -0.6330196 -0.1271322 0.5712552 -0.8108668 0.1615727 -0.2449019 -0.9559903 0.1545085 0.01394218 -0.9878931 0.1545113 -0.2451831 -0.9570848 -0.1025055 -0.5488003 -0.829645 -0.09524035 -0.5494494 -0.8300812 -0.1024986 -0.74571 -0.6583392 0.08949506 -0.9121789 0.3999003 0.09493565 -0.984244 0.1491683 0.09494143 -0.9116438 0.3998646 -0.1121178 -0.7663517 0.6325621 -0.1159415 -0.7660141 0.6322817 -0.1121107 -0.5752132 0.8102846 0.0894593 0.08690762 0.9921916 0.07864707 -0.1734284 0.9817013 0.07864493 0.08731961 0.9930712 -0.09003204 0.6739829 0.7332404 -0.1139198 0.6737367 0.7301378 -0.0900346 0.8413367 0.5329601 0.140792 0.9881247 0.06154119 0.1193683 0.9410696 0.3164479 0.119369 0.9910187 0.06027519 -0.1271302 0.7629594 -0.6338225 -0.140824 0.7612195 -0.6330193 -0.1271322 0.5712555 -0.8108667 0.1615722 -0.2449014 -0.9559905 0.1545079 0.01394259 -0.9878932 0.1545098 -0.2452293 -0.9570734 -0.1025055 -0.5488005 -0.829645 -0.09524035 -0.5494496 -0.830081 -0.1024986 -0.7457102 -0.6583392 0.08949512 -0.9121789 0.3999004 0.09493571 -0.984244 0.1491683 0.09494149 -0.9116438 0.3998647 -0.1121168 -0.7663808 0.632527 -0.1159419 -0.766043 0.6322466 -0.112111 -0.5752503 0.8102582 0.9294349 0.3687819 -0.0122832 0.9298189 0.3667997 -0.02991741 0.9756773 0.2188671 -0.01228624 0.9808708 0.1933967 0.02214413 0.9395063 0.3425092 0.003941178 0.9815135 0.1913529 0.003939867 0.9999967 0.001224875 0.00227648 1 -5.15268e-7 0 0.999996 0.001366376 -0.002485632 0.9999972 0.001630842 -0.001766026 0.9999967 0.0025568 -2.06746e-4 0.999998 0.001580953 0.001320958 -0.929436 0.368779 0.0122832 -0.92982 0.3667966 0.02991747 -0.975678 0.218864 0.0122863 -0.9808719 0.1933913 -0.02214413 -0.9395081 0.342504 -0.003941178 -0.9815145 0.1913475 -0.003939807 -0.9999958 0.001366436 0.002599358 -0.9999974 0.002276837 4.43952e-4 -0.999997 0.002444267 2.08526e-4 -0.9999966 0.001224815 -0.002341508 -1 -1.63421e-7 0 0.7252184 0.6884405 0.01039868 0.7318034 0.6813077 0.01684045 -0.7407976 0.6716642 -0.009280264 -0.688282 0.7241696 0.04296922 -8.18893e-4 0.9999994 -8.39443e-4 -0.002761542 0.9999962 1.68246e-4 0 1 2.35797e-5 -9.81848e-4 0.9999993 -7.93593e-4 -4.2658e-4 0.9999989 -0.001473546 5.94126e-4 0.9999993 0.001129865 6.83557e-4 0.9999998 -1.53272e-4 -9.03343e-4 0.9999995 -3.63444e-4 -7.59261e-4 0.9999997 4.51521e-4 1.8131e-4 0.9990141 0.04439252 9.00804e-4 0.9999979 -0.001844108 0 1 2.35502e-6 0 1 -3.21361e-6 0.001232504 0.9999987 -0.001119554 0.002443671 0.999997 -5.61223e-4 7.12135e-4 0.9999998 -2.88397e-4 0 -5.46573e-6 -1 0 -1.97103e-6 -1 -9.42948e-6 0 -1 0 -1.99121e-6 -1 5.79593e-7 -5.57946e-6 -1 -0.003245234 0.1410692 -0.9899944 -0.005745828 0.1515938 -0.9884262 -1 -6.61694e-7 0 1 0 0 1 0 0 1 1.77825e-7 0 1 0 0 1 0 0 1 0 0 1 0 0 1 0 0 0.4437691 -0.107791 0.8896349 0.4425683 -0.1216638 0.8884432 0.1969448 -0.1077902 0.9744712 -0.4425684 0.1216639 0.8884432 -0.1969448 0.1077904 0.9744712 -0.4437691 0.1077911 0.8896348 -0.8642253 -0.1167479 0.4893717 -0.8635724 -0.123241 0.488932 -0.9618725 -0.1167461 0.2473295 -0.7786055 0.1186429 -0.6161959 -0.9126546 0.1144199 -0.39239 -0.7789903 0.1144247 -0.6165074 -0.5754497 -0.07317358 -0.8145571 -0.575536 -0.06795215 -0.8149484 -0.3444091 -0.07316797 -0.9359641 0.5755361 0.06795221 -0.8149483 0.3444094 0.07316803 -0.9359641 0.57545 0.07317364 -0.814557 0.7789906 -0.1144245 -0.616507 0.7786059 -0.1186427 -0.6161956 0.9126548 -0.1144197 -0.3923895 0.8635728 0.1232411 0.4889311 0.9618726 0.1167463 0.2473286 0.8642258 0.116748 0.4893709 -0.9934913 -0.004823446 0.113806 -0.9309243 0.02049982 0.3646364 -0.9935786 0.02050125 0.1112715 -0.9371305 0.01031041 0.348827 -0.9375798 0.03964364 0.3455036 -0.9954777 0.01031184 0.09443551 -0.2484921 -0.03877729 -0.9678575 -0.2417236 -0.0798 -0.9670583 0.0106166 -0.03877854 -0.9991915 0.1884316 0.1037895 -0.9765866 -0.06572067 0.06432479 -0.9957627 0.1947208 0.06431901 -0.9787476 0.9808815 -0.04050183 -0.1903449 0.9799245 -0.06845533 -0.1872481 0.9967122 -0.04050761 0.07017153 0.9791173 0.04423832 0.1984247 0.9981823 0.01463645 -0.05846369 0.9793072 0.01463335 0.2018499 0.4011006 -0.01577937 0.9158981 0.3968164 -0.04902827 0.9165878 0.1504045 -0.01578235 0.9884986 0.1277914 0.03139245 0.9913041 0.3758493 -0.003157615 0.9266754 0.1232561 -0.003154754 0.99237 -0.9934914 -0.004823863 0.1138063 -0.9309243 0.02049946 0.3646367 -0.9935786 0.02050089 0.1112716 -0.9371307 0.01031059 0.3488264 -0.93758 0.03964382 0.345503 -0.9954777 0.01031202 0.09443485 -0.2484921 -0.03877735 -0.9678575 -0.2417236 -0.0798 -0.9670583 0.0106166 -0.0387786 -0.9991915 0.1884316 0.1037895 -0.9765866 -0.06572067 0.06432479 -0.9957627 0.9808813 -0.04050183 -0.1903458 0.9799244 -0.06845539 -0.1872491 0.9967123 -0.04050761 0.07017052 0.9791173 0.04423993 0.1984248 0.9981823 0.01463806 -0.05846363 0.9793072 0.01463496 0.2018498 0.4011004 -0.01577877 0.9158982 0.3968161 -0.04902762 0.9165878 0.1504042 -0.01578176 0.9884986 0.1277917 0.03139233 0.9913041 0.3758496 -0.003157734 0.9266753 0.1232563 -0.003154873 0.9923698 -0.4146973 0.001235425 -0.9099587 -0.4121907 -0.01176285 -0.9110217 -0.3546668 0.001280367 -0.9349919 -0.3706212 -0.03078037 -0.928274 -0.4257063 -0.04750412 -0.9036136 -0.3660415 -0.04750335 -0.9293853 -0.2414793 0.1342454 -0.9610754 -0.3038794 0.135629 -0.9430069 -0.2413983 0.135629 -0.9609014 -0.2701049 0.06971138 -0.960304 -0.2630522 0.08968275 -0.9606043 -0.2069543 0.06962597 -0.97587 0.2805782 -0.02052813 -0.9596117 0.2303115 0.005490541 -0.9731016 0.2930832 0.005491852 -0.9560711 0.1767811 0.1541934 -0.9720972 0.20729 0.186338 -0.9603693 0.2403057 0.1542679 -0.9583604 0.3552117 -0.02660006 -0.9344073 0.3558875 -0.03384095 -0.9339159 0.4151799 -0.02663862 -0.9093492 0.4220878 0.009220123 -0.9065081 0.3639075 -0.001287698 -0.9314343 0.4236871 -0.001287817 -0.9058078 0.6940714 0.08888268 0.7143982 0.6927632 0.1057325 0.7133721 0.8452215 0.05564743 0.5315111 0.9311199 -0.1250227 0.342615 0.8267986 -0.08448594 0.5561173 0.9323825 -0.109245 0.3445699 0.9515976 0.06749784 -0.2998437 0.9509779 0.0823841 -0.2980841 0.8552545 0.04596877 -0.5161655 0.7952077 -0.03609889 -0.6052616 0.9159002 0.01850026 -0.4009796 0.795114 -0.01930457 -0.6061528 0 5.46567e-6 1 0 1.97103e-6 1 9.42948e-6 0 1 0 1.99122e-6 1 3.86398e-7 5.57951e-6 1 0 -6.3043e-6 1 0 -5.69914e-6 1 0 -0.08820915 0.996102 0.003457009 -0.05858105 0.9982767 -0.04487293 0.02164876 0.9987581 0.04003787 -0.01526969 0.9990815 -0.8977342 -0.06679725 -0.4354439 -0.767207 -0.1220207 -0.629686 -0.8985323 -0.07318979 -0.4327622 -0.955019 0.07900267 -0.2858273 -0.9542134 0.08332103 -0.2872884 -0.9934797 0.100243 -0.05431056 -0.9858268 -0.02557253 0.1658059 -0.9970643 9.89471e-4 -0.07656288 -0.9860377 -0.01642006 0.1657107 -0.8335641 0.02130103 0.552012 -0.8331924 0.03521043 0.5518612 -0.6782273 -0.007292807 0.734816 -0.6279258 -0.03720474 0.7773835 -0.7954708 0.006186783 0.6059604 -0.6280556 -0.02321177 0.7778223 0 -1 8.36709e-7 0 -1 1.99513e-6 0 -1 2.64211e-7 0 -1 -2.39701e-6 0 -1 2.13471e-6 0 -1 5.38676e-7 0 -1 -1.58302e-6 0 -1 -2.20671e-6 0 -1 8.70704e-7 0 -1 -3.15655e-6 0 -1 2.05813e-7 0 -1 -1.11149e-6 0 -1 -2.15575e-6 0 -1 3.23876e-6 0 -1 -6.45706e-6 -1.76423e-5 -8.20365e-6 1 1.76423e-5 8.20365e-6 1 1 0 0 -1 0 0 0 1 0 0.9278583 0.00427401 -0.3729085 0.9298821 0 -0.3678579 -0.923893 0 -0.382651 -0.9314308 0.01567316 -0.363581 0.9983544 0.001820147 0.05731618 0.9999824 -0.005825996 0.001109659 6.336e-6 -0.9999898 -0.004535257 0 -0.9999897 -0.004544913 0 0.8933063 0.4494485 0.013327 0.8925103 0.4508301 -0.006214261 0.8928989 0.4502145 0 0.8925896 0.45087 -4.8977e-5 0 -1 2.44885e-5 0 -1 0 -0.7351108 0.6779471 -0.006771981 -0.7733414 0.6339538 -3.78535e-4 0.9999997 -8.04274e-4 0 1 -1.88796e-4 0 0.9927326 0.1203415 -2.82286e-5 0.9913231 0.1314479 0 1 -5.64938e-7 0 1 -1.24575e-6 0 1 -1.7188e-6 0 1 2.40765e-6 0 1 6.52323e-7 0 1 -1.9363e-6 0 1 1.33962e-6 -0.9979134 0.005103588 0.06436479 -0.9999944 -0.003288388 6.26369e-4 0 -1 8.85704e-7 0 -1 -5.50373e-7 0 -1 -1.15158e-6 0 -1 1.19633e-6 0 -1 1.28092e-6 0 -1 -4.10765e-7 0 -1 6.86792e-7 -0.973603 0.03128594 0.2260943 -0.9700779 0.07221406 0.2318062 -0.8818761 0.03129225 0.4704419 -0.849873 -0.07222008 0.5220155 -0.9562262 -0.03129863 0.2909502 -0.8483271 -0.0312922 0.5285472 -0.5284318 0.03129243 0.8483989 -0.521904 0.07219094 0.8499439 -0.2908213 0.03129768 0.9562654 -0.2319753 -0.07216084 0.9700414 -0.4705998 -0.03128129 0.8817921 -0.2262691 -0.03127634 0.9735626 0.2262676 0.0312761 0.973563 0.2319739 0.07216084 0.9700417 0.4705985 0.03128111 0.8817929 0.521936 -0.07220512 0.8499231 0.2908565 -0.0313124 0.9562543 0.5284636 -0.03130692 0.8483785 0.8926295 0.0387333 0.449124 0.8946716 0.09435886 0.4366453 0.9784843 0.03874021 0.202652 0.9701471 0.005875349 0.2424461 0.8800714 0.06917178 0.4697764 0.9717898 0.06917369 0.2254768 0.7899982 -0.1139502 -0.6024271 0.9137254 -0.1488357 -0.3780923 0.7829803 -0.1488286 -0.60398 0.7859684 0.1488375 -0.6000843 0.7862846 0.1139971 -0.6072573 0.6015928 0.1488389 -0.7848142 -0.0103116 -0.08014124 -0.9967302 -0.03027451 -0.0119394 -0.9994703 -0.2686942 -0.0801388 -0.9598861 -0.2346712 -0.1126981 -0.9655199 0.009155571 -0.05212038 -0.9985989 -0.2499044 -0.05211484 -0.966867 -0.8210689 0.0438506 -0.5691423 -0.8234462 0.09237354 -0.5598247 -0.9404468 0.04385673 -0.3371002 -0.9572204 -0.08380293 -0.2769589 -0.8600882 -0.0349428 -0.5089475 -0.962535 -0.03493648 -0.2688973 -0.1085244 0.143615 -0.9836652 -0.1135625 0.1435075 -0.983112 -0.1085193 -0.1173597 -0.9871425 0.09103733 -0.7320559 -0.6751344 0.08196383 -0.5322767 -0.8425933 0.08196568 -0.7327814 -0.6755095 -0.1039432 -0.9745501 -0.1986147 -0.1225752 -0.9726846 -0.1971294 -0.1039429 -0.9926643 0.06175291 0.1407795 -0.7773299 0.6131389 0.1229822 -0.9121072 0.3910701 0.1229829 -0.7786086 0.6153405 -0.1229654 -0.1436066 0.9819657 -0.1407619 -0.142338 0.9797582 -0.1229648 0.1173675 0.9854463 0.1550832 0.7280309 0.6677725 0.1406795 0.5298368 0.8363506 0.1406843 0.72998 0.6688327 -0.1285448 0.9716624 0.1983649 -0.1343206 0.9709179 0.1981828 -0.1285391 0.9897673 -0.06195539 0.1343175 0.5463626 -0.8267084 0.1285348 0.7436776 -0.656066 0.1285395 0.5467602 -0.8273639 -0.1085239 0.1436149 -0.9836653 -0.1135621 0.1435074 -0.9831121 -0.1085188 -0.1173598 -0.9871426 0.09104013 -0.7320881 -0.6750991 0.08196437 -0.5323172 -0.8425678 0.08196508 -0.7328139 -0.6754744 -0.1039438 -0.9745597 -0.1985678 -0.1225691 -0.9726948 -0.197083 -0.1039429 -0.9926644 0.06175291 0.1407792 -0.7773277 0.613142 0.122982 -0.9121058 0.3910735 0.1229826 -0.7786064 0.6153433 -0.1229659 -0.1436065 0.9819657 -0.1407623 -0.1423379 0.9797581 -0.1229653 0.1173676 0.9854463 0.1550832 0.7280308 0.6677727 0.1406795 0.5298366 0.8363507 0.1406843 0.7299798 0.6688329 -0.1285439 0.9716528 0.1984119 -0.1343218 0.9709082 0.1982297 -0.128539 0.9897673 -0.06195539 0.1343179 0.5463647 -0.8267069 0.1285352 0.7436792 -0.656064 0.12854 0.5467624 -0.8273624 0.9999957 0.001366376 -0.002598404 0.999997 0.002471566 -2.0808e-4 0.9999976 0.002210497 1.53794e-4 0.999987 -6.8235e-5 0.005114078 0.999998 0.001224756 0.0016222 1 6.89267e-7 0 -0.92982 0.3667966 0.02991777 -0.9756781 0.218864 0.01228654 -0.929436 0.368779 0.01228344 -0.9999969 0.001224756 -0.002187073 -1 0 0 -0.9999964 0.001366436 0.002365112 -0.9999971 0.001546502 0.001847624 -0.9999967 0.002567172 2.06603e-4 -0.9999977 0.001426517 -0.001639842 0.7407957 0.6716663 0.009280323 0.6882828 0.7241688 -0.04296946 -0.7270941 0.6864611 -0.01026535 -0.7318305 0.6813252 -0.01483529 -0.001571238 0.9999982 0.001141011 -7.3186e-4 0.9962254 -0.08680123 0.001100301 0.9999992 6.9717e-4 0 1 -9.90758e-7 0 1 1.27611e-6 0 1 -3.18017e-6 8.19673e-4 0.9999993 8.89668e-4 -6.16722e-4 0.9999998 2.47179e-4 8.42436e-4 0.9999997 2.17746e-4 8.64155e-4 0.9999997 3.19579e-4 7.19293e-4 0.9999991 -0.001140415 -0.001421451 0.9999981 0.001374065 0 1 2.4954e-6 0 1 -3.13998e-7 0 1 1.37393e-6 -5.2586e-4 0.9999999 -2.89537e-4 -0.00189197 0.9999977 9.84884e-4 0 1 -1.42541e-6 2.31839e-6 0 1 5.90001e-6 0 1 0.003245294 0.1410712 0.9899942 0.009785234 0.1685379 0.9856466 -1 -8.04272e-7 0 -1 7.11298e-7 0 -1 -3.70287e-7 0 1 0 0 1 0 0 1 -1.51371e-7 0 1 0 0 1 0 0 1 0 0 1 1.5137e-7 0 1 -1.54422e-7 0 0.1156587 -0.08320015 -0.9897984 0.1177102 -0.1093899 -0.9870047 0.3686928 -0.08320325 -0.9258202 0.5696755 0.04805833 -0.8204635 0.3420435 0.01562267 -0.9395543 0.5735443 0.01562666 -0.8190256 0.9390372 0.01292318 0.3435728 0.9951946 0.03645062 0.09088039 0.9377213 0.03645527 0.3454706 0.9266652 -0.09999978 0.3623422 0.9273759 -0.0897991 0.3631944 0.8005878 -0.09999436 0.5908133 -0.201542 0.06861191 0.9770739 0.05874693 0.072052 0.9956694 -0.2015684 0.07205849 0.9768202 -0.4176704 -0.07432252 0.9055538 -0.4176408 -0.07511013 0.9055024 -0.6383301 -0.07431846 0.7661669 -0.9825907 0.06786412 0.1729453 -0.9043799 0.06407606 0.4218903 -0.9828414 0.06407499 0.1729663 -0.9729986 -0.07350921 -0.2187922 -0.9723394 -0.08168363 -0.2188239 -0.8829118 -0.07351005 -0.4637491 -0.5065038 0.0717839 -0.8592445 -0.7122159 0.06185972 -0.6992296 -0.5065878 0.06185615 -0.8599668 -0.3450788 -0.05969274 -0.9366736 -0.3450627 -0.05523705 -0.9369528 -0.09047967 -0.05968499 -0.9941083 0.6088219 0.05444091 -0.7914367 0.3829153 0.05497211 -0.9221464 0.6088081 0.05497193 -0.7914107 0.8172997 -0.06407445 -0.5726392 0.8171076 -0.06786221 -0.5724771 0.9378268 -0.06407481 -0.3411384 0.9664674 0.0595082 0.2497991 0.9984262 0.0553267 -0.009166359 0.9666913 0.05532604 0.2498939 0.8602558 -0.05532205 0.5068525 0.8600308 -0.05950099 0.5067611 0.6995466 -0.05532246 0.7124423 0.1729551 0.06786304 0.9825891 0.4218996 0.0640785 0.9043754 0.1729761 0.06407809 0.9828394 -0.1729448 -0.06407558 0.9828451 -0.1729227 -0.06785976 0.982595 -0.4218705 -0.06407624 0.9043891 -0.9258359 0.08310657 0.3686751 -0.7983167 0.08406847 0.5963414 -0.9257656 0.08407402 0.3686322 -0.9771178 -0.06747245 0.2017131 -0.9778117 -0.057666 0.2013923 -0.9959991 -0.06746703 -0.05859988 -0.4088442 0.04318362 -0.911582 -0.6305511 0.05183953 -0.7744147 -0.40836 0.05184501 -0.9113475 -0.3453585 0.03597843 -0.9377809 -0.3411458 0.06822288 -0.9375314 -0.09076136 0.03597998 -0.9952226 0.8171503 -0.0666157 -0.5725625 0.8167039 -0.08870625 -0.5701981 0.9376773 -0.06662112 -0.3410616 0.9901797 0.1032503 0.09425276 0.982491 0.08568459 -0.1654382 0.9917451 0.08568334 0.09539443 0.8602561 -0.05532103 0.5068521 0.8600311 -0.05949997 0.5067608 0.699547 -0.05532145 0.712442 0.1729551 0.06786298 0.9825891 0.1729762 0.06407809 0.9828394 -0.1729446 -0.06407541 0.9828452 -0.1729225 -0.06785959 0.982595 -0.4218704 -0.06407606 0.9043892 -0.9258358 0.08310699 0.3686749 -0.7983167 0.08406889 0.5963414 -0.9257655 0.08407449 0.3686322 -0.977118 -0.06747287 0.2017126 -0.9778119 -0.05766642 0.2013918 -0.995999 -0.06746745 -0.05860036 -0.1635735 0.06032043 -0.9846853 -0.4120173 0.07627272 -0.9079781 -0.1622747 0.0762754 -0.9837931 -0.1838461 0.01210653 0.9828805 -0.184347 0.006470918 0.98284 -0.2473089 0.01216977 0.9688603 -0.2861101 0.08652889 0.9542819 -0.2233787 0.08406043 0.9711003 -0.2862547 0.08405911 0.9544593 -0.3489924 -0.04414916 0.9360851 -0.3496294 -0.05141538 0.9354763 -0.4091632 -0.04418158 0.9113911 -0.4220869 0.009222567 0.9065085 -0.3639512 -0.001285433 0.9314171 -0.4236863 -0.001285552 0.9058082 0.4147002 0.001233398 0.9099574 0.4121935 -0.01176494 0.9110204 0.3547146 0.001278281 0.9349738 0.3611741 0.005932867 0.9324795 0.4173233 -0.009805977 0.9087052 0.357366 -0.009804964 0.9339131 0.2106435 0.1659867 0.9633679 0.2087168 0.154017 0.9657723 0.1467308 0.1658807 0.9751686 0.2318375 -0.02588415 0.9724102 0.293342 -0.03454124 0.9553834 0.2306243 -0.03454154 0.9724296 0.6605005 0.06069183 0.7483686 0.6594228 0.07068258 0.7484421 0.8211113 0.04750239 0.5687882 0.9481645 -0.1216967 0.293554 0.8505602 -0.1268402 0.5103518 0.9482885 -0.1150731 0.2958164 0.9960326 0.08814173 0.01225477 0.9962355 0.08592951 0.01145249 0.9667803 0.1224076 -0.2243933 0.8026524 -0.08712983 -0.590049 0.7996773 -0.06659054 -0.5967262 0.636736 -0.1589766 -0.7545155 0.6912336 -0.04685789 -0.7211106 0.8418644 0.01108658 -0.5395753 0.6912947 -0.02847611 -0.7220116 1.81245e-5 0 -1 -7.7279e-7 0 -1 0 -0.05111861 -0.9986926 1.74213e-4 -0.05258029 -0.9986167 0.04487293 0.02164852 -0.9987581 -0.08436882 0.09140515 -0.9922333 -0.7928132 -0.07220578 -0.6051724 -0.6255375 -0.1208486 -0.770778 -0.7937322 -0.07704901 -0.6033677 -0.9004595 0.1012099 -0.4230003 -0.898676 0.108485 -0.4249852 -0.972987 0.1140001 -0.2007493 -0.9991297 -0.03749585 0.01827681 -0.9751552 -0.001801848 -0.221516 -0.999511 -0.025451 0.01817071 -0.8555849 0.02704989 0.5169554 -0.8552215 0.04047042 0.5166803 -0.7079532 1.72548e-4 0.7062594 -0.6612349 -0.02872473 0.7496289 -0.8209918 0.01474827 0.5707497 -0.6612024 -0.01498806 0.7500578 0 -1 1.36482e-6 0 -1 -1.56999e-7 0 -1 -9.1167e-6 0 -1 1.10822e-6 0 -1 -8.83763e-7 0 -1 -2.27195e-6 0 -1 -7.10044e-7 0 -1 5.43949e-7 0 -1 1.57844e-6 0 -1 -4.7813e-6 0 -1 -4.85e-7 0 -1 1.81809e-6 0 -1 5.24609e-6 0 -1 -4.61936e-7 0 -1 4.41092e-7 0 -1 -1.8661e-6 0 -1 3.60417e-6 0 -1 -2.98805e-6 0 -1 0</float_array>
          <technique_common>
            <accessor source="#edf_torsional_500_top-mesh-normals-array" count="670" stride="3">
              <param name="X" type="float"/>
              <param name="Y" type="float"/>
              <param name="Z" type="float"/>
            </accessor>
          </technique_common>
        </source>
        <source id="edf_torsional_500_top-mesh-map-0">
          <float_array id="edf_torsional_500_top-mesh-map-0-array" count="3396">0 1.762219 -1.244173 1.762219 0 0 0 0 -1.244173 1.762219 -1.244173 0 0 1.762219 -2.6 1.762219 0 0 0 0 -2.6 1.762219 -2.6 0 0 1.762219 -1.244173 1.762219 0 0 0 0 -1.244173 1.762219 -1.244173 0 0 1.762219 -2.6 1.762219 0 0 0 0 -2.6 1.762219 -2.6 0 -0.627366 -0.95 -0.375 -0.75 -0.5821946 0.812166 1.725 -0.75 1.725 -0.35 -0.375 -0.75 -0.375 -0.75 1.725 -0.35 -0.5821946 0.812166 1.997603 2.6 0.75 2.1 2.028071 0 2.028071 0 0.75 2.1 0.75 0.5 0.75 2.1 -1.85 2.1 0.75 0.5 0.75 0.5 -1.85 2.1 -1.85 0.5 -0.93 0 0 0 -0.93 2.4 -0.93 2.4 0 0 0 2.4 -0.93 0 0 0 -0.93 2.4 -0.93 2.4 0 0 0 2.4 -0.93 0 0 0 -0.93 2.4 -0.93 2.4 0 0 0 2.4 -0.93 0 0 0 -0.93 2.4 -0.93 2.4 0 0 0 2.4 -0.465 -0.465 0.465 -0.465 -0.465 0.465 -0.465 0.465 0.465 -0.465 0.465 0.465 0 0 2.576773 0 0 0.3 0 0.3 2.576773 0 2.576773 0.3 1.15 -0.580896 1.15 0.580896 -1.15 -0.580896 0 0 2.576773 0 0 0.3 0 0.3 2.576773 0 2.576773 0.3 -1.15 -0.580896 1.15 -0.580896 -1.15 0.580896 0.8 0.562219 0.465 -0.702781 0.8 -1.2 0.8 -1.2 0.465 -0.702781 -0.465 -0.702781 0.8 -1.2 -0.465 -0.702781 -0.8 -1.2 -0.8 -1.2 -0.465 -0.702781 -0.8 0.562219 -0.8 0.562219 -0.465 -0.702781 -0.465 0.227219 -0.8 0.562219 -0.465 0.227219 0.465 0.227219 0.465 -0.702781 0.8 0.562219 0.465 0.227219 0.465 0.227219 0.8 0.562219 -0.8 0.562219 -1.95 -0.141421 0.65 -0.141421 -1.95 0.141421 -1.95 0.141421 0.65 -0.141421 0.65 0.141421 1.299122 2.1 0.00715667 2.6 0.009597659 0 1.299122 2.1 0.009597659 0 1.299122 0.5 1.299122 0.5 3.899122 0.5 1.299122 2.1 1.299122 2.1 3.899122 0.5 3.899122 2.1 0 2.3 1.161792 0.3 1.161792 2.3 1.161792 2.3 1.161792 0.3 1.162136 0 1.161792 2.3 1.162136 0 1.162163 2.6 0 2.3 0 0.3 1.161792 0.3 0.4 -0.07499998 -0.7330265 0.4113212 -1.9 -0.07499998 -1.9 -0.07499998 -0.7330265 0.4113212 -1.136686 0.6033489 0.4 1.925 -0.3373575 1.189242 0.4 -0.07499998 0.4 -0.07499998 -0.3373575 1.189242 -0.3392264 0.6347406 -1.9 1.925 -0.8352184 1.420705 0.4 1.925 0.4 1.925 -0.8352184 1.420705 -0.3373575 1.189242 -1.9 -0.07499998 -1.221901 1.099054 -1.9 1.925 0.4 -0.07499998 -0.3392264 0.6347406 -0.7330265 0.4113212 -1.136686 0.6033489 -1.221901 1.099054 -1.9 -0.07499998 -1.9 1.925 -1.221901 1.099054 -0.8352184 1.420705 -0.116184 -0.55 0.1057141 -0.75 0.09346443 1.012141 0.09346443 1.012141 -2.216184 -0.15 -0.116184 -0.55 -0.116184 -0.55 -2.216184 -0.15 -2.216184 -0.55 1.932369 -1.3 2.390587 -0.1493468 1.932369 1.3 1.932369 1.3 2.390587 -0.1493468 2.471595 0.2902588 4.032369 -1.3 2.708315 -0.4719014 1.932369 -1.3 4.032369 1.3 3.349343 0.1484375 4.032369 -1.3 4.032369 -1.3 3.349343 0.1484375 3.20402 -0.3866863 1.932369 1.3 2.928354 0.5008702 4.032369 1.3 2.928354 0.5008702 3.349343 0.1484375 4.032369 1.3 3.20402 -0.3866863 2.708315 -0.4719014 4.032369 -1.3 1.932369 -1.3 2.708315 -0.4719014 2.390587 -0.1493468 1.932369 1.3 2.471595 0.2902588 2.928354 0.5008702 0.4 1.558066 0 1.59726 0 1.147877 0.4 1.558066 0 1.147877 0.4 0.9856618 0.4 0.9856618 0 1.147877 0 0.5262281 0.4 0.9856618 0 0.5262281 0.4 0.3640125 0.4 0.3640125 0 0.5262281 0 -0.0891267 0.4 0.3640125 0 -0.0891267 0.4 -0.1857652 0.4 -0.1857652 0 -0.0891267 0 -0.6389029 0.4 -0.1857652 0 -0.6389029 0.4 -0.6700525 0.4 -0.6700525 0 -0.6389029 0.4 -1.147876 0.4 -1.147876 0 -0.6389029 0 -1.188681 0.4 -1.147876 0 -1.188681 0.4 -1.568091 0.4 -1.568091 0 -1.188681 0 -1.593136 -1.3 0.4 -1.3 0 -1 0.4 -1 0.4 -1.3 0 1.3 0 -1 0.4 1.3 0 1 0.4 1 0.4 1.3 0 1.3 0.4 0.93 0.469291 1.365 0.4167827 1.365 0.518363 0.93 -0.4790053 1.365 -0.4256831 0.93 -0.2465175 0.93 -0.2465175 1.365 -0.4256831 1.365 -0.1403557 0.93 -0.2465175 1.365 -0.1403557 0.93 -0.007691085 0.93 -0.007691085 1.365 -0.1403557 1.365 0.17882 0.93 -0.007691085 1.365 0.17882 0.9300001 0.2533453 0.9300001 0.2533453 1.365 0.17882 1.365 0.4167827 0.9300001 0.2533453 1.365 0.4167827 0.93 0.469291 -0.435 0.469291 0 0.4167827 0 0.518363 -0.435 -0.4790053 0 -0.4256831 -0.435 -0.2465175 -0.435 -0.2465175 0 -0.4256831 0 -0.1403557 -0.435 -0.2465175 0 -0.1403557 -0.435 -0.007691085 -0.435 -0.007691085 0 -0.1403557 0 0.17882 -0.435 -0.007691085 0 0.17882 -0.435 0.2533453 -0.435 0.2533453 0 0.17882 0 0.4167827 -0.435 0.2533453 0 0.4167827 -0.435 0.469291 0.6999999 0.2514021 -0.5 0.1920064 0.7 -0.5006254 0.7 -0.5006254 -0.5 0.1920064 -0.5 -0.5193926 2.487281 -0.1483187 1.504163 -0.6 3.265 -0.6 2.487281 -0.1483187 3.265 -0.6 2.643537 0.005184769 2.643537 0.005184769 3.265 -0.6 3.265 0.6 2.643537 0.005184769 3.265 0.6 2.492714 0.1535104 2.492714 0.1535104 3.265 0.6 1.504163 0.6 2.492714 0.1535104 1.504163 0.6 2.351482 0.01117777 2.351482 0.01117777 1.504163 0.6 1.504163 -0.6 2.351482 0.01117777 1.504163 -0.6 2.487281 -0.1483187 0.5 0.2513964 -0.7 0.1920003 0.5 -0.5006331 0.5 -0.5006331 -0.7 0.1920003 -0.6999999 -0.5194012 0.6737748 -0.1291018 0 -0.6 0.8471895 -0.1303619 0.8471895 -0.1303619 0 -0.6 1.760837 -0.6 0.8471895 -0.1303619 1.760837 -0.6 0.8676156 0.09062707 0.8676156 0.09062707 1.760837 -0.6 1.760837 0.6 0.8676156 0.09062707 1.760837 0.6 0 0.6 0.8676156 0.09062707 0 0.6 0.6382834 0.06708258 0.6382834 0.06708258 0 0.6 0 -0.6 0.6382834 0.06708258 0 -0.6 0.6737748 -0.1291018 0.4 -0.138478 -0.8 -0.138478 0.4 -0.565685 0.4 -0.565685 -0.8 -0.138478 -0.8 -0.565685 0.8 -0.138478 -0.4 -0.138478 0.8 -0.565685 0.8 -0.565685 -0.4 -0.138478 -0.4 -0.565685 1 1.7 0.5097749 2.201248 -0.2145641 1.67622 -0.2145641 1.67622 0.5097749 2.201248 0.3060131 2.166987 0.9366703 2.529959 0.5097749 2.201248 1 1.7 0.5097749 2.201248 0.9366703 2.529959 0.4752804 2.859986 0.5097749 2.201248 0.4752804 2.859986 0.4864822 2.426761 0.4864822 2.426761 0.4752804 2.859986 0.2692575 2.369322 0.2692575 2.369322 0.4752804 2.859986 -0.07518577 2.638158 0.2692575 2.369322 -0.07518577 2.638158 -0.2145641 1.67622 0.2692575 2.369322 -0.2145641 1.67622 0.3060131 2.166987 -0.2145641 1.67622 -0.4492732 0.1448254 -0.345013 -0.03397518 -0.9764255 0.003468215 -0.6404895 0.07398319 -0.2145641 1.67622 -0.6404895 0.07398319 -0.9764255 0.003468215 -0.5479674 -0.1326449 -0.5479674 -0.1326449 -0.9764255 0.003468215 -0.187633 -1.717064 -0.5479674 -0.1326449 -0.187633 -1.717064 -0.345013 -0.03397518 -0.345013 -0.03397518 -0.187633 -1.717064 -0.2145641 1.67622 -0.187633 -1.717064 0.01358795 -2.702274 0.2693399 -2.23039 0.2693399 -2.23039 0.01358795 -2.702274 0.3060132 -2.433013 0.3060132 -2.433013 0.01358795 -2.702274 0.5097751 -2.398751 0.5097751 -2.398751 0.01358795 -2.702274 0.5788516 -2.859694 0.5097751 -2.398751 0.5788516 -2.859694 0.9271858 -2.546847 0.5097751 -2.398751 0.9271858 -2.546847 0.4864822 -2.173239 0.4864822 -2.173239 0.9271858 -2.546847 1 -1.7 0.4864822 -2.173239 1 -1.7 -0.187633 -1.717064 0.4864822 -2.173239 -0.187633 -1.717064 0.2693399 -2.23039 -0.6404895 0.07398319 -0.4492732 0.1448254 -0.2145641 1.67622 -0.465 0.4025 0.9130858 -0.2946066 0.465 0.4025 0.465 0.4025 0.9130858 -0.2946066 0.9 1.6325 0.465 0.4025 0.9 1.6325 0.465 1.3325 0.465 1.3325 0.9 1.6325 -0.9 1.6325 0.465 1.3325 -0.9 1.6325 -0.465 1.3325 -0.465 1.3325 -0.9 1.6325 -0.465 0.4025 -0.465 0.4025 -0.9 1.6325 -0.9116154 -0.2759242 -0.465 0.4025 -0.9116154 -0.2759242 0.9130858 -0.2946066 0.9130858 -0.2946066 -0.9116154 -0.2759242 1.160167 -0.9925264 1.160167 -0.9925264 -0.9116154 -0.2759242 -1.130912 -0.9415867 1.160167 -0.9925264 -1.130912 -0.9415867 1.7 -1.6325 1.7 -1.6325 -1.130912 -0.9415867 -1.7 -1.6325 0.3737748 -0.1291018 0 -0.6 0.5471895 -0.1303619 0.5471895 -0.1303619 0 -0.6 0.93 -0.6 0.5471895 -0.1303619 0.93 -0.6 0.5676156 0.09062707 0.5676156 0.09062707 0.93 -0.6 0.93 0.6 0.5676156 0.09062707 0.93 0.6 0 0.6 0.5676156 0.09062707 0 0.6 0.3382834 0.06708258 0.3382834 0.06708258 0 0.6 0 -0.6 0.3382834 0.06708258 0 -0.6 0.3737748 -0.1291018 0.93 0.6 0 0.6 0.93 -0.6 0.93 -0.6 0 0.6 0 -0.6 0.4522813 -0.1483187 0 -0.6 0.93 -0.6 0.4522813 -0.1483187 0.93 -0.6 0.6085367 0.005184769 0.6085367 0.005184769 0.93 -0.6 0.93 0.6 0.6085367 0.005184769 0.93 0.6 0.4577143 0.1535104 0.4577143 0.1535104 0.93 0.6 0 0.6 0.4577143 0.1535104 0 0.6 0.316482 0.01117777 0.316482 0.01117777 0 0.6 0 -0.6 0.316482 0.01117777 0 -0.6 0.4522813 -0.1483187 0.93 0.6 0 0.6 0.93 -0.6 0.93 -0.6 0 0.6 0 -0.6 1.8 0.6 0 0.6 1.8 -0.6 1.8 -0.6 0 0.6 0 -0.6 0.5 -0.3262066 0 -0.4515296 0.5 -0.534071 0.5 0.4515295 0 0.534071 0 0.3262066 0.5 0.4515295 0 0.3262066 0.5 0.2094841 0.5 0.2094841 0 0.3262066 0 0.03687596 0.5 0.2094841 0 0.03687596 0.5 -0.03687626 0.5 -0.03687626 0 0.03687596 0 -0.2094838 0.5 -0.03687626 0 -0.2094838 0.5 -0.3262066 0.5 -0.3262066 0 -0.2094838 0 -0.4515296 0.5 0.4409118 0 0.4498614 0 0.1481796 0.5 0.4409118 0 0.1481796 0.5 0.1649778 0.5 0.1649778 0 0.1481796 0.5 -0.1247636 0.5 -0.1247636 0 0.1481796 0 -0.1649778 0.5 -0.1247636 0 -0.1649778 0.5 -0.3716915 0.5 -0.3716915 0 -0.1649778 0 -0.3849016 0.5 -0.3716915 0 -0.3849016 0.5 -0.5172131 0.5 -0.5172131 0 -0.3849016 0 -0.5213404 0.5 0.4406182 0 0.4498615 0 0.1481795 0.5 0.4406182 0 0.1481795 0.5 0.1649777 0.5 0.1649777 0 0.1481795 0.5 -0.1247636 0.5 -0.1247636 0 0.1481795 0 -0.1649778 0.5 -0.1247636 0 -0.1649778 0.5 -0.3716914 0.5 -0.3716914 0 -0.1649778 0 -0.3849016 0.5 -0.3716914 0 -0.3849016 0.5 -0.517213 0.5 -0.517213 0 -0.3849016 0 -0.5213404 0.5 2.238452 0 2.238452 0.5 1.189579 0.5 1.189579 0 2.238452 0 1.349582 0.5 1.189579 0 1.349582 0 5.89059e-4 0.5 1.189579 0 5.89059e-4 0.5 0 0.5 2.237863 0 2.238452 0 1.048859 0.5 2.237863 0 1.048859 0.5 0.8888556 0.5 0.8888556 0 1.048859 0.5 0 0.5 0 0 1.048859 0 0 -0.5 0.2428289 0 0.3102541 -0.5 0.862713 -0.5 0.862713 0 0.3102541 0 0.9796553 -0.5 0.862713 0 0.9796553 -0.5 1.513381 -0.5 1.513381 0 0.9796553 0 1.53142 1.835 2.535 3.213087 1.837886 2.765 2.535 2.765 2.535 3.213087 1.837886 3.2 3.765 2.765 2.535 3.2 3.765 2.765 3.465 2.765 3.465 3.2 3.765 1.4 3.765 2.765 3.465 1.4 3.765 1.835 3.465 1.835 3.465 1.4 3.765 1.835 2.535 1.835 2.535 1.4 3.765 1.388385 1.856584 1.835 2.535 1.388385 1.856584 3.213087 1.837886 3.213087 1.837886 1.388385 1.856584 3.46017 1.139969 3.46017 1.139969 1.388385 1.856584 1.16909 1.190919 3.46017 1.139969 1.16909 1.190919 4 0.5 4 0.5 1.16909 1.190919 0.6 0.5 4 0.5 0.6 0.5 4.6 0 4.6 0 0.6 0.5 0 -0.2291925 0 -0.2291925 0.6 0.5 0 0.5 4.6 0 4.6 0.5 4 0.5 -0.5 -1.400737 0 -1.513381 0 -1.091895 -0.5 -1.400737 0 -1.091895 -0.5 -0.7566797 -0.5 -0.7566797 0 -1.091895 0 -0.7184459 -0.5 -0.7566797 0 -0.7184459 -0.5 -0.2626108 -0.5 -0.2626108 0 -0.7184459 0 -0.2291925 0.07518559 -2.638159 -0.2611061 -2.234941 -0.2532625 -2.877272 -0.2532625 -2.877272 -0.2611061 -2.234941 -0.2958492 -2.425216 -0.2958492 -2.425216 -0.4864823 -2.426761 -0.2532625 -2.877272 -0.2532625 -2.877272 -0.4864823 -2.426761 -0.614955 -2.848247 -0.614955 -2.848247 -0.4864823 -2.426761 -0.4908948 -2.192137 -0.614955 -2.848247 -0.4908948 -2.192137 -0.9402645 -2.517057 -0.9402645 -2.517057 -0.4908948 -2.192137 -0.4864824 2.173238 -0.4864824 2.173238 -0.4908948 -2.192137 0.345013 0.03397494 0.345013 0.03397494 -0.4908948 -2.192137 -0.2611061 -2.234941 0.345013 0.03397494 -0.2611061 -2.234941 0.07518559 -2.638159 -0.2611062 2.365059 0.08553504 2.624516 -0.3639919 2.87669 -0.2611062 2.365059 -0.3639919 2.87669 -0.4908948 2.407863 -0.4908948 2.407863 -0.3639919 2.87669 -0.8923245 2.579897 -0.2958492 2.174784 0.5100635 1.272177 -0.2611062 2.365059 -0.2611062 2.365059 0.5100635 1.272177 0.08553504 2.624516 0.5100635 1.272177 -0.2958492 2.174784 0.345013 0.03397494 0.345013 0.03397494 -0.2958492 2.174784 -0.4864824 2.173238 -0.9402645 -2.517057 -0.4864824 2.173238 -0.8923245 2.579897 -0.4864824 2.173238 -0.4908948 2.407863 -0.8923245 2.579897 0.6404896 -0.07398319 0.9764254 -0.003469049 0.5479674 0.1326451 0.5479674 0.1326451 0.9764254 -0.003469049 0.5100635 1.272177 0.5479674 0.1326451 0.5100635 1.272177 0.345013 0.03397494 0.9764254 -0.003469049 0.6404896 -0.07398319 0.5558902 -1.118914 0.6404896 -0.07398319 0.4492728 -0.1448252 0.5558902 -1.118914 0.5558902 -1.118914 0.4492728 -0.1448252 0.07518559 -2.638159 0.07518559 -2.638159 0.4492728 -0.1448252 0.345013 0.03397494 0.465 0.465 -0.465 0.465 0.465 -0.465 0.465 -0.465 -0.465 0.465 -0.465 -0.465 0 0 0.93 0 0.93 94.70001 0 0 0.93 94.70001 0 94.7 0 0 0.93 0 0 94.70001 0 94.70001 0.93 0 0.93 94.7 0 0 0.93 0 0.93 94.70001 0 0 0.93 94.70001 0 94.7 0 0 0.93 0 0 94.70001 0 94.70001 0.93 0 0.93 94.7 0.465 0.465 -0.465 0.465 0.465 -0.465 0.465 -0.465 -0.465 0.465 -0.465 -0.465 1.244173 1.762219 0 1.762219 1.244173 0 1.244173 0 0 1.762219 0 0 2.6 1.762219 0 1.762219 2.6 0 2.6 0 0 1.762219 0 0 1.244173 1.762219 0 1.762219 1.244173 0 1.244173 0 0 1.762219 0 0 2.6 1.762219 0 1.762219 2.6 0 2.6 0 0 1.762219 0 0 0.375 -0.75 0.5981402 -0.9500001 0.5873528 0.812131 0.5873528 0.812131 -1.725 -0.35 0.375 -0.75 0.375 -0.75 -1.725 -0.35 -1.725 -0.75 -0.75 2.1 -2.026829 2.6 -1.998882 0 -0.75 2.1 -1.998882 0 -0.75 0.5 -0.75 0.5 1.85 0.5 -0.75 2.1 -0.75 2.1 1.85 0.5 1.85 2.1 0 0 0.93 0 0 2.4 0 2.4 0.93 0 0.93 2.4 0 0 0.93 0 0 2.4 0 2.4 0.93 0 0.93 2.4 0 0 0.93 0 0 2.4 0 2.4 0.93 0 0.93 2.4 0 0 0.93 0 0 2.4 0 2.4 0.93 0 0.93 2.4 0.465 0.465 -0.465 0.465 0.465 -0.465 0.465 -0.465 -0.465 0.465 -0.465 -0.465 -2.576773 0 0 0 -2.576773 0.3 -2.576773 0.3 0 0 0 0.3 -1.15 0.580896 -1.15 -0.580896 1.15 -0.580896 -2.576773 0 0 0 -2.576773 0.3 -2.576773 0.3 0 0 0 0.3 -1.15 -0.580896 1.15 -0.580896 1.15 0.580896 -0.8 -1.2 -0.465 -0.702781 -0.8 0.562219 -0.8 0.562219 -0.465 -0.702781 -0.465 0.227219 -0.8 0.562219 -0.465 0.227219 0.465 0.227219 -0.8 -1.2 0.8 -1.2 -0.465 -0.702781 -0.465 -0.702781 0.8 -1.2 0.465 -0.702781 0.465 -0.702781 0.8 -1.2 0.8 0.562219 0.465 -0.702781 0.8 0.562219 0.465 0.227219 0.465 0.227219 0.8 0.562219 -0.8 0.562219 1.95 0.141421 -0.65 0.141421 1.95 -0.141421 1.95 -0.141421 -0.65 0.141421 -0.65 -0.141421 -0.01228606 2.6 -1.299122 2.1 -0.005488395 0 -0.005488395 0 -1.299122 2.1 -1.299122 0.5 -1.299122 2.1 -3.899122 2.1 -1.299122 0.5 -1.299122 0.5 -3.899122 2.1 -3.899122 0.5 0 2.3 -1.161792 2.3 0 0.3 0 0.3 -1.161792 2.3 -1.161792 0.3 -1.161792 0.3 -1.161792 2.3 -1.16217 0 -1.161792 2.3 -1.162124 2.6 -1.16217 0 1.9 -0.07499998 0.7684486 0.4126667 -0.4 -0.07499998 -0.4 -0.07499998 0.7684486 0.4126667 0.3633062 0.6033512 1.9 1.925 1.262335 0.9434496 1.9 -0.07499998 1.9 -0.07499998 1.262335 0.9434496 1.125324 0.5757774 -0.4 1.925 0.7330194 1.438679 1.9 1.925 1.9 1.925 0.7330194 1.438679 1.101213 1.300235 -0.4 -0.07499998 0.3161871 1.154638 -0.4 1.925 1.9 1.925 1.101213 1.300235 1.262335 0.9434496 1.9 -0.07499998 1.125324 0.5757774 0.7684486 0.4126667 0.3633062 0.6033512 0.3161871 1.154638 -0.4 -0.07499998 -0.4 1.925 0.3161871 1.154638 0.7330194 1.438679 -0.1349031 -0.75 0.116184 -0.55 -0.08933436 1.012172 2.216184 -0.55 2.216184 -0.15 0.116184 -0.55 0.116184 -0.55 2.216184 -0.15 -0.08933436 1.012172 -1.932369 1.3 -2.370033 0.0184496 -1.932369 -1.3 -1.932369 -1.3 -2.370033 0.0184496 -2.507045 -0.3492231 -4.032369 1.3 -2.89935 0.5136792 -1.932369 1.3 -1.932369 1.3 -2.89935 0.5136792 -2.531149 0.3752305 -4.032369 -1.3 -3.372465 -0.1504312 -4.032369 1.3 -4.032369 1.3 -3.372465 -0.1504312 -3.293146 0.2902615 -1.932369 -1.3 -2.986384 -0.4777897 -4.032369 -1.3 -1.932369 1.3 -2.531149 0.3752305 -2.370033 0.0184496 -1.932369 -1.3 -2.507045 -0.3492231 -2.986384 -0.4777897 -4.032369 -1.3 -2.986384 -0.4777897 -3.372465 -0.1504312 -4.032369 1.3 -3.293146 0.2902615 -2.89935 0.5136792 -0.4 -1.593142 0 -1.568099 -0.4 -1.254176 -0.4 -1.254176 0 -1.568099 0 -1.218333 -0.4 -1.254176 0 -1.218333 -0.4 -0.8433302 -0.4 -0.8433302 0 -1.218333 0 -0.8060059 -0.4 -0.8433302 0 -0.8060059 -0.4 -0.4310022 -0.4 -0.4310022 0 -0.8060059 0 -0.3951525 -0.4 -0.4310022 0 -0.3951525 -0.4 0.1129641 -0.4 0.1129641 0 -0.3951525 0 0.01717621 -0.4 0.1129641 0 0.01717621 0 0.5688969 -0.4 0.1129641 0 0.5688969 -0.4 0.6685516 -0.4 0.6685516 0 0.5688969 -0.4 1.147877 -0.4 1.147877 0 0.5688969 0 1.188674 -0.4 1.147877 0 1.188674 -0.4 1.597258 -0.4 1.597258 0 1.188674 0 1.610006 1.3 0.4 1 0.4 1.3 0 1.3 0 1 0.4 -1 0.4 1.3 0 -1 0.4 -1.3 0 -1.3 0 -1 0.4 -1.3 0.4 -0.93 0.518363 -1.365 0.4900977 -0.9300001 0.3950581 -0.9300001 0.3950581 -1.365 0.4900977 -1.365 0.296371 -0.9300001 0.3950581 -1.365 0.296371 -0.93 0.1382825 -0.93 0.1382825 -1.365 0.296371 -1.365 0.03716373 -0.93 0.1382825 -1.365 0.03716373 -0.9300001 -0.1218946 -0.9300001 -0.1218946 -1.365 0.03716373 -1.365 -0.2652154 -0.9300001 -0.1218946 -1.365 -0.2652154 -0.9300001 -0.3800829 -0.9300001 -0.3800829 -1.365 -0.2652154 -1.365 -0.4805617 0.435 0.518363 0 0.4900977 0.435 0.3950581 0.435 0.3950581 0 0.4900977 0 0.296371 0.435 0.3950581 0 0.296371 0.435 0.1382825 0.435 0.1382825 0 0.296371 0 0.03716373 0.435 0.1382825 0 0.03716373 0.435 -0.1218946 0.435 -0.1218946 0 0.03716373 0 -0.2652154 0.435 -0.1218946 0 -0.2652154 0.435 -0.3800829 0.435 -0.3800829 0 -0.2652154 0 -0.4805617 -0.7 -0.5193926 0.5 -0.5006254 -0.7 0.1920064 -0.7 0.1920064 0.5 -0.5006254 0.5 0.2514021 -2.604648 -0.1131294 -3.265 -0.6 -2.393317 -0.09562808 -2.393317 -0.09562808 -3.265 -0.6 -1.504163 -0.6 -2.393317 -0.09562808 -1.504163 -0.6 -1.504163 0.6 -2.393317 -0.09562808 -1.504163 0.6 -2.396609 0.113702 -2.396609 0.113702 -1.504163 0.6 -2.606686 0.09562736 -2.606686 0.09562736 -1.504163 0.6 -3.265 0.6 -2.606686 0.09562736 -3.265 0.6 -3.265 -0.6 -2.606686 0.09562736 -3.265 -0.6 -2.604648 -0.1131294 -0.5 -0.5194012 0.7 -0.5006331 -0.5 0.1920003 -0.5 0.1920003 0.7 -0.5006331 0.7 0.2513964 -0.759332 -0.1541594 -1.760837 -0.6 0 -0.6 -0.759332 -0.1541594 0 -0.6 -0.6146246 -0.03442668 -0.6146246 -0.03442668 0 -0.6 0 0.6 -0.6146246 -0.03442668 0 0.6 -0.7329995 0.13976 -0.7329995 0.13976 0 0.6 -1.760837 0.6 -0.7329995 0.13976 -1.760837 0.6 -0.9082811 -0.005263805 -0.9082811 -0.005263805 -1.760837 0.6 -1.760837 -0.6 -0.9082811 -0.005263805 -1.760837 -0.6 -0.759332 -0.1541594 0.8 -0.138478 -0.4 -0.138478 0.8 -0.565685 0.8 -0.565685 -0.4 -0.138478 -0.4 -0.565685 0.4 -0.138478 -0.8 -0.138478 0.4 -0.565685 0.4 -0.565685 -0.8 -0.138478 -0.8 -0.565685 0.1876885 1.717065 -0.4148892 2.137814 -1 1.7 0.2368453 -1.658798 0.3485382 -0.02650922 0.1876885 1.717065 -1 -1.7 -0.3102858 -2.174829 0.2368453 -1.658798 -0.8509697 -2.628551 -0.5516492 -2.347038 -1 -1.7 -1 -1.7 -0.5516492 -2.347038 -0.5041558 -2.174788 -0.5516492 -2.347038 -0.8509697 -2.628551 -0.4148892 -2.462186 -0.4148892 -2.462186 -0.8509697 -2.628551 -0.2656397 -2.861975 -0.4148892 -2.462186 -0.2656397 -2.861975 -0.2595096 -2.373976 -0.2595096 -2.373976 -0.2656397 -2.861975 0.1138324 -2.596185 -0.2595096 -2.373976 0.1138324 -2.596185 -0.3102858 -2.174829 -0.3102858 -2.174829 0.1138324 -2.596185 0.2368453 -1.658798 0.9764203 -0.003467738 0.5598798 -0.1277109 0.2368453 -1.658798 0.9764203 -0.003467738 0.6332135 0.08558684 0.5598798 -0.1277109 0.1876885 1.717065 0.6332135 0.08558684 0.9764203 -0.003467738 0.1876885 1.717065 0.4529726 0.1516534 0.6332135 0.08558684 0.1876885 1.717065 0.3485382 -0.02650922 0.4529726 0.1516534 -0.2248455 2.850626 -0.2595096 2.226024 0.1245443 2.573765 0.1245443 2.573765 -0.2595096 2.226024 0.1876885 1.717065 -0.2595096 2.226024 -0.2248455 2.850626 -0.3102859 2.425171 -0.3102859 2.425171 -0.2248455 2.850626 -0.5041557 2.425212 -0.5041557 2.425212 -0.2248455 2.850626 -0.6553742 2.838108 -0.5041557 2.425212 -0.6553742 2.838108 -0.5516492 2.252962 -0.5516492 2.252962 -0.6553742 2.838108 -0.9271848 2.546848 -0.5516492 2.252962 -0.9271848 2.546848 -1 1.7 -0.5516492 2.252962 -1 1.7 -0.4148892 2.137814 0.5598798 -0.1277109 0.3485382 -0.02650922 0.2368453 -1.658798 0.1876885 1.717065 -0.2595096 2.226024 -0.4148892 2.137814 -1 -1.7 -0.5041558 -2.174788 -0.3102858 -2.174829 -0.465 0.4025 0.9130864 -0.2946143 0.465 0.4025 0.465 0.4025 0.9130864 -0.2946143 0.9 1.6325 0.465 0.4025 0.9 1.6325 0.465 1.3325 0.465 1.3325 0.9 1.6325 -0.9 1.6325 0.465 1.3325 -0.9 1.6325 -0.465 1.3325 -0.465 1.3325 -0.9 1.6325 -0.465 0.4025 -0.465 0.4025 -0.9 1.6325 -0.9116147 -0.2759155 -0.465 0.4025 -0.9116147 -0.2759155 0.9130864 -0.2946143 0.9130864 -0.2946143 -0.9116147 -0.2759155 1.16017 -0.9925314 1.16017 -0.9925314 -0.9116147 -0.2759155 -1.130909 -0.9415814 1.16017 -0.9925314 -1.130909 -0.9415814 1.7 -1.6325 1.7 -1.6325 -1.130909 -0.9415814 -1.7 -1.6325 -0.4593319 -0.1541594 -0.93 -0.6 0 -0.6 -0.4593319 -0.1541594 0 -0.6 -0.3146246 -0.03442668 -0.3146246 -0.03442668 0 -0.6 0 0.6 -0.3146246 -0.03442668 0 0.6 -0.4329994 0.13976 -0.4329994 0.13976 0 0.6 -0.93 0.6 -0.4329994 0.13976 -0.93 0.6 -0.6082811 -0.005263805 -0.6082811 -0.005263805 -0.93 0.6 -0.93 -0.6 -0.6082811 -0.005263805 -0.93 -0.6 -0.4593319 -0.1541594 -0.93 -0.6 0 -0.6 -0.93 0.6 -0.93 0.6 0 -0.6 0 0.6 -0.5696479 -0.1131294 -0.93 -0.6 -0.3583171 -0.09562808 -0.3583171 -0.09562808 -0.93 -0.6 0 -0.6 -0.3583171 -0.09562808 0 -0.6 0 0.6 -0.3583171 -0.09562808 0 0.6 -0.3616089 0.113702 -0.3616089 0.113702 0 0.6 -0.5716856 0.09562736 -0.5716856 0.09562736 0 0.6 -0.93 0.6 -0.5716856 0.09562736 -0.93 0.6 -0.93 -0.6 -0.5716856 0.09562736 -0.93 -0.6 -0.5696479 -0.1131294 -0.93 -0.6 0 -0.6 -0.93 0.6 -0.93 0.6 0 -0.6 0 0.6 -1.8 -0.6 0 -0.6 -1.8 0.6 -1.8 0.6 0 -0.6 0 0.6 -0.5 -0.534071 0 -0.5077547 -0.5 -0.341386 -0.5 -0.341386 0 -0.5077547 0 -0.3495766 -0.5 -0.341386 0 -0.3495766 0 -0.1039597 -0.5 -0.341386 0 -0.1039597 -0.5 -0.02931779 -0.5 -0.02931779 0 -0.1039597 0 0.1178703 -0.5 -0.02931779 0 0.1178703 -0.5 0.2160578 -0.5 0.2160578 0 0.1178703 0 0.3194699 -0.5 0.2160578 0 0.3194699 -0.5 0.4371272 -0.5 0.4371272 0 0.3194699 0 0.5045117 -0.5 0.3728386 0 0.5213419 -0.5 0.534071 -0.5 -0.4515368 0 -0.507772 0 -0.3498626 -0.5 -0.4515368 0 -0.3498626 -0.5 -0.2513901 -0.5 -0.2513901 0 -0.3498626 0 -0.1491667 -0.5 -0.2513901 0 -0.1491667 -0.5 -0.05098885 -0.5 -0.05098885 0 -0.1491667 0 0.05098944 -0.5 -0.05098885 0 0.05098944 -0.5 0.1491626 -0.5 0.1491626 0 0.05098944 0 0.320297 -0.5 0.1491626 0 0.320297 -0.5 0.3728386 -0.5 0.3728386 0 0.320297 0 0.5213419 -0.5 0.3728387 0 0.5213419 -0.5 0.534071 -0.5 -0.451537 0 -0.4052986 -0.5 -0.2513901 -0.5 -0.2513901 0 -0.4052986 0 -0.1491667 -0.5 -0.2513901 0 -0.1491667 -0.5 -0.05098903 -0.5 -0.05098903 0 -0.1491667 0 0.05098932 -0.5 -0.05098903 0 0.05098932 -0.5 0.1491625 -0.5 0.1491625 0 0.05098932 0 0.3202972 -0.5 0.1491625 0 0.3202972 -0.5 0.3728387 -0.5 0.3728387 0 0.3202972 0 0.5213419 -0.5 0 0 0 -0.5 1.049299 -0.5 1.049299 0 0 0 1.189569 -0.5 1.049299 0 1.189569 -0.5 2.238452 -0.5 2.238452 0 1.189569 0 2.238452 -0.5 0 0 0 -0.5 1.049265 -0.5 1.049265 0 0 0 1.189534 -0.5 1.049265 0 1.189534 -0.5 2.238452 -0.5 2.238452 0 1.189534 0 2.238452 0.5 1.596445 0 1.500993 0.5 1.127028 0.5 1.127028 0 1.500993 0 0.8635496 0.5 1.127028 0 0.8635496 0.5 0.6765501 0.5 0.6765501 0 0.8635496 0.5 0.2626116 0.5 0.2626116 0 0.8635496 0 0.2291941 -2.765 2.535 -1.386914 1.837893 -1.835 2.535 -1.835 2.535 -1.386914 1.837893 -1.4 3.765 -1.835 2.535 -1.4 3.765 -1.835 3.465 -1.835 3.465 -1.4 3.765 -3.2 3.765 -1.835 3.465 -3.2 3.765 -2.765 3.465 -2.765 3.465 -3.2 3.765 -2.765 2.535 -2.765 2.535 -3.2 3.765 -3.211616 1.856576 -2.765 2.535 -3.211616 1.856576 -1.386914 1.837893 -1.386914 1.837893 -3.211616 1.856576 -1.139833 1.139974 -1.139833 1.139974 -3.211616 1.856576 -3.430912 1.190913 -1.139833 1.139974 -3.430912 1.190913 -0.6 0.5 -0.6 0.5 -3.430912 1.190913 -4 0.5 -0.6 0.5 -4 0.5 0 -0.239991 0 -0.239991 -4 0.5 -4.6 0 -4.6 0 -4 0.5 -4.6 0.5 0 -0.239991 0 0.5 -0.6 0.5 0.5 -0.3783031 0 -0.239991 0 -0.67655 0.5 -0.3783031 0 -0.67655 0.5 -1.083523 0.5 -1.083523 0 -0.67655 0 -1.127028 0.5 -1.083523 0 -1.127028 0.5 -1.571346 0.5 -1.571346 0 -1.127028 0 -1.596445 0.2935018 -2.393254 -0.1245443 -2.573765 0.2248454 -2.850627 0.2935018 -2.393254 0.2248454 -2.850627 0.5041527 -2.425214 0.5041527 -2.425214 0.2248454 -2.850627 0.6553742 -2.838108 0.5041527 -2.425214 0.6553742 -2.838108 0.551649 -2.252962 0.551649 -2.252962 0.6553742 -2.838108 0.9339946 -2.525758 0.3543077 -2.159595 -0.5100544 -1.272199 0.2935018 -2.393254 0.2935018 -2.393254 -0.5100544 -1.272199 -0.1245443 -2.573765 -0.5100544 -1.272199 0.3543077 -2.159595 -0.37406 -0.0880481 -0.37406 -0.0880481 0.3543077 -2.159595 0.3256365 2.159531 0.3256365 2.159531 0.3543077 -2.159595 0.5041527 2.174786 0.5041527 2.174786 0.3543077 -2.159595 0.551649 -2.252962 0.5041527 2.174786 0.551649 -2.252962 0.9339946 -2.525758 -0.06792336 2.648405 0.2341009 2.294021 0.4743438 2.860649 0.4743438 2.860649 0.2341009 2.294021 0.3543078 2.440406 0.4743438 2.860649 0.3543078 2.440406 0.551649 2.347038 0.4743438 2.860649 0.551649 2.347038 0.940265 2.517059 0.940265 2.517059 0.551649 2.347038 0.5041527 2.174786 -0.37406 -0.0880481 0.3256365 2.159531 -0.3747869 0.1041532 -0.3747869 0.1041532 0.3256365 2.159531 -0.4652675 1.405424 -0.4652675 1.405424 0.3256365 2.159531 0.2341009 2.294021 -0.4652675 1.405424 0.2341009 2.294021 -0.06792336 2.648405 -0.662185 0.01489257 -0.9764204 0.003466248 -0.5739832 -0.140489 -0.5739832 -0.140489 -0.9764204 0.003466248 -0.5100544 -1.272199 -0.5739832 -0.140489 -0.5100544 -1.272199 -0.37406 -0.0880481 -0.9764204 0.003466248 -0.662185 0.01489257 -0.4652675 1.405424 -0.4652675 1.405424 -0.662185 0.01489257 -0.5481891 0.1508244 -0.4652675 1.405424 -0.5481891 0.1508244 -0.3747869 0.1041532 0.9339946 -2.525758 0.940265 2.517059 0.5041527 2.174786</float_array>
          <technique_common>
            <accessor source="#edf_torsional_500_top-mesh-map-0-array" count="1698" stride="2">
              <param name="S" type="float"/>
              <param name="T" type="float"/>
            </accessor>
          </technique_common>
        </source>
        <vertices id="edf_torsional_500_top-mesh-vertices">
          <input semantic="POSITION" source="#edf_torsional_500_top-mesh-positions"/>
        </vertices>
        <triangles material="ABS__White__021-material" count="554">
          <input semantic="VERTEX" source="#edf_torsional_500_top-mesh-vertices" offset="0"/>
          <input semantic="NORMAL" source="#edf_torsional_500_top-mesh-normals" offset="1"/>
          <input semantic="TEXCOORD" source="#edf_torsional_500_top-mesh-map-0" offset="2" set="0"/>
          <p>0 0 0 1 0 1 3 0 2 3 1 3 1 1 4 2 1 5 4 2 6 0 2 7 5 2 8 5 2 9 0 2 10 3 2 11 6 3 12 7 3 13 9 3 14 9 4 15 7 4 16 8 4 17 7 5 18 10 5 19 8 5 20 8 5 21 10 5 22 11 5 23 1 6 24 12 6 25 2 6 26 13 2 27 14 2 28 12 2 29 12 7 30 14 7 31 2 7 32 1 8 33 0 8 34 6 8 35 6 9 36 0 9 37 7 9 38 0 10 39 4 10 40 7 10 41 7 10 42 4 10 43 10 10 44 15 11 45 16 11 46 18 11 47 18 11 48 16 11 49 17 11 50 16 5 51 19 5 52 17 5 53 17 5 54 19 5 55 20 5 56 19 10 57 21 10 58 20 10 59 20 10 60 21 10 61 22 10 62 21 2 63 15 2 64 22 2 65 22 2 66 15 2 67 18 2 68 18 12 69 17 12 70 22 12 71 22 12 72 17 12 73 20 12 74 2 13 75 14 13 76 24 13 77 24 14 78 14 14 79 23 14 80 25 5 81 24 5 82 23 5 83 26 15 84 9 15 85 28 15 86 28 16 87 9 16 88 27 16 89 29 2 90 28 2 91 27 2 92 5 17 93 16 17 94 4 17 95 4 12 96 16 12 97 15 12 98 4 12 99 15 12 100 10 12 101 10 12 102 15 12 103 11 12 104 11 12 105 15 12 106 21 12 107 11 12 108 21 12 109 19 12 110 16 12 111 5 12 112 19 12 113 19 12 114 5 12 115 11 12 116 1 18 117 6 18 118 12 18 119 12 19 120 6 19 121 30 19 122 3 20 123 2 20 124 9 20 125 3 21 126 9 21 127 8 21 128 8 11 129 11 11 130 3 11 131 3 11 132 11 11 133 5 11 134 25 22 135 27 22 136 24 22 137 24 23 138 27 23 139 9 23 140 24 24 141 9 24 142 2 24 143 25 22 144 29 22 145 27 22 146 23 11 147 34 11 148 25 11 149 25 11 150 34 11 151 35 11 152 28 11 153 32 11 154 23 11 155 23 25 156 32 25 157 33 25 158 29 11 159 31 11 160 28 11 161 28 11 162 31 11 163 32 11 164 25 26 165 36 26 166 29 26 167 23 27 168 33 27 169 34 27 170 35 11 171 36 11 172 25 11 173 29 11 174 36 11 175 31 11 176 30 28 177 6 28 178 9 28 179 9 29 180 26 29 181 30 29 182 30 5 183 26 5 184 37 5 185 30 10 186 42 10 187 12 10 188 12 30 189 42 30 190 43 30 191 37 10 192 41 10 193 30 10 194 13 10 195 39 10 196 37 10 197 37 31 198 39 31 199 40 31 200 12 10 201 38 10 202 13 10 203 38 10 204 39 10 205 13 10 206 40 10 207 41 10 208 37 10 209 30 32 210 41 32 211 42 32 212 12 33 213 43 33 214 38 33 215 38 34 216 34 35 217 33 36 218 38 37 219 33 38 220 39 39 221 39 40 222 33 41 223 32 42 224 39 43 225 32 44 226 40 45 227 40 46 228 32 47 229 31 48 230 40 49 231 31 50 232 41 51 233 41 52 234 31 53 235 36 54 236 41 55 237 36 56 238 42 57 239 42 58 240 36 59 241 43 60 242 43 61 243 36 62 244 35 63 245 43 64 246 35 65 247 38 66 248 38 67 249 35 68 250 34 69 251 14 22 252 13 22 253 23 22 254 23 22 255 13 22 256 37 22 257 23 22 258 37 22 259 28 22 260 28 22 261 37 22 262 26 22 263 44 70 264 51 71 265 48 72 266 44 73 267 48 74 268 47 75 269 47 76 270 48 77 271 49 78 272 47 79 273 49 80 274 46 81 275 46 82 276 49 83 277 50 84 278 46 85 279 50 86 280 45 87 281 45 88 282 50 89 283 51 90 284 45 91 285 51 92 286 44 93 287 52 94 288 59 95 289 56 96 290 52 97 291 56 98 292 55 99 293 55 100 294 56 101 295 57 102 296 55 103 297 57 104 298 54 105 299 54 106 300 57 107 301 58 108 302 54 109 303 58 110 304 53 111 305 53 112 306 58 113 307 59 114 308 53 115 309 59 116 310 52 117 311 63 118 312 60 119 313 62 120 314 62 121 315 60 122 316 61 123 317 52 124 318 61 124 319 64 124 320 52 125 321 64 125 322 53 125 323 53 2 324 64 2 325 65 2 326 53 2 327 65 2 328 54 2 329 54 126 330 65 126 331 62 126 332 54 127 333 62 127 334 55 127 335 55 128 336 62 128 337 61 128 338 55 129 339 61 129 340 52 129 341 69 130 342 66 131 343 68 132 344 68 133 345 66 134 346 67 135 347 51 5 348 71 5 349 48 5 350 48 136 351 71 136 352 68 136 353 48 137 354 68 137 355 49 137 356 49 138 357 68 138 358 67 138 359 49 139 360 67 139 361 70 139 362 49 140 363 70 140 364 50 140 365 50 5 366 70 5 367 71 5 368 50 5 369 71 5 370 51 5 371 60 141 372 63 141 373 73 141 374 73 142 375 63 142 376 72 142 377 66 143 378 69 143 379 75 143 380 75 144 381 69 144 382 74 144 383 72 145 384 89 145 385 73 145 386 73 146 387 89 146 388 90 146 389 76 11 390 89 11 391 72 11 392 89 11 393 76 11 394 77 11 395 89 147 396 77 147 397 88 147 398 88 11 399 77 11 400 87 11 401 87 11 402 77 11 403 78 11 404 87 148 405 78 148 406 73 148 407 87 149 408 73 149 409 90 149 410 73 150 411 84 150 412 85 150 413 79 151 414 83 151 415 73 151 416 83 11 417 79 11 418 86 11 419 86 152 420 79 152 421 74 152 422 86 153 423 74 153 424 85 153 425 85 154 426 74 154 427 73 154 428 74 155 429 80 155 430 91 155 431 91 156 432 80 156 433 94 156 434 94 157 435 80 157 436 93 157 437 93 11 438 80 11 439 81 11 440 93 11 441 81 11 442 82 11 443 93 11 444 82 11 445 92 11 446 92 11 447 82 11 448 75 11 449 92 158 450 75 158 451 74 158 452 92 159 453 74 159 454 91 159 455 83 160 456 84 160 457 73 160 458 96 161 459 68 161 460 95 161 461 95 162 462 68 162 463 71 162 464 95 163 465 71 163 466 98 163 467 98 22 468 71 22 469 64 22 470 98 22 471 64 22 472 97 22 473 97 22 474 64 22 475 96 22 476 96 164 477 64 164 478 61 164 479 96 165 480 61 165 481 68 165 482 68 22 483 61 22 484 69 22 485 69 22 486 61 22 487 60 22 488 69 166 489 60 166 490 74 166 491 74 167 492 60 167 493 73 167 494 59 5 495 97 5 496 56 5 497 56 5 498 97 5 499 96 5 500 56 5 501 96 5 502 57 5 503 57 5 504 96 5 505 99 5 506 57 5 507 99 5 508 100 5 509 57 5 510 100 5 511 58 5 512 58 168 513 100 168 514 97 168 515 58 5 516 97 5 517 59 5 518 100 10 519 101 10 520 97 10 521 97 10 522 101 10 523 98 10 524 44 169 525 95 169 526 98 169 527 44 170 528 98 170 529 45 170 530 45 171 531 98 171 532 101 171 533 45 172 534 101 172 535 46 172 536 46 173 537 101 173 538 102 173 539 46 174 540 102 174 541 47 174 542 47 175 543 102 175 544 95 175 545 47 176 546 95 176 547 44 176 548 102 11 549 99 11 550 95 11 551 95 11 552 99 11 553 96 11 554 70 11 555 65 11 556 71 11 557 71 11 558 65 11 559 64 11 560 86 177 561 106 178 562 83 179 563 83 180 564 106 181 565 103 182 566 83 183 567 103 184 568 84 185 569 84 186 570 103 187 571 104 188 572 84 189 573 104 190 574 85 191 575 85 192 576 104 193 577 105 194 578 85 195 579 105 196 580 86 197 581 86 198 582 105 199 583 106 200 584 87 201 585 107 202 586 108 203 587 87 204 588 108 205 589 88 206 590 88 207 591 108 208 592 89 209 593 89 210 594 108 211 595 109 212 596 89 213 597 109 214 598 90 215 599 90 216 600 109 217 601 110 218 602 90 219 603 110 220 604 87 221 605 87 222 606 110 223 607 107 224 608 91 225 609 111 226 610 112 227 611 91 228 612 112 229 613 92 230 614 92 231 615 112 232 616 93 233 617 93 234 618 112 235 619 113 212 620 93 236 621 113 237 622 94 238 623 94 239 624 113 240 625 114 241 626 94 242 627 114 243 628 91 244 629 91 245 630 114 246 631 111 247 632 79 248 633 117 249 634 74 250 635 74 251 636 117 252 637 115 253 638 74 254 639 115 255 640 116 256 641 74 257 642 116 258 643 80 259 644 78 260 645 121 261 646 118 262 647 78 263 648 118 264 649 73 265 650 73 266 651 118 267 652 79 268 653 79 269 654 118 270 655 117 271 656 76 272 657 119 273 658 77 274 659 77 275 660 119 276 661 120 277 662 77 278 663 120 279 664 78 280 665 78 281 666 120 282 667 121 283 668 102 284 669 62 284 670 99 284 671 99 285 672 62 285 673 65 285 674 99 286 675 65 286 676 100 286 677 100 12 678 65 12 679 70 12 680 100 12 681 70 12 682 101 12 683 101 12 684 70 12 685 102 12 686 102 287 687 70 287 688 67 287 689 102 288 690 67 288 691 62 288 692 62 12 693 67 12 694 63 12 695 63 12 696 67 12 697 66 12 698 63 289 699 66 289 700 72 289 701 72 290 702 66 290 703 75 290 704 72 291 705 75 291 706 119 291 707 119 292 708 75 292 709 122 292 710 122 293 711 75 293 712 82 293 713 119 294 714 76 294 715 72 294 716 80 295 717 116 296 718 123 297 719 80 298 720 123 299 721 81 300 722 81 301 723 123 302 724 124 303 725 81 304 726 124 305 727 82 306 728 82 307 729 124 308 730 122 309 731 116 10 732 111 10 733 123 10 734 123 10 735 111 10 736 114 10 737 114 10 738 113 10 739 123 10 740 123 10 741 113 10 742 124 10 743 124 10 744 113 10 745 112 10 746 124 310 747 112 310 748 122 310 749 122 311 750 112 311 751 109 311 752 109 312 753 112 312 754 104 312 755 104 313 756 112 313 757 111 313 758 104 314 759 111 314 760 116 314 761 107 315 762 121 315 763 120 315 764 107 316 765 120 316 766 108 316 767 108 10 768 120 10 769 119 10 770 110 317 771 118 317 772 107 317 773 107 10 774 118 10 775 121 10 776 118 318 777 110 318 778 104 318 779 104 319 780 110 319 781 109 319 782 122 320 783 109 320 784 119 320 785 109 10 786 108 10 787 119 10 788 106 321 789 117 321 790 103 321 791 103 10 792 117 10 793 118 10 794 103 10 795 118 10 796 104 10 797 117 10 798 106 10 799 115 10 800 106 322 801 105 322 802 115 322 803 115 323 804 105 323 805 116 323 806 116 324 807 105 324 808 104 324 809 133 330 846 134 330 847 136 330 848 136 331 849 134 331 850 135 331 851 134 2 852 137 2 853 135 2 854 135 2 855 137 2 856 138 2 857 139 332 858 140 332 859 142 332 860 142 333 861 140 333 862 141 333 863 143 5 864 139 5 865 144 5 866 144 5 867 139 5 868 142 5 869 147 334 870 133 334 871 136 334 872 136 335 873 145 335 874 147 335 875 147 2 876 145 2 877 146 2 878 134 336 879 133 336 880 140 336 881 134 337 882 140 337 883 139 337 884 139 10 885 143 10 886 134 10 887 134 10 888 143 10 889 137 10 890 148 11 891 149 11 892 151 11 893 151 11 894 149 11 895 150 11 896 152 5 897 148 5 898 153 5 899 153 5 900 148 5 901 151 5 902 154 10 903 152 10 904 155 10 905 155 10 906 152 10 907 153 10 908 149 2 909 154 2 910 150 2 911 150 2 912 154 2 913 155 2 914 155 22 915 153 22 916 150 22 917 150 22 918 153 22 919 151 22 920 145 338 921 136 338 922 157 338 923 157 339 924 136 339 925 156 339 926 156 5 927 158 5 928 157 5 929 141 340 930 159 340 931 161 340 932 161 341 933 159 341 934 160 341 935 160 2 936 162 2 937 161 2 938 137 22 939 148 22 940 138 22 941 138 342 942 148 342 943 152 342 944 138 22 945 152 22 946 154 22 947 137 22 948 143 22 949 148 22 950 148 22 951 143 22 952 149 22 953 149 22 954 143 22 955 144 22 956 149 343 957 144 343 958 154 343 959 154 22 960 144 22 961 138 22 962 147 344 963 163 344 964 133 344 965 133 345 966 163 345 967 140 345 968 136 346 969 135 346 970 141 346 971 141 347 972 135 347 973 142 347 974 135 11 975 138 11 976 142 11 977 142 11 978 138 11 979 144 11 980 158 12 981 156 12 982 162 12 983 162 12 984 156 12 985 161 12 986 161 348 987 156 348 988 141 348 989 156 349 990 136 349 991 141 349 992 158 11 993 168 11 994 157 11 995 157 350 996 168 350 997 169 350 998 162 11 999 166 11 1000 158 11 1001 158 351 1002 166 351 1003 167 351 1004 160 11 1005 164 11 1006 162 11 1007 162 352 1008 164 352 1009 165 352 1010 157 11 1011 170 11 1012 160 11 1013 162 353 1014 165 353 1015 166 353 1016 158 354 1017 167 354 1018 168 354 1019 169 355 1020 170 355 1021 157 355 1022 160 356 1023 170 356 1024 164 356 1025 140 357 1026 163 357 1027 141 357 1028 171 5 1029 159 5 1030 163 5 1031 163 358 1032 159 358 1033 141 358 1034 147 359 1035 174 359 1036 163 359 1037 163 10 1038 174 10 1039 175 10 1040 146 10 1041 172 10 1042 147 10 1043 147 360 1044 172 360 1045 173 360 1046 171 361 1047 177 361 1048 146 361 1049 146 362 1050 177 362 1051 178 362 1052 163 10 1053 176 10 1054 171 10 1055 147 363 1056 173 363 1057 174 363 1058 163 364 1059 175 364 1060 176 364 1061 171 365 1062 176 365 1063 177 365 1064 146 10 1065 178 10 1066 172 10 1067 172 366 1068 168 367 1069 173 368 1070 173 369 1071 168 370 1072 167 371 1073 173 372 1074 167 373 1075 174 374 1076 174 375 1077 167 376 1078 166 377 1079 174 378 1080 166 379 1081 175 380 1082 175 381 1083 166 382 1084 165 383 1085 175 384 1086 165 385 1087 176 386 1088 176 387 1089 165 388 1090 164 389 1091 176 390 1092 164 391 1093 170 392 1094 176 393 1095 170 394 1096 177 395 1097 177 396 1098 170 397 1099 178 398 1100 178 399 1101 170 400 1102 169 401 1103 178 402 1104 169 403 1105 172 404 1106 172 405 1107 169 406 1108 168 407 1109 145 12 1110 157 12 1111 146 12 1112 146 12 1113 157 12 1114 160 12 1115 146 12 1116 160 12 1117 171 12 1118 171 12 1119 160 12 1120 159 12 1121 179 408 1122 183 409 1123 182 410 1124 182 411 1125 183 412 1126 184 413 1127 182 414 1128 184 415 1129 181 416 1130 181 417 1131 184 418 1132 185 419 1133 181 420 1134 185 421 1135 180 422 1136 180 423 1137 185 424 1138 186 425 1139 180 426 1140 186 427 1141 179 428 1142 179 429 1143 186 430 1144 183 431 1145 187 432 1146 191 433 1147 190 434 1148 190 435 1149 191 436 1150 192 437 1151 190 438 1152 192 439 1153 189 440 1154 189 441 1155 192 442 1156 193 443 1157 189 444 1158 193 445 1159 188 446 1160 188 447 1161 193 448 1162 194 449 1163 188 450 1164 194 451 1165 187 452 1166 187 453 1167 194 454 1168 191 455 1169 198 123 1170 195 121 1171 197 122 1172 197 119 1173 195 120 1174 196 118 1175 190 2 1176 200 2 1177 187 2 1178 187 456 1179 200 456 1180 195 456 1181 187 457 1182 195 457 1183 198 457 1184 187 458 1185 198 458 1186 188 458 1187 188 459 1188 198 459 1189 189 459 1190 189 460 1191 198 460 1192 199 460 1193 189 2 1194 199 2 1195 200 2 1196 189 461 1197 200 461 1198 190 461 1199 204 135 1200 201 133 1201 203 134 1202 203 462 1203 201 463 1204 202 464 1205 183 465 1206 204 465 1207 205 465 1208 183 5 1209 205 5 1210 184 5 1211 184 5 1212 205 5 1213 206 5 1214 184 466 1215 206 466 1216 185 466 1217 185 467 1218 206 467 1219 201 467 1220 185 468 1221 201 468 1222 186 468 1223 186 469 1224 201 469 1225 204 469 1226 186 470 1227 204 470 1228 183 470 1229 197 471 1230 196 471 1231 208 471 1232 208 472 1233 196 472 1234 207 472 1235 203 473 1236 202 473 1237 210 473 1238 210 474 1239 202 474 1240 209 474 1241 207 475 1242 224 475 1243 208 475 1244 210 476 1245 220 476 1246 207 476 1247 209 477 1248 232 477 1249 210 477 1250 211 11 1251 230 11 1252 209 11 1253 209 478 1254 230 478 1255 231 478 1256 230 479 1257 211 479 1258 229 479 1259 229 11 1260 211 11 1261 212 11 1262 229 11 1263 212 11 1264 228 11 1265 228 11 1266 212 11 1267 213 11 1268 228 480 1269 213 480 1270 232 480 1271 232 481 1272 213 481 1273 210 481 1274 214 482 1275 219 482 1276 210 482 1277 214 11 1278 222 11 1279 219 11 1280 207 483 1281 222 483 1282 214 483 1283 207 484 1284 221 484 1285 222 484 1286 207 485 1287 220 485 1288 221 485 1289 216 11 1290 223 11 1291 215 11 1292 215 486 1293 223 486 1294 207 486 1295 223 11 1296 216 11 1297 227 11 1298 227 487 1299 216 487 1300 226 487 1301 226 488 1302 216 488 1303 217 488 1304 226 11 1305 217 11 1306 225 11 1307 225 11 1308 217 11 1309 218 11 1310 225 489 1311 218 489 1312 208 489 1313 225 11 1314 208 11 1315 224 11 1316 219 490 1317 220 490 1318 210 490 1319 207 491 1320 223 491 1321 224 491 1322 209 492 1323 231 492 1324 232 492 1325 234 12 1326 195 12 1327 233 12 1328 233 12 1329 195 12 1330 200 12 1331 233 12 1332 200 12 1333 236 12 1334 236 12 1335 200 12 1336 205 12 1337 236 12 1338 205 12 1339 235 12 1340 235 12 1341 205 12 1342 234 12 1343 234 12 1344 205 12 1345 204 12 1346 234 493 1347 204 493 1348 195 493 1349 195 494 1350 204 494 1351 196 494 1352 196 12 1353 204 12 1354 203 12 1355 196 495 1356 203 495 1357 207 495 1358 207 496 1359 203 496 1360 210 496 1361 191 5 1362 233 5 1363 236 5 1364 191 5 1365 236 5 1366 192 5 1367 192 5 1368 236 5 1369 238 5 1370 192 497 1371 238 497 1372 193 497 1373 193 5 1374 238 5 1375 237 5 1376 193 5 1377 237 5 1378 194 5 1379 194 498 1380 237 498 1381 233 498 1382 194 499 1383 233 499 1384 191 499 1385 236 10 1386 235 10 1387 238 10 1388 238 10 1389 235 10 1390 239 10 1391 182 500 1392 235 500 1393 179 500 1394 179 501 1395 235 501 1396 234 501 1397 179 502 1398 234 502 1399 240 502 1400 179 503 1401 240 503 1402 180 503 1403 180 504 1404 240 504 1405 181 504 1406 181 505 1407 240 505 1408 239 505 1409 181 506 1410 239 506 1411 235 506 1412 181 507 1413 235 507 1414 182 507 1415 234 11 1416 233 11 1417 240 11 1418 240 11 1419 233 11 1420 237 11 1421 205 11 1422 200 11 1423 206 11 1424 206 11 1425 200 11 1426 199 11 1427 222 508 1428 241 509 1429 219 510 1430 219 511 1431 241 512 1432 242 513 1433 219 514 1434 242 515 1435 243 516 1436 219 517 1437 243 518 1438 220 519 1439 220 520 1440 243 521 1441 244 522 1442 220 523 1443 244 524 1444 221 525 1445 221 526 1446 244 527 1447 245 528 1448 221 529 1449 245 530 1450 222 531 1451 222 532 1452 245 533 1453 241 534 1454 227 535 1455 246 536 1456 223 537 1457 223 538 1458 246 539 1459 247 540 1460 223 541 1461 247 542 1462 224 543 1463 224 544 1464 247 545 1465 248 546 1466 224 547 1467 248 548 1468 225 549 1469 225 550 1470 248 551 1471 249 552 1472 225 553 1473 249 554 1474 226 555 1475 226 556 1476 249 557 1477 250 558 1478 226 559 1479 250 560 1480 227 561 1481 227 562 1482 250 563 1483 246 564 1484 232 565 1485 251 566 1486 228 567 1487 228 568 1488 251 569 1489 229 570 1490 229 571 1491 251 572 1492 252 573 1493 229 574 1494 252 575 1495 230 576 1496 230 577 1497 252 551 1498 253 578 1499 230 579 1500 253 580 1501 231 581 1502 231 582 1503 253 583 1504 254 584 1505 231 585 1506 254 586 1507 232 587 1508 232 588 1509 254 589 1510 251 590 1511 213 591 1512 264 592 1513 210 593 1514 210 594 1515 264 595 1516 255 596 1517 210 597 1518 255 598 1519 214 599 1520 214 600 1521 255 601 1522 256 602 1523 214 603 1524 256 604 1525 207 605 1526 207 606 1527 256 607 1528 257 608 1529 207 609 1530 257 610 1531 215 611 1532 215 612 1533 257 613 1534 258 614 1535 215 615 1536 258 616 1537 216 617 1538 216 618 1539 258 619 1540 259 620 1541 216 621 1542 259 622 1543 217 623 1544 217 624 1545 259 625 1546 218 626 1547 218 627 1548 259 628 1549 260 629 1550 237 22 1551 201 22 1552 240 22 1553 240 630 1554 201 630 1555 206 630 1556 240 22 1557 206 22 1558 239 22 1559 239 22 1560 206 22 1561 199 22 1562 239 22 1563 199 22 1564 238 22 1565 238 22 1566 199 22 1567 237 22 1568 237 22 1569 199 22 1570 198 22 1571 237 631 1572 198 631 1573 201 631 1574 201 22 1575 198 22 1576 202 22 1577 202 22 1578 198 22 1579 197 22 1580 202 22 1581 197 22 1582 209 22 1583 209 22 1584 197 22 1585 208 22 1586 209 632 1587 208 632 1588 261 632 1589 261 633 1590 208 633 1591 260 633 1592 260 634 1593 208 634 1594 218 634 1595 261 635 1596 211 635 1597 209 635 1598 211 636 1599 261 637 1600 262 638 1601 211 639 1602 262 640 1603 212 641 1604 212 642 1605 262 643 1606 263 644 1607 212 645 1608 263 646 1609 213 647 1610 213 648 1611 263 649 1612 264 650 1613 251 651 1614 264 651 1615 263 651 1616 251 10 1617 263 10 1618 252 10 1619 252 652 1620 263 652 1621 262 652 1622 252 653 1623 262 653 1624 253 653 1625 253 654 1626 262 654 1627 261 654 1628 254 10 1629 255 10 1630 251 10 1631 251 10 1632 255 10 1633 264 10 1634 255 655 1635 254 655 1636 243 655 1637 243 10 1638 254 10 1639 247 10 1640 247 656 1641 254 656 1642 248 656 1643 248 657 1644 254 657 1645 253 657 1646 248 658 1647 253 658 1648 261 658 1649 258 659 1650 246 659 1651 259 659 1652 259 660 1653 246 660 1654 250 660 1655 259 10 1656 250 10 1657 249 10 1658 259 661 1659 249 661 1660 260 661 1661 260 662 1662 249 662 1663 248 662 1664 243 663 1665 247 663 1666 244 663 1667 244 664 1668 247 664 1669 257 664 1670 257 10 1671 247 10 1672 246 10 1673 257 665 1674 246 665 1675 258 665 1676 241 666 1677 256 666 1678 242 666 1679 242 10 1680 256 10 1681 255 10 1682 242 10 1683 255 10 1684 243 10 1685 256 10 1686 241 10 1687 257 10 1688 257 667 1689 241 667 1690 245 667 1691 257 668 1692 245 668 1693 244 668 1694 261 669 1695 260 669 1696 248 669 1697</p>
        </triangles>
        <triangles material="Steel_-_Satin_021-material" count="12">
          <input semantic="VERTEX" source="#edf_torsional_500_top-mesh-vertices" offset="0"/>
          <input semantic="NORMAL" source="#edf_torsional_500_top-mesh-normals" offset="1"/>
          <input semantic="TEXCOORD" source="#edf_torsional_500_top-mesh-map-0" offset="2" set="0"/>
          <p>129 325 810 125 325 811 127 325 812 127 326 813 125 326 814 126 326 815 130 2 816 128 2 817 129 2 818 130 327 819 129 327 820 127 327 821 131 10 822 130 10 823 126 10 824 126 10 825 130 10 826 127 10 827 132 5 828 131 5 829 126 5 830 132 328 831 126 328 832 125 328 833 128 11 834 132 11 835 129 11 836 129 329 837 132 329 838 125 329 839 132 22 840 128 22 841 131 22 842 131 22 843 128 22 844 130 22 845</p>
        </triangles>
      </mesh>
    </geometry>
  </library_geometries>
  <library_visual_scenes>
    <visual_scene id="Scene" name="Scene">
      <node id="edf_torsional_500_top" name="edf_torsional_500_top" type="NODE">
        <matrix sid="transform">-4.37114e-10 -7.54979e-10 0.01 -0.514281 0.01 0 4.37114e-10 -0.00631 0 0.01 7.54979e-10 -0.001656 0 0 0 1</matrix>
        <instance_geometry url="#edf_torsional_500_top-mesh" name="edf_torsional_500_top">
          <bind_material>
            <technique_common>
              <instance_material symbol="ABS__White__021-material" target="#ABS__White__021-material">
                <bind_vertex_input semantic="UVMap" input_semantic="TEXCOORD" input_set="0"/>
              </instance_material>
              <instance_material symbol="Steel_-_Satin_021-material" target="#Steel_-_Satin_021-material">
                <bind_vertex_input semantic="UVMap" input_semantic="TEXCOORD" input_set="0"/>
              </instance_material>
            </technique_common>
          </bind_material>
        </instance_geometry>
      </node>
    </visual_scene>
  </library_visual_scenes>
  <scene>
    <instance_visual_scene url="#Scene"/>
  </scene>
</COLLADA>