<?xml version="1.0" encoding="utf-8"?>
<COLLADA xmlns="http://www.collada.org/2005/11/COLLADASchema" version="1.4.1" xmlns:xsi="http://www.w3.org/2001/XMLSchema-instance">
  <asset>
    <contributor>
      <author>Blender User</author>
      <authoring_tool>Blender 4.1.1 commit date:2024-04-15, commit time:15:11, hash:e1743a0317bc</authoring_tool>
    </contributor>
    <created>2024-10-25T01:20:19</created>
    <modified>2024-10-25T01:20:19</modified>
    <unit name="meter" meter="1"/>
    <up_axis>Z_UP</up_axis>
  </asset>
  <library_effects>
    <effect id="ABS__White__014-effect">
      <profile_COMMON>
        <technique sid="common">
          <lambert>
            <emission>
              <color sid="emission">0 0 0 1</color>
            </emission>
            <diffuse>
              <color sid="diffuse">0.964706 0.964706 0.952941 1</color>
            </diffuse>
            <index_of_refraction>
              <float sid="ior">1.5</float>
            </index_of_refraction>
          </lambert>
        </technique>
      </profile_COMMON>
    </effect>
    <effect id="Steel_-_Satin_014-effect">
      <profile_COMMON>
        <technique sid="common">
          <lambert>
            <emission>
              <color sid="emission">0 0 0 1</color>
            </emission>
            <diffuse>
              <color sid="diffuse">0.627451 0.627451 0.627451 1</color>
            </diffuse>
            <index_of_refraction>
              <float sid="ior">1.5</float>
            </index_of_refraction>
          </lambert>
        </technique>
      </profile_COMMON>
    </effect>
  </library_effects>
  <library_images/>
  <library_materials>
    <material id="ABS__White__014-material" name="ABS_(White).014">
      <instance_effect url="#ABS__White__014-effect"/>
    </material>
    <material id="Steel_-_Satin_014-material" name="Steel_-_Satin.014">
      <instance_effect url="#Steel_-_Satin_014-effect"/>
    </material>
  </library_materials>
  <library_geometries>
    <geometry id="edf_torsional_300_top-mesh" name="edf_torsional_300_top">
      <mesh>
        <source id="edf_torsional_300_top-mesh-positions">
          <float_array id="edf_torsional_300_top-mesh-positions-array" count="783">1.430989 5.403408 3.878023 1.948035 5.395927 2.63042 1.936199 7.166006 2.585293 1.430989 7.165627 3.878023 1.430989 5.403408 6.478023 1.430989 7.165627 6.478023 -0.6823165 5.399028 2.599952 -0.1690109 5.403408 3.878023 -0.1690109 7.165627 3.878023 -0.678527 7.166457 2.587761 -0.1690109 5.403408 6.478023 -0.1690109 7.165627 6.478023 1.930989 5.603408 2.378054 1.930989 5.603408 0.278054 1.930989 6.003408 0.278054 0.165989 5.900627 6.478023 1.095989 5.900627 6.478023 1.095989 5.900627 4.078023 0.165989 5.900627 4.078023 1.095989 6.830627 6.478023 1.095989 6.830627 4.078023 0.165989 6.830627 6.478023 0.165989 6.830627 4.078023 1.630989 6.003408 0.278054 1.630989 7.165199 2.578054 1.630989 6.003408 2.578054 -0.669011 6.003408 0.278054 -0.369011 7.165199 2.578054 -0.369011 6.003408 0.278054 -0.369011 6.003408 2.578054 -0.669011 5.603408 2.378054 0.09250903 6.003408 1.519867 0.3322131 6.003408 0.955573 0.9468314 6.003408 0.9823707 1.166861 6.003408 1.410086 0.979739 6.003408 1.848487 0.4412595 6.003408 1.940297 -0.669011 5.603408 0.278054 1.174884 5.603408 1.377369 0.797296 5.603408 0.894343 0.2105559 5.603408 1.079304 0.1187456 5.603408 1.617784 0.4749379 5.603408 1.941016 0.946831 5.603408 1.873738 0.165989 6.540583 26.33687 0.165989 6.381726 26.60777 0.165989 6.194228 26.46663 0.165989 6.266363 26.28795 -0.269011 6.18565 26.36237 -0.269011 6.349529 26.60777 -0.269011 6.537025 26.46663 -0.269011 6.447278 26.27246 1.530989 6.540583 26.33687 1.530989 6.381726 26.60777 1.530989 6.194228 26.46663 1.530989 6.266363 26.28795 1.095989 6.18565 26.36237 1.095989 6.349529 26.60777 1.095989 6.537025 26.46663 1.095989 6.447278 26.27246 1.724111 4.534968 25.82802 1.533327 5.221473 25.82802 1.533624 5.20269 27.02802 1.755321 4.483965 27.02802 1.530989 7.130627 25.82802 1.530989 7.130627 27.02802 -0.4621306 4.534973 27.02802 -0.2713493 5.221481 27.02802 -0.2716454 5.202698 25.82802 -0.4933406 4.48397 25.82802 -0.269011 7.130627 27.02802 -0.269011 7.130627 25.82802 2.330989 3.865627 27.02802 2.358593 3.864737 25.70712 -1.150714 3.864288 25.74188 -1.069011 3.865627 27.02802 3.173231 3.865627 26.99426 3.532305 3.865627 26.58505 3.364598 3.865627 25.96832 0.6318042 3.865627 24.99849 -1.950332 3.865627 25.88951 -2.261461 3.865627 26.2403 -2.214615 3.865627 26.68717 -1.930979 3.865627 26.98929 0.6726625 3.865627 25.34114 0.8055777 3.865627 25.59198 0.5670362 3.865627 25.70261 0.4543962 3.865627 25.48825 2.857146 3.865627 26.26729 3.092605 3.865627 26.32535 3.009222 3.865627 26.5967 2.748305 3.865627 26.48538 -1.507395 3.865627 26.32535 -1.590778 3.865627 26.5967 -1.822006 3.865627 26.52477 -1.788235 3.865627 26.28535 0.165989 5.900627 25.82802 1.095989 5.900627 25.82802 1.095989 6.830627 25.82802 0.165989 6.830627 25.82802 1.095989 5.900627 27.02802 1.095989 6.830627 27.02802 0.165989 6.830627 27.02802 0.165989 5.900627 27.02802 0.6883386 3.365627 25.34534 0.7926046 3.365627 25.6307 0.53424 3.365627 25.68102 0.4581684 3.365627 25.47417 3.092595 3.365627 26.3147 3.033263 3.365627 26.57234 2.83424 3.365627 26.58102 2.769372 3.365627 26.32535 -1.637101 3.365627 26.24485 -1.490062 3.365627 26.51132 -1.788236 3.365627 26.5707 -1.82974 3.365627 26.35418 -0.7665993 3.365627 25.5857 -1.972947 3.365627 25.90072 0.6301714 3.365627 24.9985 1.895598 3.365627 25.541 3.173718 3.365627 27.00243 3.476592 3.365627 26.68717 3.523438 3.365627 26.2403 3.212309 3.365627 25.88951 -1.899313 3.365627 27.00155 -2.24051 3.365627 26.21109 -2.238026 3.365627 26.65139 0.165989 6.830627 58.77802 0.165989 5.900627 58.77803 1.095989 5.900627 58.77802 1.095989 6.830627 4.078023 1.095989 6.830627 58.77803 1.095989 5.900627 4.078023 0.165989 5.900627 4.078023 0.165989 6.830627 4.078023 1.944174 5.397621 60.2549 1.430989 5.403408 58.97808 1.430989 7.165627 58.97808 1.940333 7.166855 60.26563 1.430989 5.403408 56.37808 1.430989 7.165627 56.37808 -0.1690109 5.403408 58.97808 -0.6862565 5.397732 60.22696 -0.6742777 7.165871 60.27249 -0.1690109 7.165627 58.97808 -0.1690109 5.403408 56.37808 -0.1690109 7.165627 56.37808 1.930989 6.003408 62.57805 1.930989 5.603408 62.57805 1.930989 5.603408 60.47805 1.095989 5.900627 56.37808 0.165989 5.900627 56.37808 0.165989 5.900627 58.77809 1.095989 5.900627 58.77809 1.095989 6.830627 56.37808 1.095989 6.830627 58.77809 0.165989 6.830627 56.37808 0.165989 6.830627 58.77809 1.630989 7.165199 60.27805 1.630989 6.003408 62.57805 1.630989 6.003408 60.27805 -0.669011 6.003408 62.57805 -0.369011 6.003408 62.57805 -0.369011 7.165199 60.27805 -0.369011 6.003408 60.27805 -0.669011 5.603408 60.47805 0.08709537 6.003408 61.37737 0.4646885 6.003408 60.89434 1.051421 6.003408 61.07931 1.156927 6.003408 61.4847 0.9797381 6.003408 61.84849 0.3711926 6.003408 61.92304 -0.669011 5.603408 62.57805 1.174883 5.603408 61.37737 0.9628297 5.603408 61.01611 0.5081647 5.603408 60.88269 0.0925095 5.603408 61.33624 0.2393632 5.603408 61.79427 0.6130228 5.603408 61.96393 0.9972009 5.603408 61.81968 0.165989 6.232297 36.28268 0.165989 6.556464 36.41125 0.165989 6.309964 36.6054 -0.269011 6.534863 36.39923 -0.269011 6.332494 36.23939 -0.269011 6.197889 36.48035 -0.269011 6.42129 36.6054 1.530989 6.19639 36.39923 1.530989 6.327022 36.25669 1.530989 6.556464 36.41125 1.530989 6.309964 36.6054 1.095989 6.534863 36.39923 1.095989 6.332494 36.23939 1.095989 6.197889 36.48035 1.095989 6.42129 36.6054 1.533624 5.20269 37.02809 1.755321 4.483965 37.02809 1.724111 4.534968 35.82809 1.533327 5.221473 35.82809 1.530989 7.130627 35.82809 1.530989 7.130627 37.02809 -0.2716454 5.202698 35.82809 -0.4933407 4.48397 35.82809 -0.4621306 4.534973 37.02809 -0.2713493 5.221481 37.02809 -0.269011 7.130627 37.02809 -0.269011 7.130627 35.82809 2.412693 3.864288 37.11423 2.330989 3.865627 35.82809 -1.069011 3.865627 35.82809 -1.096616 3.864737 37.14899 -2.05152 3.865627 35.91163 -2.273291 3.865627 36.57328 -1.972955 3.865627 36.95538 0.6301712 3.865627 37.85762 3.212318 3.865627 36.96659 3.523438 3.865627 36.61581 3.476593 3.865627 36.16894 3.192952 3.865627 35.86682 0.4779947 3.865627 37.42483 0.5117658 3.865627 37.18541 0.7736675 3.865627 37.20886 0.7336694 3.865627 37.4897 2.867037 3.865627 36.60268 2.769383 3.865627 36.31475 3.053727 3.865627 36.29504 3.09127 3.865627 36.51221 -1.732963 3.865627 36.60268 -1.830617 3.865627 36.31475 -1.546273 3.865627 36.29504 -1.50873 3.865627 36.51221 1.095989 5.900627 37.02809 0.165989 5.900627 37.02809 0.165989 6.830627 37.02809 1.095989 6.830627 37.02809 1.095989 5.900627 35.82809 1.095989 6.830627 35.82809 0.165989 6.830627 35.82809 0.165989 5.900627 35.82809 0.5117641 3.365627 37.47076 0.4702593 3.365627 37.25424 0.6883366 3.365627 37.1454 0.7926037 3.365627 37.43077 2.82831 3.365627 36.5897 2.77026 3.365627 36.35424 2.962902 3.365627 36.24491 3.113672 3.365627 36.48544 -1.722862 3.365627 36.60091 -1.845129 3.365627 36.4445 -1.686354 3.365627 36.23147 -1.486328 3.365627 36.48544 -0.6336256 3.365627 37.31511 0.631803 3.365627 37.85762 2.028572 3.365627 37.27041 3.300021 3.365627 36.92484 3.559677 3.365627 36.34284 3.161288 3.365627 35.85456 -1.911739 3.365627 35.85368 -2.214616 3.365627 36.16894 -2.261461 3.365627 36.61581 -1.950341 3.365627 36.96659</float_array>
          <technique_common>
            <accessor source="#edf_torsional_300_top-mesh-positions-array" count="261" stride="3">
              <param name="X" type="float"/>
              <param name="Y" type="float"/>
              <param name="Z" type="float"/>
            </accessor>
          </technique_common>
        </source>
        <source id="edf_torsional_300_top-mesh-normals">
          <float_array id="edf_torsional_300_top-mesh-normals-array" count="1980">0.9238086 0 0.3828549 0.9312858 0.01550573 0.3639592 1 0 0 -0.9279515 0.004560053 0.3726731 -0.9301055 0 0.3672927 -1 0 0 0.9979851 0.005060493 -0.06324607 0.9999946 -0.003252148 -6.19424e-4 -0.001242339 -0.9999843 0.005481183 0 -0.9999942 0.00342679 0 -1 0 0 1 0 0 0 1 0.00831145 0.8929944 -0.4499912 0 0.8925892 -0.4508709 0 0.8931562 -0.4497469 -0.01051121 0.89254 -0.4508457 -8.07729e-7 0 1 0.006448626 -0.7722287 -0.6353121 0 -0.7355457 -0.6774752 1.72859e-4 1 3.60145e-4 0 0.9999999 6.45355e-4 0 0 -1 0 0.9917181 -0.1284343 6.4265e-5 0.9935254 -0.1136103 0 1 1.05677e-6 0 1 -7.47679e-7 0 1 5.32665e-7 -0.9983001 0.001738548 -0.05825895 -0.9999818 -0.005936205 -0.0011307 0 -1 -4.70261e-6 0 -1 -7.53522e-7 0 -1 -9.07516e-7 0 -1 3.95049e-7 -0.827457 -0.005374491 0.5615035 -0.939985 -0.05469512 0.3368035 -0.8205924 -0.05468946 0.5688914 -0.8517912 0.1556727 0.5002179 -0.8532374 0.1381964 0.5028795 -0.6910499 0.1556783 0.705843 0.08634746 -0.1782149 0.9801957 -0.1726934 -0.1977787 0.9649148 0.08805572 -0.1977732 0.9762849 0.1676276 0.1977726 0.9658091 0.1702899 0.1782145 0.9691445 0.4165491 0.1977781 0.8873391 0.9543191 -0.138198 0.2649081 0.8501894 -0.1556798 0.5029333 0.9522333 -0.1556742 0.2627116 0.9499872 0.1043086 0.2943536 0.9541922 0.07102668 0.2906416 0.9938533 0.1043142 0.03706938 0.6810308 -0.07102715 -0.7288019 0.8421654 -0.1043147 -0.5290332 0.6755332 -0.104309 -0.7299141 0.7618922 0.05468863 -0.645391 0.7565327 0.005373477 -0.6539338 0.5686138 0.05469423 -0.8207844 -0.01073092 -0.01353883 -0.9998508 -0.02501749 0.04587465 -0.9986339 -0.2691151 -0.01354467 -0.9630128 -0.2826112 -0.1029572 -0.9536932 -0.03779917 -0.04793232 -0.9981352 -0.2950833 -0.04792654 -0.9542688 -0.8453779 0.04792684 -0.5320143 -0.84805 0.1029576 -0.5198182 -0.9543405 0.04793262 -0.2948507 -0.9581304 -0.04587364 -0.2826339 -0.8605452 0.01354581 -0.5091943 -0.9630035 0.01353996 -0.269149 -0.1065523 -0.3015312 0.9474838 -0.1272437 -0.2994926 0.9455756 -0.1065495 -0.04458785 0.9933072 0.1211608 0.441716 0.8889359 0.1001027 0.1972214 0.9752349 0.1001025 0.4440449 0.8903952 -0.106465 0.8651838 0.4900227 -0.1106353 0.8647915 0.4897915 -0.1064642 0.9628911 0.2480045 0.112092 0.7467274 -0.655617 0.1149264 0.8913928 -0.4384186 0.1149302 0.7464346 -0.655459 -0.04409027 0.6999682 -0.7128117 -0.02631735 0.6994709 -0.7141764 -0.04408591 0.4914537 -0.8697872 0.02632832 -0.6994386 -0.7142077 0.04408985 -0.4914135 -0.8698097 0.04409468 -0.6999349 -0.7128441 -0.1411616 -0.7805205 -0.6089837 -0.1432264 -0.7802729 -0.6088189 -0.1411563 -0.912546 -0.3838421 0.139373 -0.8364518 0.5300223 0.1303017 -0.9469118 0.2939041 0.1303025 -0.8374084 0.5308188 -0.1065523 -0.3015313 0.9474838 -0.1272437 -0.2994927 0.9455756 -0.1065502 -0.04463577 0.993305 0.1211612 0.441717 0.8889353 0.100103 0.1972225 0.9752347 0.1001029 0.4440459 0.8903948 -0.1064649 0.865184 0.4900224 -0.1106352 0.8647916 0.4897912 -0.1064641 0.9628911 0.2480043 0.112092 0.7467273 -0.6556171 0.1149264 0.8913928 -0.4384187 0.1149301 0.7464345 -0.6554591 -0.04409044 0.6999703 -0.7128098 -0.02631747 0.6994732 -0.7141742 -0.04408609 0.4914562 -0.8697858 0.02632814 -0.6994364 -0.7142097 0.04408961 -0.491411 -0.8698111 0.04409456 -0.699933 -0.7128461 -0.1411616 -0.7805206 -0.6089835 -0.1432264 -0.780273 -0.6088188 -0.1411563 -0.912546 -0.3838419 0.1393725 -0.8364495 0.5300261 0.1303015 -0.9469106 0.2939081 0.1303021 -0.8374062 0.5308223 0.9294346 0.3687826 -0.01228296 0.9298186 0.3668003 -0.02991724 0.9756773 0.2188678 -0.01228606 0.9808709 0.1933965 0.0221439 0.9395063 0.342509 0.003940939 0.9815135 0.1913526 0.003939568 0.9999623 -0.0015257 0.008548974 0.9999983 0.001224875 0.001420259 0.9999961 0.001366496 -0.002435088 0.9999969 0.001516282 -0.002014458 0.9999968 0.002539813 -2.07009e-4 0.9999979 0.001900255 7.67157e-4 -0.9294366 0.3687774 0.01228314 -0.9298206 0.3667951 0.02991747 -0.9756785 0.2188624 0.01228624 -0.9808714 0.1933933 -0.02214425 -0.9395074 0.3425059 -0.003941178 -0.9815142 0.1913495 -0.003939867 -0.9999969 0.001366436 0.002101004 -0.9999949 0.001038014 0.003020465 -0.9999967 0.002567827 2.06591e-4 -0.9999981 0.00165987 -0.001108467 -0.9999967 0.001224815 -0.00227642 -1 0 0 -1 0 0 0.7270966 0.6864585 0.01026535 0.7318279 0.681328 0.01483416 -0.7407965 0.6716655 -0.009280264 -0.6882821 0.7241696 0.04296952 -9.01105e-4 0.9999994 -6.92686e-4 0 1 -1.26789e-6 0 1 -1.13605e-6 -6.14399e-4 0.9999994 -0.0010432 -0.001144409 0.9999992 -5.7183e-4 4.94379e-4 0.9999994 0.001064121 5.42227e-4 0.9999999 -6.60952e-5 -7.15825e-4 0.9999998 8.62723e-5 -0.00108999 0.9999981 -0.001619577 -7.70499e-4 0.9999997 4.06913e-4 3.69873e-4 0.9987355 0.05027395 0.001410424 0.9999981 -0.001433134 0 1 -6.51226e-7 0 1 -1.34286e-6 0.001858472 0.9999976 -0.001159429 5.96843e-4 0.9999998 -3.1598e-4 9.06223e-6 0 -1 -4.71474e-6 0 -1 4.82994e-7 0 -1 2.94999e-6 0 -1 -2.48998e-6 0 -1 -0.003245234 0.1410661 -0.9899949 -0.009783685 0.1685386 -0.9856466 -1 -3.32936e-7 0 -1 5.21372e-7 0 1 0 0 1 0 0 1 0 0 1 0 0 1 0 0 1 0 0 1 0 0 1 0 0 -0.8147116 -0.02355676 0.5793879 -0.8167456 -0.06302714 0.5735453 -0.9369134 -0.02355986 0.3487667 -0.9710469 0.08846145 0.2219066 -0.8852417 0.05044901 0.4623875 -0.9748136 0.05044335 0.217242 -0.5347987 -0.05872786 -0.8429362 -0.5302181 -0.09133088 -0.8429279 -0.2980276 -0.05873316 -0.9527487 -0.06484276 0.08705163 -0.9940913 -0.3172824 0.05438369 -0.9467705 -0.06109607 0.05437767 -0.9966496 0.8162973 -0.03761458 -0.576406 0.8167662 -0.06554669 -0.5732337 0.9377124 -0.03762084 -0.3453697 0.9738038 0.04608434 -0.2226712 0.8853419 0.01665306 -0.4646424 0.9754287 0.01664984 -0.2196855 0.6621962 -0.01896166 0.7490906 0.6575095 -0.0553624 0.7514097 0.4457611 -0.01896446 0.8949511 0.3743913 0.0587871 0.9254055 0.5979887 0.02244365 0.8011903 0.3702397 0.02244043 0.9286652 -0.09790062 0.1038327 0.9897648 0.1628468 0.1086617 0.9806496 -0.09800887 0.1086657 0.9892351 -0.1105449 -0.02050465 0.9936597 -0.112491 0.001634359 0.9936514 -0.3639558 -0.02049994 0.9311906 -0.986018 0.006219863 -0.1665236 -0.984061 -0.03752815 -0.1738266 -0.9093418 0.006222605 -0.4160034 -0.9395974 0.009159147 -0.3421594 -0.9948237 -0.03559112 -0.09517979 -0.936253 -0.03558564 -0.3495198 0.08639532 0.03191649 -0.9957497 -0.1735482 0.04612821 -0.9837445 0.08720034 0.04613405 -0.9951221 0.2667704 -0.1069424 -0.9578084 0.26666 -0.1107308 -0.9574086 0.5068312 -0.1069374 -0.8553868 0.9857856 0.1219163 -0.1155997 0.9220941 0.11769 -0.3686349 0.9862917 0.1176957 -0.1156566 0.9405218 -0.1037543 0.3235025 0.9405386 -0.1035746 0.3235111 0.8239822 -0.1037511 0.557036 -0.009518623 -0.1208539 0.9926247 -0.009692609 -0.1301742 0.9914439 -0.2679096 -0.1208515 0.9558344 -0.9206514 0.1529573 0.359173 -0.7955139 0.1464427 0.5879729 -0.9215829 0.146447 0.359497 -0.9765725 -0.1397666 -0.1636202 -0.9762365 -0.1421851 -0.163541 -0.8998975 -0.1397595 -0.4131004 -0.06411725 0.1283798 -0.9896503 -0.3201218 0.1260038 -0.9389596 -0.06415462 0.1260113 -0.9899522 0.1692163 -0.06692874 -0.9833038 0.1699171 -0.05559474 -0.9838889 0.4184336 -0.06692278 -0.9057785 0.9974859 0.03980493 -0.0586301 0.9479848 0.04856067 -0.31459 0.9971195 0.04856598 -0.05825966 0.9980162 -0.06231325 0.008983492 0.9982756 -0.0579943 0.00909245 0.9615629 -0.06230801 0.2674222 0.3745768 0.07369434 0.9242627 0.6013466 0.07783412 0.7951881 0.3743577 0.07783859 0.9240116 -0.4147005 0.001230359 -0.9099572 -0.412194 -0.01176798 -0.9110202 -0.354715 0.001275241 -0.9349736 -0.3611752 0.00593698 -0.9324791 -0.4172809 -0.009801805 -0.9087247 -0.3573671 -0.009800791 -0.9339126 -0.210635 0.1659899 -0.9633693 -0.2087083 0.1540204 -0.9657735 -0.1467221 0.1658838 -0.9751693 -0.2223975 -0.001013576 -0.9749556 -0.2839566 -0.01026517 -0.9587822 -0.2210723 -0.01026642 -0.9752035 0.2189387 0.07575845 -0.9727932 0.2193189 0.07135242 -0.9730407 0.2818458 0.07581543 -0.9564596 0.2861021 0.0865274 -0.9542844 0.2234174 0.08405905 -0.9710915 0.2862468 0.08405762 -0.9544618 0.3489937 -0.04415208 -0.9360845 0.3496308 -0.05141836 -0.9354756 0.4091207 -0.0441845 -0.91141 0.4220886 0.009218335 -0.9065079 0.3639529 -0.001289725 -0.9314166 0.4236879 -0.001289844 -0.9058074 0.6651681 0.01237183 0.7465912 0.6659421 0.02994114 0.7454023 0.8223434 -0.02986192 0.5682075 0.7968986 0.02382063 0.6036434 0.6326467 0.1016758 0.7677371 0.79908 0.04268771 0.5997074 0.9993994 -0.03421539 -0.005500614 0.9698658 -0.09426027 0.224667 0.9991151 -0.04114294 -0.008737385 0.9820802 0.1145493 -0.1496562 0.9819322 0.1173537 -0.1484499 0.9164199 0.1411787 -0.3744906 0.6584381 -0.1023053 -0.7456493 0.8189174 -0.1013453 -0.5648925 0.659648 -0.09667533 -0.7453311 2.89799e-7 0 1 -2.84304e-6 0 1 0 -0.05112242 0.9986925 -1.7196e-4 -0.05258101 0.9986166 -0.04488134 0.02165561 0.9987577 0.04005503 0.0163697 0.9990634 -0.6612069 0.01498723 -0.750054 -0.6612391 0.02872407 -0.7496251 -0.8209952 -0.01475018 -0.5707448 -0.8306213 -0.01416879 -0.5566576 -0.6746403 0.03997004 -0.7370637 -0.8315901 5.23423e-4 -0.5553898 -0.9937683 0.02389454 0.1088743 -0.99152 -0.05934303 -0.1156142 -0.9932415 0.01229256 0.1154137 -0.9998658 -0.01540398 -0.005588173 -0.9996479 -0.02652627 6.61656e-4 -0.9730275 0.05489647 0.2240622 -0.8072486 -0.007880508 0.5901589 -0.8061783 0.00728327 0.5916278 -0.6426812 -0.04919409 0.7645528 -0.6279639 -0.03719758 0.7773531 -0.7954717 0.006188392 0.6059591 -0.6280937 -0.02321058 0.7777915 0 -1 6.07241e-7 0 -1 -1.77503e-6 0 -1 6.44967e-7 0 -1 -1.95628e-6 0 -1 3.01781e-7 0 -1 -1.62192e-6 0 -1 5.07048e-7 0 -1 2.92912e-7 0 -1 1.01077e-6 0 -1 6.69234e-7 0 -1 -1.47124e-6 0 -1 1.83888e-6 0 -1 -5.41376e-6 0 -1 4.55309e-7 0 -4.10183e-6 1 0 4.10182e-6 1 1 0 0 -1 0 0 0 1 0 0.9278584 0.004274368 -0.3729081 0.9298838 0 -0.3678533 -0.923895 0 -0.3826463 -0.9314308 0.01567298 -0.3635807 0.9983546 0.001820087 0.05731421 0.9999825 -0.005825757 0.001109659 6.10683e-6 -0.9999898 -0.004535257 0 -0.9999897 -0.004545152 0 0.8933064 0.4494482 0.01333653 0.8925099 0.4508306 -0.006252944 0.8928985 0.4502148 0 0.8925893 0.4508705 -2.44885e-5 0 -1 -2.58473e-5 0 -1 2.44885e-5 0 -1 0 -0.7351269 0.6779296 -0.006767332 -0.7733505 0.6339426 -3.78531e-4 0.9999997 -8.04274e-4 0 1 -1.88796e-4 0 0.992783 0.1199244 -2.79762e-5 0.9913287 0.1314054 0 1 -6.51078e-7 0 1 2.47784e-6 0 1 -1.50089e-6 0 1 8.08204e-7 -0.9979138 0.005103349 0.06435853 -0.9999945 -0.003288328 6.26356e-4 0 -1 1.81296e-6 0 -1 -2.23844e-6 0 -1 4.48863e-7 0 -1 -6.79161e-7 0 -1 -1.06679e-6 0 -1 -4.35248e-7 -0.9243761 -0.08241701 0.3724734 -0.9864945 -0.1094038 0.1218998 -0.9207576 -0.1094001 0.3744825 -0.9158945 0.1093955 0.3862252 -0.9170331 0.08240282 0.3902054 -0.7837866 0.1094009 0.6113184 -0.4032168 -0.08813273 0.9108507 -0.3862885 -0.01990646 0.9221633 -0.1527754 -0.08812892 0.9843236 -0.1862139 -0.1201902 0.9751302 -0.4220499 -0.05982136 0.9045968 -0.1731328 -0.05981636 0.9830805 0.6414268 0.05982667 0.764848 0.6487829 0.1202234 0.7514167 0.8177386 0.05983281 0.5724715 0.8486877 -0.1127349 0.51674 0.6996827 -0.05213624 0.7125489 0.8604163 -0.05212992 0.5069184 0.9830284 0.04385232 -0.1781358 0.9781208 0.09237444 -0.1864052 0.903343 0.04385811 -0.4266709 0.8080533 -0.1802554 -0.5608547 0.9307305 -0.1409821 -0.3374386 0.8102038 -0.1409879 -0.5689396 0.5237047 0.1536647 -0.8379265 0.5227655 0.1631557 -0.8367177 0.2860506 0.1536563 -0.9458144 -0.2483171 -0.1705994 -0.9535379 0.01074647 -0.1708791 -0.9852334 -0.248313 -0.1708724 -0.9534901 -0.2258253 0.05155855 -0.9728025 -0.2348834 0.004622995 -0.9720125 -0.4701704 0.05156457 -0.8810681 -0.8712632 -0.01353961 -0.4906293 -0.8773528 0.04587447 -0.4776482 -0.9685519 -0.01354545 -0.2484428 -0.9430431 0.0131033 -0.3324124 -0.8315584 0.07625299 -0.5501784 -0.9458453 0.07625573 -0.3155344 -0.1550605 -0.5033823 -0.8500369 -0.1856855 -0.5033171 -0.8439152 -0.1550612 -0.7084198 -0.6885473 0.09500616 -0.9251723 -0.3674642 0.05625808 -0.8040071 -0.5919524 0.05625867 -0.9299511 -0.3633536 -0.02386534 -0.5156121 0.8564898 0.00901848 -0.7168966 0.6971212 0.009018659 -0.5121214 0.8588658 -0.1732122 -0.4812104 0.859322 -0.1636416 -0.4815002 0.8610337 -0.173211 -0.2385994 0.9555461 0.1464641 0.9196848 0.3643187 0.1495209 0.7920107 0.5919143 0.1495265 0.9192949 0.3640587 -0.1786961 0.9786745 -0.1013113 -0.1885274 0.9768334 -0.1012627 -0.1786903 0.9176056 -0.3550629 0.1407801 0.3666184 -0.9196586 0.1229818 0.5943734 -0.79473 0.1229824 0.3666247 -0.9222048 -0.15506 -0.5033808 -0.8500378 -0.1856849 -0.5033157 -0.8439162 -0.1550607 -0.7084187 -0.6885486 0.09500616 -0.9251723 -0.3674644 0.05625808 -0.8040071 -0.5919526 0.05625873 -0.9299511 -0.3633539 0.009018421 -0.71693 0.6970868 0.009018659 -0.5121214 0.8588658 -0.03962802 -0.661722 0.7487015 -0.01106649 -0.6597323 0.7514193 -0.03962785 -0.4452614 0.8945233 -0.01742678 0.6426548 0.7659577 -0.05300855 0.6455371 0.7618871 -0.01742231 0.8189925 0.5735396 0.1214215 0.9214787 0.3689632 0.09273952 0.7981172 0.5953221 0.09273648 0.9254018 0.3674663 -0.08589446 0.9281042 -0.3622773 -0.106514 0.9257369 -0.3628583 -0.08589732 0.8021717 -0.5908827 0.1407801 0.3666185 -0.9196586 0.1229818 0.5943734 -0.79473 0.1229824 0.3666247 -0.9222048 0.9815135 0.1913529 0.003939867 0.9808708 0.1933967 0.02214413 0.9395063 0.3425092 0.003941178 0.9298189 0.3667997 -0.02991741 0.9756773 0.2188671 -0.01228624 0.9294349 0.3687819 -0.0122832 0.9999956 0.001366555 -0.002653062 0.9999976 0.001966178 -0.001082956 0.9999968 0.002520024 -2.07319e-4 0.9999979 0.001560568 0.001430213 0.9999967 0.001224756 0.002296447 1 -4.52381e-7 0 -0.9815145 0.1913475 -0.003939807 -0.9808719 0.1933913 -0.02214413 -0.9395081 0.342504 -0.003941178 -0.9298196 0.3667978 0.02991777 -0.9756779 0.2188652 0.0122866 -0.9294356 0.36878 0.0122835 -0.9999971 0.001224815 -0.002055346 -0.9999957 0.001366436 0.002651572 -0.9999976 0.001937687 0.00108242 -0.9999969 0.002511143 2.0748e-4 -0.9999971 0.001196086 -0.002136826 0.7407957 0.6716663 0.009280323 0.6882803 0.7241712 -0.0429697 -0.7270941 0.6864611 -0.01026493 -0.7318304 0.6813253 -0.01483571 -0.00124377 0.9999986 0.001120448 -7.94719e-5 0.9997808 -0.02094161 4.96886e-4 0.9999846 -0.005550205 0.001084089 0.9999992 6.96663e-4 0 1 -3.12267e-6 0 1 1.20638e-6 8.83349e-4 0.9999995 6.00816e-4 4.47359e-4 0.9999994 0.00110954 -5.51892e-4 0.9999999 -7.72217e-5 -6.02666e-4 0.9999998 2.13258e-4 8.51306e-4 0.9999997 2.40836e-4 8.23986e-4 0.9999998 1.16987e-4 0 1 1.0174e-6 -0.001425385 0.9999981 0.001353204 0 1 -2.65009e-6 0 1 9.17601e-7 0 1 -1.733e-5 0 1 -1.18286e-6 -0.002133309 0.9999976 7.22755e-4 0 1 2.45934e-7 -1.81244e-5 0 1 4.71474e-6 0 1 -8.69396e-7 0 1 -2.95e-6 0 1 2.48996e-6 0 1 0.003245294 0.141065 0.9899951 0.009783625 0.168537 0.9856468 -1 -3.66002e-7 0 -1 6.68378e-7 0 1 0 0 1 0 0 1 0 0 1 0 0 1 0 0 1 1.81171e-7 0 1 0 0 -0.01032274 0.09035575 -0.9958561 -0.2683253 0.09872078 -0.9582567 -0.009937047 0.09872734 -0.9950649 0.11668 -0.07162714 -0.9905834 0.1175357 -0.05869519 -0.9913326 0.3696625 -0.07162159 -0.9264017 0.9974859 0.03980416 -0.05863219 0.9479841 0.04856038 -0.314592 0.9971194 0.04856568 -0.05826187 0.9980157 -0.06231564 0.009028553 0.9982749 -0.05799889 0.009137392 0.9615507 -0.06230962 0.2674656 0.3247449 0.07912474 0.9424861 0.5578774 0.08505403 0.8255535 0.3243952 0.08506006 0.9420895 0.04204303 -0.1095799 0.9930886 0.04202294 -0.1082006 0.9932405 -0.2179125 -0.1095736 0.9697979 -0.9701677 0.1109539 0.215555 -0.8801916 0.1149561 0.4604868 -0.9697498 0.1149602 0.2153362 -0.9950653 -0.0987268 -0.009905934 -0.9958567 -0.09035235 -0.01029276 -0.958265 -0.09872126 -0.2682956 0.8950224 -0.06431633 -0.4413596 0.894563 -0.1037726 -0.4347279 0.9788525 -0.06432145 -0.1941918 0.992654 0.02654534 -0.1180405 0.9312471 -0.01704978 -0.3639892 0.9937211 -0.01704394 -0.1105795 0.3762367 0.05180221 0.9250743 0.601673 0.06878685 0.7957752 0.3746834 0.0687927 0.9245972 0.1982845 -0.11092 0.9738481 0.1982647 -0.1074824 0.9742375 -0.06208831 -0.1109124 0.9918889 -0.9053172 0.09681051 0.413556 -0.7665169 0.09930503 0.6345003 -0.9051169 0.09931164 0.4134015 -0.9533451 -0.0527426 0.2972397 -0.954353 -0.03674399 0.2964124 -0.9978048 -0.05273669 0.04005718 -0.4917747 0.03258645 -0.8701125 -0.4858787 -0.009298503 -0.873977 -0.2497345 0.03259217 -0.9677657 -0.2218987 0.08846288 -0.9710486 -0.4623804 0.05045098 -0.8852452 -0.2172342 0.05044531 -0.9748152 0.8607105 -0.001341521 -0.509093 0.7005988 0.01793426 -0.71333 0.8613188 0.01794034 -0.5077482 0.891285 -0.1092219 -0.4400928 0.8909758 -0.112281 -0.439949 0.9751163 -0.1092161 -0.1929252 0.7097802 0.1333675 0.6916828 0.8661172 0.1295498 0.4827606 0.7101488 0.1295544 0.6920292 0.1979933 -0.1434431 0.9696509 0.1976531 -0.1515538 0.9684858 -0.0623793 -0.1434366 0.9876917 -0.8511232 0.1451681 0.5044956 -0.6904582 0.1388418 0.7099229 -0.8519223 0.1388486 0.5049254 -0.9533453 -0.05274426 0.2972387 -0.9543532 -0.03674566 0.2964115 -0.9978047 -0.05273836 0.04005616 -0.491775 0.03258651 -0.8701124 -0.4858789 -0.009298443 -0.8739767 -0.2497349 0.03259223 -0.9677656 -0.3236118 0.03512644 -0.9455377 -0.5521862 -0.005639016 -0.8337017 -0.3176417 -0.005636215 -0.9481942 -0.1838537 0.01210016 0.9828792 -0.1843547 0.006464362 0.9828385 -0.2473163 0.01216334 0.9688584 -0.2861015 0.08652329 0.9542849 -0.2233701 0.08405458 0.9711028 -0.2862462 0.08405333 0.9544622 -0.3489962 -0.0441516 0.9360836 -0.3496333 -0.05141794 0.9354746 -0.4091668 -0.04418396 0.9113893 -0.4220876 0.009222865 0.9065082 -0.3639519 -0.001285195 0.9314169 -0.4236869 -0.001285314 0.9058079 0.4147002 0.00123316 0.9099574 0.4121936 -0.01176518 0.9110204 0.3547146 0.001278042 0.9349738 0.3611757 0.0059399 0.9324789 0.4173249 -0.009798943 0.9087045 0.3573675 -0.00979793 0.9339125 0.2106426 0.1659905 0.9633675 0.2087159 0.1540209 0.9657719 0.1467299 0.1658844 0.9751681 0.2318392 -0.02587926 0.9724099 0.2933438 -0.03453642 0.955383 0.2306261 -0.03453671 0.9724293 0.6604992 0.06069326 0.7483698 0.6594218 0.07068419 0.748443 0.8211103 0.04750305 0.5687894 0.9481649 -0.1216967 0.293553 0.8505607 -0.1268403 0.510351 0.9482887 -0.1150732 0.2958154 0.9960326 0.08814173 0.01225477 0.9962355 0.08592951 0.01145249 0.9667803 0.1224076 -0.2243933 0.8026481 -0.08713096 -0.5900544 0.7996731 -0.06659185 -0.5967316 0.6367305 -0.1589774 -0.7545201 0.691241 -0.04685384 -0.7211038 0.8418701 0.01108974 -0.5395664 0.6913024 -0.0284723 -0.7220045 4.71474e-6 0 -1 -6.76192e-7 0 -1 -2.94999e-6 0 -1 2.48998e-6 0 -1 0 -0.05111867 -0.9986926 1.74213e-4 -0.05258035 -0.9986168 0.04487282 0.02165579 -0.998758 -0.0843687 0.0914117 -0.9922328 -0.7928225 -0.07219845 -0.6051611 -0.6255497 -0.1208409 -0.7707692 -0.7937419 -0.07704144 -0.6033561 -0.9004587 0.1012109 -0.423002 -0.8986752 0.1084861 -0.4249867 -0.9729867 0.1140007 -0.2007508 -0.9991297 -0.03749585 0.01827681 -0.9751552 -0.001801848 -0.221516 -0.999511 -0.025451 0.01817071 -0.8555869 0.02705049 0.5169521 -0.8552235 0.04047095 0.516677 -0.7079558 1.73256e-4 0.7062567 -0.6612412 -0.02872717 0.7496232 -0.8209967 0.01474654 0.5707426 -0.6612088 -0.0149905 0.7500522 0 -1 -1.24701e-7 0 -1 -7.68156e-7 0 -1 6.16368e-7 0 -1 1.50722e-6 0 -1 -1.6557e-6 0 -1 4.10269e-5 0 -1 -9.25714e-7 0 -1 4.72336e-7 0 -1 -2.22783e-6 0 -1 -2.24705e-6 0 -1 1.97414e-6 0 -1 -3.2269e-7 0 -1 -7.52331e-7</float_array>
          <technique_common>
            <accessor source="#edf_torsional_300_top-mesh-normals-array" count="660" stride="3">
              <param name="X" type="float"/>
              <param name="Y" type="float"/>
              <param name="Z" type="float"/>
            </accessor>
          </technique_common>
        </source>
        <source id="edf_torsional_300_top-mesh-map-0">
          <float_array id="edf_torsional_300_top-mesh-map-0-array" count="3348">0 1.762219 -1.244173 1.762219 0 0 0 0 -1.244173 1.762219 -1.244173 0 0 1.762219 -2.6 1.762219 0 0 0 0 -2.6 1.762219 -2.6 0 0 1.762219 -1.244173 1.762219 0 0 0 0 -1.244173 1.762219 -1.244173 0 0 1.762219 -2.6 1.762219 0 0 0 0 -2.6 1.762219 -2.6 0 -0.627366 -0.95 -0.375 -0.75 -0.5821946 0.812166 1.725 -0.75 1.725 -0.35 -0.375 -0.75 -0.375 -0.75 1.725 -0.35 -0.5821946 0.812166 1.997603 2.6 0.75 2.1 2.028071 0 2.028071 0 0.75 2.1 0.75 0.5 0.75 2.1 -1.85 2.1 0.75 0.5 0.75 0.5 -1.85 2.1 -1.85 0.5 -0.93 0 0 0 -0.93 2.4 -0.93 2.4 0 0 0 2.4 -0.93 0 0 0 -0.93 2.4 -0.93 2.4 0 0 0 2.4 -0.93 0 0 0 -0.93 2.4 -0.93 2.4 0 0 0 2.4 -0.93 0 0 0 -0.93 2.4 -0.93 2.4 0 0 0 2.4 -0.465 -0.465 0.465 -0.465 -0.465 0.465 -0.465 0.465 0.465 -0.465 0.465 0.465 0 0 2.576773 0 0 0.3 0 0.3 2.576773 0 2.576773 0.3 1.15 -0.580896 1.15 0.580896 -1.15 -0.580896 0 0 2.576773 0 0 0.3 0 0.3 2.576773 0 2.576773 0.3 -1.15 -0.580896 1.15 -0.580896 -1.15 0.580896 0.8 0.562219 0.465 -0.702781 0.8 -1.2 0.8 -1.2 0.465 -0.702781 -0.465 -0.702781 0.8 -1.2 -0.465 -0.702781 -0.8 -1.2 -0.8 -1.2 -0.465 -0.702781 -0.8 0.562219 -0.8 0.562219 -0.465 -0.702781 -0.465 0.227219 -0.8 0.562219 -0.465 0.227219 0.465 0.227219 0.465 -0.702781 0.8 0.562219 0.465 0.227219 0.465 0.227219 0.8 0.562219 -0.8 0.562219 -1.95 -0.141421 0.65 -0.141421 -1.95 0.141421 -1.95 0.141421 0.65 -0.141421 0.65 0.141421 1.299122 2.1 0.00715667 2.6 0.009597659 0 1.299122 2.1 0.009597659 0 1.299122 0.5 1.299122 0.5 3.899122 0.5 1.299122 2.1 1.299122 2.1 3.899122 0.5 3.899122 2.1 0 2.3 1.161792 0.3 1.161792 2.3 1.161792 2.3 1.161792 0.3 1.162136 0 1.161792 2.3 1.162136 0 1.162163 2.6 0 2.3 0 0.3 1.161792 0.3 0.4 -0.07499998 -0.7330265 0.4113212 -1.9 -0.07499998 -1.9 -0.07499998 -0.7330265 0.4113212 -1.136686 0.6033489 0.4 1.925 -0.3373575 1.189242 0.4 -0.07499998 0.4 -0.07499998 -0.3373575 1.189242 -0.3392264 0.6347406 -1.9 1.925 -0.8352184 1.420705 0.4 1.925 0.4 1.925 -0.8352184 1.420705 -0.3373575 1.189242 -1.9 -0.07499998 -1.221901 1.099054 -1.9 1.925 0.4 -0.07499998 -0.3392264 0.6347406 -0.7330265 0.4113212 -1.136686 0.6033489 -1.221901 1.099054 -1.9 -0.07499998 -1.9 1.925 -1.221901 1.099054 -0.8352184 1.420705 -0.116184 -0.55 0.1057141 -0.75 0.09346443 1.012141 0.09346443 1.012141 -2.216184 -0.15 -0.116184 -0.55 -0.116184 -0.55 -2.216184 -0.15 -2.216184 -0.55 1.932369 -1.3 2.390587 -0.1493468 1.932369 1.3 1.932369 1.3 2.390587 -0.1493468 2.471595 0.2902588 4.032369 -1.3 2.708315 -0.4719014 1.932369 -1.3 4.032369 1.3 3.349343 0.1484375 4.032369 -1.3 4.032369 -1.3 3.349343 0.1484375 3.20402 -0.3866863 1.932369 1.3 2.928354 0.5008702 4.032369 1.3 2.928354 0.5008702 3.349343 0.1484375 4.032369 1.3 3.20402 -0.3866863 2.708315 -0.4719014 4.032369 -1.3 1.932369 -1.3 2.708315 -0.4719014 2.390587 -0.1493468 1.932369 1.3 2.471595 0.2902588 2.928354 0.5008702 0.4 1.558066 0 1.59726 0 1.147877 0.4 1.558066 0 1.147877 0.4 0.9856618 0.4 0.9856618 0 1.147877 0 0.5262281 0.4 0.9856618 0 0.5262281 0.4 0.3640125 0.4 0.3640125 0 0.5262281 0 -0.0891267 0.4 0.3640125 0 -0.0891267 0.4 -0.1857652 0.4 -0.1857652 0 -0.0891267 0 -0.6389029 0.4 -0.1857652 0 -0.6389029 0.4 -0.6700525 0.4 -0.6700525 0 -0.6389029 0.4 -1.147876 0.4 -1.147876 0 -0.6389029 0 -1.188681 0.4 -1.147876 0 -1.188681 0.4 -1.568091 0.4 -1.568091 0 -1.188681 0 -1.593136 -1.3 0.4 -1.3 0 -1 0.4 -1 0.4 -1.3 0 1.3 0 -1 0.4 1.3 0 1 0.4 1 0.4 1.3 0 1.3 0.4 0.93 -0.518363 1.365 -0.518363 0.93 -0.4167833 0.93 -0.4167833 1.365 -0.518363 1.365 -0.3166111 0.93 -0.4167833 1.365 -0.3166111 0.93 -0.2222694 0.93 -0.2222694 1.365 -0.3166111 1.365 -0.01426947 0.93 -0.2222694 1.365 -0.01426947 0.9300001 0.01427042 0.9300001 0.01427042 1.365 -0.01426947 1.365 0.2222677 0.9300001 0.01427042 1.365 0.2222677 0.93 0.3397907 0.93 0.3397907 1.365 0.2222677 1.365 0.438253 -0.435 -0.518363 0 -0.518363 -0.435 -0.4167833 -0.435 -0.4167833 0 -0.518363 0 -0.3166111 -0.435 -0.4167833 0 -0.3166111 -0.435 -0.2222694 -0.435 -0.2222694 0 -0.3166111 0 -0.01426947 -0.435 -0.2222694 0 -0.01426947 -0.435 0.01427042 -0.435 0.01427042 0 -0.01426947 0 0.2222677 -0.435 0.01427042 0 0.2222677 -0.435 0.3397907 -0.435 0.3397907 0 0.2222677 0 0.438253 0.6999999 0.2514021 -0.5 0.192006 0.7 -0.5006254 0.7 -0.5006254 -0.5 0.192006 -0.5 -0.5193926 2.408775 -0.1291013 1.504163 -0.6 2.614936 -0.06109845 2.614936 -0.06109845 1.504163 -0.6 3.265 -0.6 2.614936 -0.06109845 3.265 -0.6 3.265 0.6 2.614936 -0.06109845 3.265 0.6 2.51272 0.1483206 2.51272 0.1483206 3.265 0.6 1.504163 0.6 2.51272 0.1483206 1.504163 0.6 2.349704 0.03406351 2.349704 0.03406351 1.504163 0.6 1.504163 -0.6 2.349704 0.03406351 1.504163 -0.6 2.408775 -0.1291013 0.5 0.2513963 -0.7 0.1920003 0.5 -0.5006331 0.5 -0.5006331 -0.7 0.1920003 -0.6999999 -0.5194012 0.6931964 -0.1363586 0 -0.6 1.760837 -0.6 0.6931964 -0.1363586 1.760837 -0.6 0.8937447 -0.04655545 0.8937447 -0.04655545 1.760837 -0.6 1.760837 0.6 0.8937447 -0.04655545 1.760837 0.6 0.7777194 0.1483201 0.7777194 0.1483201 1.760837 0.6 0 0.6 0.7777194 0.1483201 0 0.6 0.614704 0.03406536 0.614704 0.03406536 0 0.6 0 -0.6 0.614704 0.03406536 0 -0.6 0.6931964 -0.1363586 0.4 -0.138478 -0.8 -0.138478 0.4 -0.565685 0.4 -0.565685 -0.8 -0.138478 -0.8 -0.565685 0.8 -0.138478 -0.4 -0.138478 0.8 -0.565685 0.8 -0.565685 -0.4 -0.138478 -0.4 -0.565685 1 1.7 0.4456914 2.159593 -0.2368465 1.658797 0.9366678 2.529966 0.5388932 2.365059 1 1.7 1 1.7 0.5388932 2.365059 0.4456914 2.159593 0.5388932 2.365059 0.9366678 2.529966 0.5466183 2.858902 0.5388932 2.365059 0.5466183 2.858902 0.3214952 2.425136 0.3214952 2.425136 0.5466183 2.858902 -0.01733493 2.691409 0.3214952 2.425136 -0.01733493 2.691409 0.2524363 2.231262 0.2524363 2.231262 -0.01733493 2.691409 -0.2368465 1.658797 0.2524363 2.231262 -0.2368465 1.658797 0.4456914 2.159593 -0.2368465 1.658797 -0.4472269 0.1444237 -0.3557847 -0.05221021 -0.9764229 0.00346744 -0.643996 0.03296941 -0.2368465 1.658797 -0.643996 0.03296941 -0.9764229 0.00346744 -0.1876888 -1.717064 -0.643996 0.03296941 -0.1876888 -1.717064 -0.5336809 -0.1547124 -0.5336809 -0.1547124 -0.1876888 -1.717064 -0.3557847 -0.05221021 -0.3557847 -0.05221021 -0.1876888 -1.717064 -0.2368465 1.658797 -0.1876888 -1.717064 -0.1245462 -2.573762 0.3214951 -2.174864 0.3214951 -2.174864 -0.1245462 -2.573762 0.2811782 -2.398051 0.2811782 -2.398051 -0.1245462 -2.573762 0.2248443 -2.850625 0.2811782 -2.398051 0.2248443 -2.850625 0.4844728 -2.434634 0.4844728 -2.434634 0.2248443 -2.850625 0.6553803 -2.838105 0.4844728 -2.434634 0.6553803 -2.838105 0.5388932 -2.234941 0.5388932 -2.234941 0.6553803 -2.838105 0.9271817 -2.546855 0.5388932 -2.234941 0.9271817 -2.546855 1 -1.7 0.5388932 -2.234941 1 -1.7 0.3214951 -2.174864 0.3214951 -2.174864 1 -1.7 -0.1876888 -1.717064 -0.643996 0.03296941 -0.4472269 0.1444237 -0.2368465 1.658797 -0.465 0.4025 0.9130858 -0.2946066 0.465 0.4025 0.465 0.4025 0.9130858 -0.2946066 0.9 1.6325 0.465 0.4025 0.9 1.6325 0.465 1.3325 0.465 1.3325 0.9 1.6325 -0.9 1.6325 0.465 1.3325 -0.9 1.6325 -0.465 1.3325 -0.465 1.3325 -0.9 1.6325 -0.465 0.4025 -0.465 0.4025 -0.9 1.6325 -0.9116154 -0.2759242 -0.465 0.4025 -0.9116154 -0.2759242 0.9130858 -0.2946066 0.9130858 -0.2946066 -0.9116154 -0.2759242 1.160167 -0.9925264 1.160167 -0.9925264 -0.9116154 -0.2759242 -1.130912 -0.9415864 1.160167 -0.9925264 -1.130912 -0.9415864 1.7 -1.6325 1.7 -1.6325 -1.130912 -0.9415864 -1.7 -1.6325 0.3931964 -0.1363586 0 -0.6 0.93 -0.6 0.3931964 -0.1363586 0.93 -0.6 0.5937446 -0.04655545 0.5937446 -0.04655545 0.93 -0.6 0.93 0.6 0.5937446 -0.04655545 0.93 0.6 0.4777194 0.1483201 0.4777194 0.1483201 0.93 0.6 0 0.6 0.4777194 0.1483201 0 0.6 0.314704 0.03406536 0.314704 0.03406536 0 0.6 0 -0.6 0.314704 0.03406536 0 -0.6 0.3931964 -0.1363586 0.93 0.6 0 0.6 0.93 -0.6 0.93 -0.6 0 0.6 0 -0.6 0.3737754 -0.1291013 0 -0.6 0.5799362 -0.06109845 0.5799362 -0.06109845 0 -0.6 0.93 -0.6 0.5799362 -0.06109845 0.93 -0.6 0.93 0.6 0.5799362 -0.06109845 0.93 0.6 0.4777204 0.1483206 0.4777204 0.1483206 0.93 0.6 0 0.6 0.4777204 0.1483206 0 0.6 0.3147045 0.03406351 0.3147045 0.03406351 0 0.6 0 -0.6 0.3147045 0.03406351 0 -0.6 0.3737754 -0.1291013 0.93 0.6 0 0.6 0.93 -0.6 0.93 -0.6 0 0.6 0 -0.6 1.8 0.6 0 0.6 1.8 -0.6 1.8 -0.6 0 0.6 0 -0.6 0.5 0.4741652 0 0.4647655 0.5 0.2073407 0.5 0.2073407 0 0.4647655 0 0.1687355 0.5 0.2073407 0 0.1687355 0.5 -0.05920851 0.5 -0.05920851 0 0.1687355 0 -0.09664052 0.5 -0.05920851 0 -0.09664052 0.5 -0.3036137 0.5 -0.3036137 0 -0.09664052 0 -0.3194705 0.5 -0.3036137 0 -0.3194705 0.5 -0.4835174 0.5 -0.4835174 0 -0.3194705 0 -0.4951224 0.5 -0.460138 0 -0.3622595 0 -0.534071 0.5 0.534071 0 0.3704279 0.5 0.3622595 0.5 0.3622595 0 0.3704279 0.5 0.07431149 0.5 0.07431149 0 0.3704279 0 0.1046607 0.5 0.07431149 0 0.1046607 0 -0.09520387 0.5 0.07431149 0 -0.09520387 0.5 -0.2137752 0.5 -0.2137752 0 -0.09520387 0 -0.3622595 0.5 -0.2137752 0 -0.3622595 0.5 -0.460138 0.5 0.534071 0 0.4857212 0.5 0.3622595 0.5 0.3622595 0 0.4857212 0 0.1926865 0.5 0.3622595 0 0.1926865 0.5 0.07431137 0.5 0.07431137 0 0.1926865 0 -0.1183328 0.5 0.07431137 0 -0.1183328 0.5 -0.1718339 0.5 -0.1718339 0 -0.1183328 0 -0.3404008 0.5 -0.1718339 0 -0.3404008 0.5 -0.4169594 0.5 -0.4169594 0 -0.3404008 0 -0.4951314 0.5 2.238452 0 2.238452 0.5 1.189168 0.5 1.189168 0 2.238452 0 1.049291 0.5 1.189168 0 1.049291 0.5 0 0.5 0 0 1.049291 0 0 0.5 2.238452 0 2.238452 0.5 1.189159 0.5 1.189159 0 2.238452 0 1.049284 0.5 1.189159 0 1.049284 0.5 0 0.5 0 0 1.049284 0 0 -0.5 0.2428361 0 0.2399948 -0.5 0.7887842 -0.5 0.7887842 0 0.2399948 0 0.6765432 -0.5 0.7887842 0 0.6765432 0 1.127027 -0.5 0.7887842 0 1.127027 -0.5 1.432703 -0.5 1.432703 0 1.127027 0 1.596449 1.835 2.535 3.213087 1.837886 2.765 2.535 2.765 2.535 3.213087 1.837886 3.2 3.765 2.765 2.535 3.2 3.765 2.765 3.465 2.765 3.465 3.2 3.765 1.4 3.765 2.765 3.465 1.4 3.765 1.835 3.465 1.835 3.465 1.4 3.765 1.835 2.535 1.835 2.535 1.4 3.765 1.388385 1.856584 1.835 2.535 1.388385 1.856584 3.213087 1.837886 3.213087 1.837886 1.388385 1.856584 3.46017 1.139969 3.46017 1.139969 1.388385 1.856584 1.16909 1.190919 3.46017 1.139969 1.16909 1.190919 4 0.5 4 0.5 1.16909 1.190919 0.6 0.5 4 0.5 0.6 0.5 4.6 0 4.6 0 0.6 0.5 0 -0.229198 0 -0.229198 0.6 0.5 0 0.5 4.6 0 4.6 0.5 4 0.5 -0.5 -1.596449 0 -1.571352 -0.5 -1.127029 -0.5 -1.127029 0 -1.571352 0 -1.160552 -0.5 -1.127029 0 -1.160552 0 -0.7184436 -0.5 -1.127029 0 -0.7184436 -0.5 -0.6765432 -0.5 -0.6765432 0 -0.7184436 -0.5 -0.26262 -0.5 -0.26262 0 -0.7184436 0 -0.229198 -0.2485386 -2.27349 -0.1907979 -2.850467 0.1138355 -2.59618 -0.1907979 -2.850467 -0.2485386 -2.27349 -0.3318019 -2.447903 -0.1907979 -2.850467 -0.3318019 -2.447903 -0.6149572 -2.848247 -0.6149572 -2.848247 -0.3318019 -2.447903 -0.5179119 -2.398691 -0.6149572 -2.848247 -0.5179119 -2.398691 -0.9402626 -2.517062 -0.5179119 -2.398691 -0.459878 -2.172289 -0.9402626 -2.517062 -0.9402626 -2.517062 -0.459878 -2.172289 -0.5346308 2.215526 -0.5346308 2.215526 -0.459878 -2.172289 -0.3214951 2.174864 -0.3214951 2.174864 -0.459878 -2.172289 0.3663834 -0.08556646 0.3663834 -0.08556646 -0.459878 -2.172289 -0.2485386 -2.27349 0.3663834 -0.08556646 -0.2485386 -2.27349 0.4641262 -1.404647 0.4641262 -1.404647 -0.2485386 -2.27349 0.1138355 -2.59618 -0.3214951 2.174864 0.1245462 2.573762 -0.3195065 2.41598 -0.3195065 2.41598 0.1245462 2.573762 -0.2248461 2.850625 -0.3195065 2.41598 -0.2248461 2.850625 -0.5330106 2.39399 -0.5330106 2.39399 -0.2248461 2.850625 -0.6553803 2.838105 -0.5330106 2.39399 -0.6553803 2.838105 -0.5346308 2.215526 -0.5346308 2.215526 -0.6553803 2.838105 -0.9339926 2.525762 -0.3214951 2.174864 0.5086669 1.272156 0.1245462 2.573762 0.5086669 1.272156 -0.3214951 2.174864 0.4191524 0.1232851 0.4191524 0.1232851 -0.3214951 2.174864 0.3663834 -0.08556646 -0.9402626 -2.517062 -0.5346308 2.215526 -0.9339926 2.525762 0.6404065 0.04568934 0.976423 -0.003468334 0.5086669 1.272156 0.6404065 0.04568934 0.5086669 1.272156 0.4191524 0.1232851 0.976423 -0.003468334 0.6404065 0.04568934 0.4641262 -1.404647 0.4641262 -1.404647 0.6404065 0.04568934 0.54819 -0.1508247 0.4641262 -1.404647 0.54819 -0.1508247 0.3663834 -0.08556646 0.465 0.465 -0.465 0.465 0.465 -0.465 0.465 -0.465 -0.465 0.465 -0.465 -0.465 0 0 0.93 0 0.9300001 54.7 0 0 0.9300001 54.7 0 54.7 0 0 0.93 0 0 54.7 0 54.7 0.93 0 0.93 54.7 0 0 0.93 0 0.9300001 54.7 0 0 0.9300001 54.7 0 54.7 0 0 0.93 0 0 54.7 0 54.7 0.93 0 0.93 54.7 0.465 0.465 -0.465 0.465 0.465 -0.465 0.465 -0.465 -0.465 0.465 -0.465 -0.465 1.244173 1.762219 0 1.762219 1.244173 0 1.244173 0 0 1.762219 0 0 2.6 1.762219 0 1.762219 2.6 0 2.6 0 0 1.762219 0 0 1.244173 1.762219 0 1.762219 1.244173 0 1.244173 0 0 1.762219 0 0 2.6 1.762219 0 1.762219 2.6 0 2.6 0 0 1.762219 0 0 0.375 -0.75 0.5981479 -0.9499999 0.5873522 0.8121315 0.5873522 0.8121315 -1.725 -0.35 0.375 -0.75 0.375 -0.75 -1.725 -0.35 -1.725 -0.75 -0.75 2.1 -2.026821 2.6 -1.998878 0 -0.75 2.1 -1.998878 0 -0.75 0.5 -0.75 0.5 1.85 0.5 -0.75 2.1 -0.75 2.1 1.85 0.5 1.85 2.1 0 0 0.93 0 0 2.4 0 2.4 0.93 0 0.93 2.4 0 0 0.93 0 0 2.4 0 2.4 0.93 0 0.93 2.4 0 0 0.93 0 0 2.4 0 2.4 0.93 0 0.93 2.4 0 0 0.93 0 0 2.4 0 2.4 0.93 0 0.93 2.4 0.465 0.465 -0.465 0.465 0.465 -0.465 0.465 -0.465 -0.465 0.465 -0.465 -0.465 -2.576773 0 0 0 -2.576773 0.3 -2.576773 0.3 0 0 0 0.3 -1.15 0.580896 -1.15 -0.580896 1.15 -0.580896 -2.576773 0 0 0 -2.576773 0.3 -2.576773 0.3 0 0 0 0.3 -1.15 -0.580896 1.15 -0.580896 1.15 0.580896 -0.8 -1.2 -0.465 -0.702781 -0.8 0.562219 -0.8 0.562219 -0.465 -0.702781 -0.465 0.227219 -0.8 0.562219 -0.465 0.227219 0.465 0.227219 -0.8 -1.2 0.8 -1.2 -0.465 -0.702781 -0.465 -0.702781 0.8 -1.2 0.465 -0.702781 0.465 -0.702781 0.8 -1.2 0.8 0.562219 0.465 -0.702781 0.8 0.562219 0.465 0.227219 0.465 0.227219 0.8 0.562219 -0.8 0.562219 1.95 0.141421 -0.65 0.141421 1.95 -0.141421 1.95 -0.141421 -0.65 0.141421 -0.65 -0.141421 -0.01228642 2.6 -1.299122 2.1 -0.00549221 0 -0.00549221 0 -1.299122 2.1 -1.299122 0.5 -1.299122 2.1 -3.899122 2.1 -1.299122 0.5 -1.299122 0.5 -3.899122 2.1 -3.899122 0.5 0 2.3 -1.161792 2.3 0 0.3 0 0.3 -1.161792 2.3 -1.161792 0.3 -1.161792 0.3 -1.161792 2.3 -1.162171 0 -1.161792 2.3 -1.162124 2.6 -1.162171 0 1.9 -0.07499998 0.6944419 0.4073144 -0.4 -0.07499998 -0.4 -0.07499998 0.6944419 0.4073144 0.363312 0.6033511 1.9 1.925 1.21834 1.070238 1.9 -0.07499998 1.9 -0.07499998 1.21834 1.070238 1.07165 0.5383132 -0.4 1.925 0.7959851 1.42587 1.9 1.925 -0.4 -0.07499998 0.3161326 1.153463 -0.4 1.925 0.7959851 1.42587 1.21834 1.070238 1.9 1.925 1.07165 0.5383132 0.6944419 0.4073144 1.9 -0.07499998 0.363312 0.6033511 0.3161326 1.153463 -0.4 -0.07499998 -0.4 1.925 0.3161326 1.153463 0.7959851 1.42587 -0.134907 -0.75 0.116184 -0.55 -0.0893377 1.012172 2.216184 -0.55 2.216184 -0.15 0.116184 -0.55 0.116184 -0.55 2.216184 -0.15 -0.0893377 1.012172 -1.932369 1.3 -2.404576 -0.1040069 -1.932369 -1.3 -4.032369 1.3 -2.836384 0.5008708 -1.932369 1.3 -4.032369 -1.3 -3.396046 -0.016972 -4.032369 1.3 -4.032369 1.3 -3.396046 -0.016972 -3.257697 0.3492199 -1.932369 -1.3 -2.797152 -0.4957051 -4.032369 -1.3 -4.032369 -1.3 -2.797152 -0.4957051 -3.233592 -0.3752281 -2.836384 0.5008708 -2.477025 0.3267747 -1.932369 1.3 -1.932369 1.3 -2.477025 0.3267747 -2.404576 -0.1040069 -1.932369 -1.3 -2.404576 -0.1040069 -2.797152 -0.4957051 -4.032369 -1.3 -3.233592 -0.3752281 -3.396046 -0.016972 -4.032369 1.3 -3.257697 0.3492199 -2.836384 0.5008708 -0.4 -1.558067 0 -1.649336 0 -1.285325 -0.4 -1.558067 0 -1.285325 -0.4 -1.180806 -0.4 -1.180806 0 -1.285325 -0.4 -0.7117131 -0.4 -0.7117131 0 -1.285325 0 -0.6672313 -0.4 -0.7117131 0 -0.6672313 -0.4 -0.08912527 -0.4 -0.08912527 0 -0.6672313 0 -0.04831969 -0.4 -0.08912527 0 -0.04831969 -0.4 0.3951645 -0.4 0.3951645 0 -0.04831969 0 0.5697758 -0.4 0.3951645 0 0.5697758 -0.4 0.8075005 -0.4 0.8075005 0 0.5697758 0 1.188678 -0.4 0.8075005 0 1.188678 -0.4 1.218329 -0.4 1.218329 0 1.188678 -0.4 1.568095 -0.4 1.568095 0 1.188678 0 1.593138 1.3 0.4 1 0.4 1.3 0 1.3 0 1 0.4 -1 0.4 1.3 0 -1 0.4 -1.3 0 -1.3 0 -1 0.4 -1.3 0.4 -0.93 0.4810352 -1.365 0.4510968 -0.93 0.2475148 -0.93 0.2475148 -1.365 0.4510968 -1.365 0.2311714 -0.93 0.2475148 -1.365 0.2311714 -1.365 -0.02896434 -0.93 0.2475148 -1.365 -0.02896434 -0.93 -0.1204699 -0.93 -0.1204699 -1.365 -0.02896434 -1.365 -0.3100741 -0.93 -0.1204699 -1.365 -0.3100741 -0.9300001 -0.4510974 -0.9300001 -0.4510974 -1.365 -0.3100741 -1.365 -0.481036 0.435 0.4810352 0 0.4510968 0.435 0.2475148 0.435 0.2475148 0 0.4510968 0 0.2311714 0.435 0.2475148 0 0.2311714 0 -0.02896434 0.435 0.2475148 0 -0.02896434 0.435 -0.03691285 0.435 -0.03691285 0 -0.02896434 0.435 -0.2311714 0.435 -0.2311714 0 -0.02896434 0 -0.3100741 0.435 -0.2311714 0 -0.3100741 0.435 -0.4510974 0.435 -0.4510974 0 -0.3100741 0 -0.481036 -0.7 -0.5193926 0.5 -0.5006254 -0.7 0.1920064 -0.7 0.1920064 0.5 -0.5006254 0.5 0.2514021 -2.455425 -0.1361587 -3.265 -0.6 -1.504163 -0.6 -2.455425 -0.1361587 -1.504163 -0.6 -2.344206 0.02678155 -2.344206 0.02678155 -1.504163 -0.6 -1.504163 0.6 -2.344206 0.02678155 -1.504163 0.6 -2.465935 0.1502956 -2.465935 0.1502956 -1.504163 0.6 -3.265 0.6 -2.465935 0.1502956 -3.265 0.6 -2.637081 0.009304523 -2.637081 0.009304523 -3.265 0.6 -3.265 -0.6 -2.637081 0.009304523 -3.265 -0.6 -2.455425 -0.1361587 -0.5 -0.5194012 0.7 -0.5006331 -0.5 0.1920003 -0.5 0.1920003 0.7 -0.5006331 0.7 0.2513964 -0.7204238 -0.1361582 -1.760837 -0.6 0 -0.6 -0.7204238 -0.1361582 0 -0.6 -0.6092063 0.02678149 -0.6092063 0.02678149 0 -0.6 0 0.6 -0.6092063 0.02678149 0 0.6 -0.789054 0.1347743 -0.789054 0.1347743 0 0.6 -1.760837 0.6 -0.789054 0.1347743 -1.760837 0.6 -0.9113892 -0.04677248 -0.9113892 -0.04677248 -1.760837 0.6 -1.760837 -0.6 -0.9113892 -0.04677248 -1.760837 -0.6 -0.7204238 -0.1361582 0.8 -0.138478 -0.4 -0.138478 0.8 -0.565685 0.8 -0.565685 -0.4 -0.138478 -0.4 -0.565685 0.4 -0.138478 -0.8 -0.138478 0.4 -0.565685 0.4 -0.565685 -0.8 -0.138478 -0.8 -0.565685 0.1876873 1.717067 -0.4806646 2.18429 -1 1.7 0.2368468 -1.658797 0.3826798 -0.09878933 0.1876873 1.717067 0.1876873 1.717067 0.3826798 -0.09878933 0.3999409 0.1163438 -1 -1.7 -0.3270638 -2.159092 0.2368468 -1.658797 -0.8509687 -2.628554 -0.5164417 -2.191821 -1 -1.7 -0.8509687 -2.628554 -0.4806645 -2.41571 -0.5164417 -2.191821 -0.4806645 -2.41571 -0.8509687 -2.628554 -0.2656397 -2.861975 -0.4806645 -2.41571 -0.2656397 -2.861975 -0.2555594 -2.352455 -0.2555594 -2.352455 -0.2656397 -2.861975 0.1138322 -2.596188 -0.2555594 -2.352455 0.1138322 -2.596188 0.2368468 -1.658797 -0.2555594 -2.352455 0.2368468 -1.658797 -0.3270638 -2.159092 0.2368468 -1.658797 0.5855857 -0.1332138 0.3826798 -0.09878933 0.9764202 -0.003468453 0.5855857 -0.1332138 0.2368468 -1.658797 0.1876873 1.717067 0.6236162 0.08067351 0.9764202 -0.003468453 0.1876873 1.717067 0.3999409 0.1163438 0.6236162 0.08067351 -0.2248455 2.850626 -0.2555595 2.247545 0.1245418 2.573771 0.1245418 2.573771 -0.2555595 2.247545 0.1876873 1.717067 -0.2555595 2.247545 -0.2248455 2.850626 -0.3270639 2.440908 -0.3270639 2.440908 -0.2248455 2.850626 -0.5164417 2.408179 -0.5164417 2.408179 -0.2248455 2.850626 -0.6553742 2.838108 -0.5164417 2.408179 -0.6553742 2.838108 -0.4806646 2.18429 -0.4806646 2.18429 -0.6553742 2.838108 -0.9271832 2.546852 -0.4806646 2.18429 -0.9271832 2.546852 -1 1.7 0.6236162 0.08067351 0.5855857 -0.1332138 0.9764202 -0.003468453 0.1876873 1.717067 -0.2555595 2.247545 -0.4806646 2.18429 -1 -1.7 -0.5164417 -2.191821 -0.3270638 -2.159092 -0.465 0.4025 0.9130864 -0.2946143 0.465 0.4025 0.465 0.4025 0.9130864 -0.2946143 0.9 1.6325 0.465 0.4025 0.9 1.6325 0.465 1.3325 0.465 1.3325 0.9 1.6325 -0.9 1.6325 0.465 1.3325 -0.9 1.6325 -0.465 1.3325 -0.465 1.3325 -0.9 1.6325 -0.465 0.4025 -0.465 0.4025 -0.9 1.6325 -0.9116147 -0.2759155 -0.465 0.4025 -0.9116147 -0.2759155 0.9130864 -0.2946143 0.9130864 -0.2946143 -0.9116147 -0.2759155 1.16017 -0.9925314 1.16017 -0.9925314 -0.9116147 -0.2759155 -1.130909 -0.9415814 1.16017 -0.9925314 -1.130909 -0.9415814 1.7 -1.6325 1.7 -1.6325 -1.130909 -0.9415814 -1.7 -1.6325 -0.4204238 -0.1361582 -0.93 -0.6 0 -0.6 -0.4204238 -0.1361582 0 -0.6 -0.3092063 0.02678149 -0.3092063 0.02678149 0 -0.6 0 0.6 -0.3092063 0.02678149 0 0.6 -0.489054 0.1347743 -0.489054 0.1347743 0 0.6 -0.93 0.6 -0.489054 0.1347743 -0.93 0.6 -0.6113892 -0.04677248 -0.6113892 -0.04677248 -0.93 0.6 -0.93 -0.6 -0.6113892 -0.04677248 -0.93 -0.6 -0.4204238 -0.1361582 -0.93 -0.6 0 -0.6 -0.93 0.6 -0.93 0.6 0 -0.6 0 0.6 -0.4204245 -0.1361587 -0.93 -0.6 0 -0.6 -0.4204245 -0.1361587 0 -0.6 -0.3785755 0.09716814 -0.3785755 0.09716814 0 -0.6 0 0.6 -0.3785755 0.09716814 0 0.6 -0.93 0.6 -0.3785755 0.09716814 -0.93 0.6 -0.6020812 0.009304523 -0.6020812 0.009304523 -0.93 0.6 -0.93 -0.6 -0.6020812 0.009304523 -0.93 -0.6 -0.4204245 -0.1361587 -0.93 -0.6 0 -0.6 -0.93 0.6 -0.93 0.6 0 -0.6 0 0.6 -1.8 -0.6 0 -0.6 -1.8 0.6 -1.8 0.6 0 -0.6 0 0.6 -0.5 0.4277522 0 0.3620572 0 0.534071 -0.5 -0.5213332 0 -0.4173426 -0.5 -0.3639776 -0.5 -0.3639776 0 -0.4173426 0 -0.1936714 -0.5 -0.3639776 0 -0.1936714 -0.5 -0.1188175 -0.5 -0.1188175 0 -0.1936714 0 0.05325549 -0.5 -0.1188175 0 0.05325549 -0.5 0.1465634 -0.5 0.1465634 0 0.05325549 0 0.3620572 -0.5 0.1465634 0 0.3620572 -0.5 0.4277522 -0.5 -0.4624739 0 -0.4277631 -0.5 -0.1633575 -0.5 -0.1633575 0 -0.4277631 0 -0.1936697 -0.5 -0.1633575 0 -0.1936697 0 0.03146439 -0.5 -0.1633575 0 0.03146439 -0.5 0.1273242 -0.5 0.1273242 0 0.03146439 0 0.3202973 -0.5 0.1273242 0 0.3202973 -0.5 0.3484234 -0.5 0.3484234 0 0.3202973 -0.5 0.5172144 -0.5 0.5172144 0 0.3202973 0 0.5213408 -0.5 -0.4624739 0 -0.4711666 0 -0.2826837 -0.5 -0.4624739 0 -0.2826837 -0.5 -0.1633576 -0.5 -0.1633576 0 -0.2826837 0 -0.01466494 -0.5 -0.1633576 0 -0.01466494 -0.5 0.1273242 -0.5 0.1273242 0 -0.01466494 0 0.3202973 -0.5 0.1273242 0 0.3202973 -0.5 0.3484235 -0.5 0.3484235 0 0.3202973 -0.5 0.5172143 -0.5 0.5172143 0 0.3202973 0 0.5213409 -0.5 0 0 0 -0.5 1.049285 -0.5 1.049285 0 0 0 1.189551 -0.5 1.049285 0 1.189551 -0.5 2.238452 -0.5 2.238452 0 1.189551 0 2.238452 -0.5 0 0 0 -0.5 1.049277 -0.5 1.049277 0 0 0 1.189544 -0.5 1.049277 0 1.189544 -0.5 2.238452 -0.5 2.238452 0 1.189544 0 2.238452 0.5 1.596439 0 1.500993 0.5 1.127028 0.5 1.127028 0 1.500993 0 0.8635496 0.5 1.127028 0 0.8635496 0.5 0.6765501 0.5 0.6765501 0 0.8635496 0.5 0.2626159 0.5 0.2626159 0 0.8635496 0 0.2291958 -2.765 2.535 -1.386914 1.837893 -1.835 2.535 -1.835 2.535 -1.386914 1.837893 -1.4 3.765 -1.835 2.535 -1.4 3.765 -1.835 3.465 -1.835 3.465 -1.4 3.765 -3.2 3.765 -1.835 3.465 -3.2 3.765 -2.765 3.465 -2.765 3.465 -3.2 3.765 -2.765 2.535 -2.765 2.535 -3.2 3.765 -3.211616 1.856576 -2.765 2.535 -3.211616 1.856576 -1.386914 1.837893 -1.386914 1.837893 -3.211616 1.856576 -1.139833 1.139974 -1.139833 1.139974 -3.211616 1.856576 -3.430912 1.190913 -1.139833 1.139974 -3.430912 1.190913 -0.6 0.5 -0.6 0.5 -3.430912 1.190913 -4 0.5 -0.6 0.5 -4 0.5 0 -0.2399926 0 -0.2399926 -4 0.5 -4.6 0 -4.6 0 -4 0.5 -4.6 0.5 0 -0.2399926 0 0.5 -0.6 0.5 0.5 -0.3783065 0 -0.2399926 0 -0.67655 0.5 -0.3783065 0 -0.67655 0.5 -1.083523 0.5 -1.083523 0 -0.67655 0 -1.127028 0.5 -1.083523 0 -1.127028 0.5 -1.571343 0.5 -1.571343 0 -1.127028 0 -1.596438 0.2483476 -2.347029 -0.1245419 -2.57377 0.2248454 -2.850627 0.2483476 -2.347029 0.2248454 -2.850627 0.3851073 -2.462186 0.3851073 -2.462186 0.2248454 -2.850627 0.5405398 -2.312001 0.5405398 -2.312001 0.2248454 -2.850627 0.6553742 -2.838108 0.5405398 -2.312001 0.6553742 -2.838108 0.9339942 -2.52576 0.3543069 -2.159593 -0.5100491 -1.272216 0.2483476 -2.347029 0.2483476 -2.347029 -0.5100491 -1.272216 -0.1245419 -2.57377 -0.5100491 -1.272216 0.3543069 -2.159593 -0.3595913 0.04568719 -0.3595913 0.04568719 0.3543069 -2.159593 0.4681978 2.152098 0.4681978 2.152098 0.3543069 -2.159593 0.5405398 -2.312001 0.4681978 2.152098 0.5405398 -2.312001 0.9339942 -2.52576 -0.06792443 2.648406 0.2763814 2.21933 0.4743438 2.860649 0.4743438 2.860649 0.2763814 2.21933 0.354307 2.440407 0.4743438 2.860649 0.354307 2.440407 0.550786 2.328485 0.4743438 2.860649 0.550786 2.328485 0.9402626 2.51706 0.9402626 2.51706 0.550786 2.328485 0.4681978 2.152098 0.4681978 2.152098 0.2763814 2.21933 -0.3595913 0.04568719 -0.3595913 0.04568719 0.2763814 2.21933 -0.4652647 1.405434 -0.4652647 1.405434 0.2763814 2.21933 -0.06792443 2.648406 -0.5785673 0.1254037 -0.9764207 0.003464818 -0.6190522 -0.09768778 -0.6190522 -0.09768778 -0.9764207 0.003464818 -0.5100491 -1.272216 -0.6190522 -0.09768778 -0.5100491 -1.272216 -0.4318037 -0.1479032 -0.4318037 -0.1479032 -0.5100491 -1.272216 -0.3595913 0.04568719 -0.9764207 0.003464818 -0.5785673 0.1254037 -0.4652647 1.405434 -0.4652647 1.405434 -0.5785673 0.1254037 -0.3595913 0.04568719 0.9339942 -2.52576 0.9402626 2.51706 0.4681978 2.152098</float_array>
          <technique_common>
            <accessor source="#edf_torsional_300_top-mesh-map-0-array" count="1674" stride="2">
              <param name="S" type="float"/>
              <param name="T" type="float"/>
            </accessor>
          </technique_common>
        </source>
        <vertices id="edf_torsional_300_top-mesh-vertices">
          <input semantic="POSITION" source="#edf_torsional_300_top-mesh-positions"/>
        </vertices>
        <triangles material="ABS__White__014-material" count="546">
          <input semantic="VERTEX" source="#edf_torsional_300_top-mesh-vertices" offset="0"/>
          <input semantic="NORMAL" source="#edf_torsional_300_top-mesh-normals" offset="1"/>
          <input semantic="TEXCOORD" source="#edf_torsional_300_top-mesh-map-0" offset="2" set="0"/>
          <p>0 0 0 1 0 1 3 0 2 3 1 3 1 1 4 2 1 5 4 2 6 0 2 7 5 2 8 5 2 9 0 2 10 3 2 11 6 3 12 7 3 13 9 3 14 9 4 15 7 4 16 8 4 17 7 5 18 10 5 19 8 5 20 8 5 21 10 5 22 11 5 23 1 6 24 12 6 25 2 6 26 13 2 27 14 2 28 12 2 29 12 7 30 14 7 31 2 7 32 1 8 33 0 8 34 6 8 35 6 9 36 0 9 37 7 9 38 0 10 39 4 10 40 7 10 41 7 10 42 4 10 43 10 10 44 15 11 45 16 11 46 18 11 47 18 11 48 16 11 49 17 11 50 16 5 51 19 5 52 17 5 53 17 5 54 19 5 55 20 5 56 19 10 57 21 10 58 20 10 59 20 10 60 21 10 61 22 10 62 21 2 63 15 2 64 22 2 65 22 2 66 15 2 67 18 2 68 18 12 69 17 12 70 22 12 71 22 12 72 17 12 73 20 12 74 2 13 75 14 13 76 24 13 77 24 14 78 14 14 79 23 14 80 25 5 81 24 5 82 23 5 83 26 15 84 9 15 85 28 15 86 28 16 87 9 16 88 27 16 89 29 2 90 28 2 91 27 2 92 5 17 93 16 17 94 4 17 95 4 12 96 16 12 97 15 12 98 4 12 99 15 12 100 10 12 101 10 12 102 15 12 103 11 12 104 11 12 105 15 12 106 21 12 107 11 12 108 21 12 109 19 12 110 16 12 111 5 12 112 19 12 113 19 12 114 5 12 115 11 12 116 1 18 117 6 18 118 12 18 119 12 19 120 6 19 121 30 19 122 3 20 123 2 20 124 9 20 125 3 21 126 9 21 127 8 21 128 8 11 129 11 11 130 3 11 131 3 11 132 11 11 133 5 11 134 25 22 135 27 22 136 24 22 137 24 23 138 27 23 139 9 23 140 24 24 141 9 24 142 2 24 143 25 22 144 29 22 145 27 22 146 23 11 147 34 11 148 25 11 149 25 11 150 34 11 151 35 11 152 28 11 153 32 11 154 23 11 155 23 25 156 32 25 157 33 25 158 29 11 159 31 11 160 28 11 161 28 11 162 31 11 163 32 11 164 25 26 165 36 26 166 29 26 167 23 27 168 33 27 169 34 27 170 35 11 171 36 11 172 25 11 173 29 11 174 36 11 175 31 11 176 30 28 177 6 28 178 9 28 179 9 29 180 26 29 181 30 29 182 30 5 183 26 5 184 37 5 185 30 10 186 42 10 187 12 10 188 12 30 189 42 30 190 43 30 191 37 10 192 41 10 193 30 10 194 13 10 195 39 10 196 37 10 197 37 31 198 39 31 199 40 31 200 12 10 201 38 10 202 13 10 203 38 10 204 39 10 205 13 10 206 40 10 207 41 10 208 37 10 209 30 32 210 41 32 211 42 32 212 12 33 213 43 33 214 38 33 215 38 34 216 34 35 217 33 36 218 38 37 219 33 38 220 39 39 221 39 40 222 33 41 223 32 42 224 39 43 225 32 44 226 40 45 227 40 46 228 32 47 229 31 48 230 40 49 231 31 50 232 41 51 233 41 52 234 31 53 235 36 54 236 41 55 237 36 56 238 42 57 239 42 58 240 36 59 241 43 60 242 43 61 243 36 62 244 35 63 245 43 64 246 35 65 247 38 66 248 38 67 249 35 68 250 34 69 251 14 22 252 13 22 253 23 22 254 23 22 255 13 22 256 37 22 257 23 22 258 37 22 259 28 22 260 28 22 261 37 22 262 26 22 263 44 70 264 51 71 265 47 72 266 47 73 267 51 74 268 48 75 269 47 76 270 48 77 271 46 78 272 46 79 273 48 80 274 49 81 275 46 82 276 49 83 277 45 84 278 45 85 279 49 86 280 50 87 281 45 88 282 50 89 283 44 90 284 44 91 285 50 92 286 51 93 287 52 94 288 59 95 289 55 96 290 55 97 291 59 98 292 56 99 293 55 100 294 56 101 295 54 102 296 54 103 297 56 104 298 57 105 299 54 106 300 57 107 301 53 108 302 53 109 303 57 110 304 58 111 305 53 112 306 58 113 307 52 114 308 52 115 309 58 116 310 59 117 311 63 118 312 60 119 313 62 120 314 62 121 315 60 122 316 61 123 317 55 124 318 61 124 319 52 124 320 52 125 321 61 125 322 64 125 323 52 2 324 64 2 325 65 2 326 52 2 327 65 2 328 53 2 329 53 126 330 65 126 331 62 126 332 53 127 333 62 127 334 54 127 335 54 128 336 62 128 337 61 128 338 54 129 339 61 129 340 55 129 341 69 130 342 66 131 343 68 132 344 68 133 345 66 134 346 67 135 347 51 136 348 71 136 349 68 136 350 51 137 351 68 137 352 48 137 353 48 138 354 68 138 355 67 138 356 48 139 357 67 139 358 49 139 359 49 140 360 67 140 361 70 140 362 49 5 363 70 5 364 50 5 365 50 141 366 70 141 367 71 141 368 50 142 369 71 142 370 51 142 371 60 143 372 63 143 373 73 143 374 73 144 375 63 144 376 72 144 377 66 145 378 69 145 379 75 145 380 75 146 381 69 146 382 74 146 383 72 147 384 91 147 385 73 147 386 76 11 387 90 11 388 72 11 389 72 148 390 90 148 391 91 148 392 90 149 393 76 149 394 77 149 395 90 11 396 77 11 397 89 11 398 89 11 399 77 11 400 78 11 401 89 11 402 78 11 403 88 11 404 88 150 405 78 150 406 73 150 407 88 151 408 73 151 409 91 151 410 73 152 411 85 152 412 86 152 413 79 153 414 84 153 415 73 153 416 84 154 417 79 154 418 74 154 419 84 155 420 74 155 421 87 155 422 87 156 423 74 156 424 86 156 425 86 157 426 74 157 427 73 157 428 74 158 429 80 158 430 92 158 431 92 11 432 80 11 433 95 11 434 95 11 435 80 11 436 81 11 437 95 11 438 81 11 439 94 11 440 94 159 441 81 159 442 82 159 443 94 11 444 82 11 445 93 11 446 93 11 447 82 11 448 83 11 449 93 11 450 83 11 451 75 11 452 93 160 453 75 160 454 92 160 455 92 161 456 75 161 457 74 161 458 84 162 459 85 162 460 73 162 461 97 22 462 68 22 463 96 22 464 96 163 465 68 163 466 71 163 467 96 164 468 71 164 469 99 164 470 99 22 471 71 22 472 64 22 473 99 22 474 64 22 475 98 22 476 98 22 477 64 22 478 97 22 479 97 22 480 64 22 481 61 22 482 97 165 483 61 165 484 68 165 485 68 166 486 61 166 487 69 166 488 69 167 489 61 167 490 60 167 491 69 168 492 60 168 493 74 168 494 74 169 495 60 169 496 73 169 497 59 5 498 98 5 499 97 5 500 59 5 501 97 5 502 56 5 503 56 5 504 97 5 505 100 5 506 56 170 507 100 170 508 57 170 509 57 5 510 100 5 511 101 5 512 57 5 513 101 5 514 58 5 515 58 5 516 101 5 517 98 5 518 58 171 519 98 171 520 59 171 521 101 10 522 102 10 523 98 10 524 98 10 525 102 10 526 99 10 527 47 172 528 96 172 529 44 172 530 44 173 531 96 173 532 99 173 533 44 174 534 99 174 535 102 174 536 44 175 537 102 175 538 45 175 539 45 176 540 102 176 541 103 176 542 45 177 543 103 177 544 46 177 545 46 178 546 103 178 547 96 178 548 46 179 549 96 179 550 47 179 551 103 11 552 100 11 553 96 11 554 96 11 555 100 11 556 97 11 557 70 11 558 65 11 559 71 11 560 71 11 561 65 11 562 64 11 563 84 180 564 104 181 565 85 182 566 85 183 567 104 184 568 105 185 569 85 186 570 105 187 571 86 188 572 86 189 573 105 190 574 106 191 575 86 192 576 106 193 577 87 194 578 87 195 579 106 196 580 107 197 581 87 198 582 107 199 583 84 200 584 84 201 585 107 202 586 104 203 587 88 204 588 111 205 589 108 206 590 88 207 591 108 208 592 89 209 593 89 210 594 108 211 595 90 212 596 90 213 597 108 214 598 109 215 599 90 216 600 109 217 601 110 218 602 90 219 603 110 220 604 91 221 605 91 222 606 110 223 607 111 224 608 91 225 609 111 226 610 88 227 611 95 228 612 112 229 613 92 230 614 92 231 615 112 232 616 113 233 617 92 234 618 113 235 619 93 236 620 93 237 621 113 238 622 114 239 623 93 240 624 114 241 625 94 242 626 94 243 627 114 244 628 115 245 629 94 246 630 115 247 631 95 248 632 95 249 633 115 250 634 112 251 635 79 252 636 118 253 637 74 254 638 74 255 639 118 256 640 116 257 641 74 258 642 116 259 643 80 260 644 80 261 645 116 262 646 117 263 647 78 264 648 123 265 649 73 266 650 73 267 651 123 268 652 119 269 653 73 270 654 119 271 655 79 272 656 79 273 657 119 274 658 118 275 659 76 276 660 120 277 661 77 278 662 77 279 663 120 280 664 121 281 665 77 282 666 121 283 667 122 284 668 77 285 669 122 286 670 78 287 671 78 288 672 122 289 673 123 290 674 103 12 675 62 12 676 100 12 677 100 12 678 62 12 679 65 12 680 100 12 681 65 12 682 101 12 683 101 12 684 65 12 685 70 12 686 101 12 687 70 12 688 102 12 689 102 12 690 70 12 691 103 12 692 103 12 693 70 12 694 67 12 695 103 291 696 67 291 697 62 291 698 62 12 699 67 12 700 63 12 701 63 12 702 67 12 703 66 12 704 63 292 705 66 292 706 72 292 707 72 12 708 66 12 709 75 12 710 72 293 711 75 293 712 120 293 713 120 294 714 75 294 715 124 294 716 124 295 717 75 295 718 83 295 719 120 296 720 76 296 721 72 296 722 80 297 723 117 298 724 81 299 725 81 300 726 117 301 727 125 302 728 81 303 729 125 304 730 126 305 731 81 306 732 126 307 733 82 308 734 82 309 735 126 310 736 83 311 737 83 312 738 126 313 739 124 314 740 112 315 741 125 315 742 117 315 743 125 10 744 112 10 745 115 10 746 125 10 747 115 10 748 126 10 749 126 316 750 115 316 751 114 316 752 126 317 753 114 317 754 124 317 755 114 318 756 113 318 757 124 318 758 124 10 759 113 10 760 110 10 761 110 10 762 113 10 763 111 10 764 111 319 765 113 319 766 106 319 767 106 320 768 113 320 769 112 320 770 106 321 771 112 321 772 116 321 773 116 10 774 112 10 775 117 10 776 111 10 777 123 10 778 108 10 779 108 10 780 123 10 781 122 10 782 108 10 783 122 10 784 109 10 785 109 322 786 122 322 787 121 322 788 109 10 789 121 10 790 110 10 791 110 10 792 121 10 793 120 10 794 111 10 795 119 10 796 123 10 797 119 323 798 111 323 799 105 323 800 105 10 801 111 10 802 106 10 803 124 324 804 110 324 805 120 324 806 104 10 807 118 10 808 119 10 809 104 325 810 119 325 811 105 325 812 118 326 813 104 326 814 116 326 815 116 327 816 104 327 817 107 327 818 116 328 819 107 328 820 106 328 821 135 334 858 136 334 859 138 334 860 138 335 861 136 335 862 137 335 863 136 2 864 139 2 865 137 2 866 137 2 867 139 2 868 140 2 869 141 336 870 142 336 871 144 336 872 144 337 873 142 337 874 143 337 875 145 5 876 141 5 877 146 5 878 146 5 879 141 5 880 144 5 881 149 338 882 135 338 883 138 338 884 138 339 885 147 339 886 149 339 887 149 2 888 147 2 889 148 2 890 136 340 891 135 340 892 142 340 893 136 341 894 142 341 895 141 341 896 141 10 897 145 10 898 136 10 899 136 10 900 145 10 901 139 10 902 150 11 903 151 11 904 153 11 905 153 11 906 151 11 907 152 11 908 154 5 909 150 5 910 155 5 911 155 5 912 150 5 913 153 5 914 156 10 915 154 10 916 157 10 917 157 10 918 154 10 919 155 10 920 151 2 921 156 2 922 152 2 923 152 2 924 156 2 925 157 2 926 157 22 927 155 22 928 152 22 929 152 22 930 155 22 931 153 22 932 147 342 933 138 342 934 159 342 935 159 343 936 138 343 937 158 343 938 158 5 939 160 5 940 159 5 941 143 344 942 161 344 943 163 344 944 163 345 945 161 345 946 162 345 947 162 2 948 164 2 949 163 2 950 139 22 951 150 22 952 140 22 953 140 346 954 150 346 955 154 346 956 140 22 957 154 22 958 156 22 959 139 22 960 145 22 961 150 22 962 150 22 963 145 22 964 151 22 965 151 347 966 145 347 967 146 347 968 151 348 969 146 348 970 156 348 971 156 22 972 146 22 973 140 22 974 149 349 975 165 349 976 135 349 977 135 350 978 165 350 979 142 350 980 138 351 981 137 351 982 143 351 983 143 352 984 137 352 985 144 352 986 137 11 987 140 11 988 144 11 989 144 11 990 140 11 991 146 11 992 160 12 993 158 12 994 164 12 995 164 12 996 158 12 997 163 12 998 163 353 999 158 353 1000 143 353 1001 158 354 1002 138 354 1003 143 354 1004 160 11 1005 169 11 1006 159 11 1007 159 355 1008 169 355 1009 170 355 1010 164 11 1011 167 11 1012 160 11 1013 160 356 1014 167 356 1015 168 356 1016 162 11 1017 166 11 1018 164 11 1019 159 11 1020 171 11 1021 162 11 1022 166 357 1023 167 357 1024 164 357 1025 168 11 1026 169 11 1027 160 11 1028 170 11 1029 171 11 1030 159 11 1031 162 358 1032 171 358 1033 166 358 1034 142 359 1035 165 359 1036 143 359 1037 172 5 1038 161 5 1039 165 5 1040 165 360 1041 161 360 1042 143 360 1043 149 361 1044 175 361 1045 165 361 1046 148 10 1047 173 10 1048 149 10 1049 172 10 1050 178 10 1051 148 10 1052 148 362 1053 178 362 1054 179 362 1055 165 10 1056 176 10 1057 172 10 1058 172 363 1059 176 363 1060 177 363 1061 173 10 1062 174 10 1063 149 10 1064 149 10 1065 174 10 1066 175 10 1067 165 364 1068 175 364 1069 176 364 1070 172 365 1071 177 365 1072 178 365 1073 148 366 1074 179 366 1075 173 366 1076 173 367 1077 169 368 1078 168 369 1079 173 370 1080 168 371 1081 174 372 1082 174 373 1083 168 374 1084 175 375 1085 175 376 1086 168 377 1087 167 378 1088 175 379 1089 167 380 1090 176 381 1091 176 382 1092 167 383 1093 166 384 1094 176 385 1095 166 386 1096 177 387 1097 177 388 1098 166 389 1099 171 390 1100 177 391 1101 171 392 1102 178 393 1103 178 394 1104 171 395 1105 170 396 1106 178 397 1107 170 398 1108 179 399 1109 179 400 1110 170 401 1111 173 402 1112 173 403 1113 170 404 1114 169 405 1115 147 12 1116 159 12 1117 148 12 1118 148 12 1119 159 12 1120 162 12 1121 148 12 1122 162 12 1123 172 12 1124 172 12 1125 162 12 1126 161 12 1127 182 406 1128 186 407 1129 181 408 1130 181 409 1131 186 410 1132 183 411 1133 181 412 1134 183 413 1135 184 414 1136 181 415 1137 184 416 1138 180 417 1139 180 418 1140 184 419 1141 185 420 1142 180 421 1143 185 422 1144 182 423 1145 182 424 1146 185 425 1147 186 426 1148 190 427 1149 194 428 1150 189 429 1151 189 430 1152 194 431 1153 191 432 1154 189 412 1155 191 433 1156 192 434 1157 189 435 1158 192 436 1159 188 437 1160 188 438 1161 192 439 1162 187 440 1163 187 441 1164 192 442 1165 193 443 1166 187 444 1167 193 445 1168 190 446 1169 190 447 1170 193 448 1171 194 449 1172 198 450 1173 195 451 1174 197 452 1175 197 453 1176 195 454 1177 196 455 1178 190 456 1179 200 456 1180 195 456 1181 190 457 1182 195 457 1183 187 457 1184 187 458 1185 195 458 1186 198 458 1187 187 459 1188 198 459 1189 188 459 1190 188 460 1191 198 460 1192 199 460 1193 188 2 1194 199 2 1195 189 2 1196 189 2 1197 199 2 1198 200 2 1199 189 461 1200 200 461 1201 190 461 1202 204 462 1203 201 463 1204 203 464 1205 203 465 1206 201 466 1207 202 467 1208 186 468 1209 204 468 1210 205 468 1211 186 5 1212 205 5 1213 183 5 1214 183 5 1215 205 5 1216 206 5 1217 183 5 1218 206 5 1219 184 5 1220 184 469 1221 206 469 1222 201 469 1223 184 470 1224 201 470 1225 185 470 1226 185 471 1227 201 471 1228 204 471 1229 185 472 1230 204 472 1231 186 472 1232 197 473 1233 196 473 1234 208 473 1235 208 474 1236 196 474 1237 207 474 1238 203 475 1239 202 475 1240 210 475 1241 210 476 1242 202 476 1243 209 476 1244 207 477 1245 224 477 1246 208 477 1247 210 478 1248 220 478 1249 207 478 1250 207 479 1251 220 479 1252 221 479 1253 209 480 1254 230 480 1255 210 480 1256 211 11 1257 229 11 1258 209 11 1259 211 11 1260 228 11 1261 229 11 1262 228 11 1263 211 11 1264 212 11 1265 228 481 1266 212 481 1267 227 481 1268 227 482 1269 212 482 1270 213 482 1271 227 483 1272 213 483 1273 210 483 1274 227 484 1275 210 484 1276 230 484 1277 210 485 1278 219 485 1279 220 485 1280 214 486 1281 219 486 1282 210 486 1283 207 487 1284 222 487 1285 214 487 1286 207 488 1287 221 488 1288 222 488 1289 216 489 1290 223 489 1291 215 489 1292 215 490 1293 223 490 1294 207 490 1295 223 11 1296 216 11 1297 226 11 1298 226 491 1299 216 491 1300 225 491 1301 225 492 1302 216 492 1303 217 492 1304 225 493 1305 217 493 1306 224 493 1307 224 11 1308 217 11 1309 218 11 1310 224 11 1311 218 11 1312 208 11 1313 222 494 1314 219 494 1315 214 494 1316 207 495 1317 223 495 1318 224 495 1319 209 496 1320 229 496 1321 230 496 1322 232 12 1323 195 12 1324 231 12 1325 231 497 1326 195 497 1327 200 497 1328 231 498 1329 200 498 1330 234 498 1331 234 12 1332 200 12 1333 205 12 1334 234 12 1335 205 12 1336 233 12 1337 233 12 1338 205 12 1339 232 12 1340 232 12 1341 205 12 1342 204 12 1343 232 499 1344 204 499 1345 195 499 1346 195 500 1347 204 500 1348 196 500 1349 196 501 1350 204 501 1351 203 501 1352 196 502 1353 203 502 1354 207 502 1355 207 503 1356 203 503 1357 210 503 1358 194 5 1359 231 5 1360 234 5 1361 194 5 1362 234 5 1363 191 5 1364 191 5 1365 234 5 1366 236 5 1367 191 504 1368 236 504 1369 192 504 1370 192 5 1371 236 5 1372 235 5 1373 192 5 1374 235 5 1375 193 5 1376 193 505 1377 235 505 1378 231 505 1379 193 5 1380 231 5 1381 194 5 1382 234 10 1383 233 10 1384 236 10 1385 236 10 1386 233 10 1387 237 10 1388 182 506 1389 233 506 1390 232 506 1391 182 507 1392 232 507 1393 180 507 1394 180 508 1395 232 508 1396 238 508 1397 180 509 1398 238 509 1399 237 509 1400 180 510 1401 237 510 1402 181 510 1403 181 511 1404 237 511 1405 233 511 1406 181 512 1407 233 512 1408 182 512 1409 232 11 1410 231 11 1411 238 11 1412 238 11 1413 231 11 1414 235 11 1415 205 11 1416 200 11 1417 206 11 1418 206 11 1419 200 11 1420 199 11 1421 222 513 1422 242 514 1423 239 515 1424 222 516 1425 239 517 1426 219 518 1427 219 519 1428 239 520 1429 240 521 1430 219 522 1431 240 523 1432 220 524 1433 220 525 1434 240 526 1435 241 527 1436 220 528 1437 241 529 1438 221 530 1439 221 531 1440 241 532 1441 242 533 1442 221 534 1443 242 535 1444 222 536 1445 223 537 1446 243 538 1447 224 539 1448 224 540 1449 243 541 1450 244 542 1451 224 543 1452 244 544 1453 245 545 1454 224 546 1455 245 547 1456 225 548 1457 225 549 1458 245 550 1459 246 551 1460 225 552 1461 246 553 1462 226 554 1463 226 555 1464 246 556 1465 223 557 1466 223 558 1467 246 559 1468 243 560 1469 227 561 1470 247 562 1471 248 563 1472 227 564 1473 248 565 1474 228 566 1475 228 567 1476 248 568 1477 249 569 1478 228 570 1479 249 571 1480 229 572 1481 229 573 1482 249 574 1483 250 575 1484 229 576 1485 250 577 1486 230 578 1487 230 579 1488 250 580 1489 227 581 1490 227 582 1491 250 583 1492 247 584 1493 213 585 1494 260 586 1495 210 587 1496 210 588 1497 260 589 1498 251 590 1499 210 591 1500 251 592 1501 214 593 1502 214 594 1503 251 595 1504 252 596 1505 214 597 1506 252 598 1507 207 599 1508 207 600 1509 252 601 1510 253 602 1511 207 603 1512 253 604 1513 215 605 1514 215 606 1515 253 607 1516 254 608 1517 215 609 1518 254 610 1519 216 611 1520 216 612 1521 254 613 1522 255 614 1523 216 615 1524 255 616 1525 217 617 1526 217 618 1527 255 619 1528 218 620 1529 218 621 1530 255 622 1531 256 623 1532 235 22 1533 201 22 1534 238 22 1535 238 22 1536 201 22 1537 206 22 1538 238 624 1539 206 624 1540 237 624 1541 237 22 1542 206 22 1543 199 22 1544 237 22 1545 199 22 1546 236 22 1547 236 22 1548 199 22 1549 235 22 1550 235 22 1551 199 22 1552 198 22 1553 235 625 1554 198 625 1555 201 625 1556 201 626 1557 198 626 1558 202 626 1559 202 627 1560 198 627 1561 197 627 1562 202 22 1563 197 22 1564 209 22 1565 209 22 1566 197 22 1567 208 22 1568 209 628 1569 208 628 1570 257 628 1571 257 629 1572 208 629 1573 256 629 1574 256 630 1575 208 630 1576 218 630 1577 257 631 1578 211 631 1579 209 631 1580 211 632 1581 257 633 1582 258 634 1583 211 635 1584 258 636 1585 212 637 1586 212 638 1587 258 639 1588 259 640 1589 212 641 1590 259 642 1591 213 643 1592 213 644 1593 259 645 1594 260 646 1595 247 10 1596 260 10 1597 259 10 1598 247 10 1599 259 10 1600 248 10 1601 248 10 1602 259 10 1603 249 10 1604 249 647 1605 259 647 1606 258 647 1607 249 10 1608 258 10 1609 257 10 1610 250 10 1611 251 10 1612 247 10 1613 247 10 1614 251 10 1615 260 10 1616 251 648 1617 250 648 1618 241 648 1619 241 649 1620 250 649 1621 244 649 1622 244 650 1623 250 650 1624 249 650 1625 244 651 1626 249 651 1627 257 651 1628 254 10 1629 243 10 1630 255 10 1631 255 652 1632 243 652 1633 246 652 1634 255 653 1635 246 653 1636 245 653 1637 255 654 1638 245 654 1639 256 654 1640 256 655 1641 245 655 1642 244 655 1643 244 10 1644 243 10 1645 241 10 1646 241 10 1647 243 10 1648 253 10 1649 253 10 1650 243 10 1651 254 10 1652 242 10 1653 252 10 1654 239 10 1655 239 656 1656 252 656 1657 251 656 1658 239 657 1659 251 657 1660 240 657 1661 240 10 1662 251 10 1663 241 10 1664 252 10 1665 242 10 1666 253 10 1667 253 658 1668 242 658 1669 241 658 1670 257 659 1671 256 659 1672 244 659 1673</p>
        </triangles>
        <triangles material="Steel_-_Satin_014-material" count="12">
          <input semantic="VERTEX" source="#edf_torsional_300_top-mesh-vertices" offset="0"/>
          <input semantic="NORMAL" source="#edf_torsional_300_top-mesh-normals" offset="1"/>
          <input semantic="TEXCOORD" source="#edf_torsional_300_top-mesh-map-0" offset="2" set="0"/>
          <p>131 329 822 127 329 823 129 329 824 129 330 825 127 330 826 128 330 827 132 2 828 130 2 829 131 2 830 132 331 831 131 331 832 129 331 833 133 10 834 132 10 835 128 10 836 128 10 837 132 10 838 129 10 839 134 5 840 133 5 841 128 5 842 134 332 843 128 332 844 127 332 845 130 11 846 134 11 847 131 11 848 131 333 849 134 333 850 127 333 851 134 22 852 130 22 853 133 22 854 133 22 855 130 22 856 132 22 857</p>
        </triangles>
      </mesh>
    </geometry>
  </library_geometries>
  <library_visual_scenes>
    <visual_scene id="Scene" name="Scene">
      <node id="edf_torsional_300_top" name="edf_torsional_300_top" type="NODE">
        <matrix sid="transform">-4.37114e-10 -7.54979e-10 0.01 -0.314289 0.01 0 4.37114e-10 -0.00631 0 0.01 7.54979e-10 -0.001656 0 0 0 1</matrix>
        <instance_geometry url="#edf_torsional_300_top-mesh" name="edf_torsional_300_top">
          <bind_material>
            <technique_common>
              <instance_material symbol="ABS__White__014-material" target="#ABS__White__014-material">
                <bind_vertex_input semantic="UVMap" input_semantic="TEXCOORD" input_set="0"/>
              </instance_material>
              <instance_material symbol="Steel_-_Satin_014-material" target="#Steel_-_Satin_014-material">
                <bind_vertex_input semantic="UVMap" input_semantic="TEXCOORD" input_set="0"/>
              </instance_material>
            </technique_common>
          </bind_material>
        </instance_geometry>
      </node>
    </visual_scene>
  </library_visual_scenes>
  <scene>
    <instance_visual_scene url="#Scene"/>
  </scene>
</COLLADA>